<svg width="326" height="172" viewBox="0 0 326 172" fill="none" xmlns="http://www.w3.org/2000/svg">
<g filter="url(#filter0_dd_1555_773)">
<g clip-path="url(#clip0_1555_773)">
<path d="M169 3H3V169H169V3Z" fill="white"/>
<mask id="mask0_1555_773" style="mask-type:luminance" maskUnits="userSpaceOnUse" x="163" y="3" width="160" height="166">
<path d="M323 3H163V169H323V3Z" fill="white"/>
</mask>
<g mask="url(#mask0_1555_773)">
<path d="M321.82 169L323 167.98V169H321.82Z" fill="#DD2B40"/>
<path d="M319.21 169L323 165.72V167.98L321.82 169H319.21Z" fill="#DE2C41"/>
<path d="M316.61 169L323 163.46V165.72L319.21 169H316.61Z" fill="#DF2C41"/>
<path d="M314 169L323 161.2V163.46L316.61 169H314Z" fill="#E02C42"/>
<path d="M311.39 169L323 158.94V161.2L314 169H311.39Z" fill="#E12C43"/>
<path d="M308.78 169L323 156.68V158.94L311.39 169H308.78Z" fill="#E22D43"/>
<path d="M306.17 169L323 154.42V156.68L308.78 169H306.17Z" fill="#E32D44"/>
<path d="M303.56 169L323 152.16V154.42L306.17 169H303.56Z" fill="#E42D45"/>
<path d="M300.95 169L323 149.9V152.16L303.56 169H300.95Z" fill="#E52E46"/>
<path d="M298.34 169L323 147.64V149.9L300.95 169H298.34Z" fill="#E62E46"/>
<path d="M295.73 169L323 145.38V147.64L298.34 169H295.73Z" fill="#E72E47"/>
<path d="M293.12 169L323 143.12V145.38L295.73 169H293.12Z" fill="#E82F48"/>
<path d="M290.51 169L323 140.85V143.12L293.12 169H290.51Z" fill="#E92F48"/>
<path d="M287.9 169L323 138.59V140.85L290.51 169H287.9Z" fill="#EA2F49"/>
<path d="M285.29 169L323 136.33V138.59L287.9 169H285.29Z" fill="#EB2F4A"/>
<path d="M282.68 169L323 134.07V136.33L285.29 169H282.68Z" fill="#EC304A"/>
<path d="M280.07 169L323 131.81V134.07L282.68 169H280.07Z" fill="#ED304B"/>
<path d="M277.31 169L323 129.42V131.81L280.07 169H277.31Z" fill="#ED304B"/>
<path d="M274.55 169L323 127.03V129.42L277.31 169H274.55Z" fill="#EC304A"/>
<path d="M271.79 169L323 124.63V127.03L274.55 169H271.79Z" fill="#EB2F4A"/>
<path d="M269.02 169L323 122.24V124.63L271.79 169H269.02Z" fill="#EA2F49"/>
<path d="M266.26 169L323 119.85V122.24L269.02 169H266.26Z" fill="#E92F48"/>
<path d="M263.5 169L323 117.45V119.85L266.26 169H263.5Z" fill="#E82F48"/>
<path d="M260.74 169L323 115.06V117.45L263.5 169H260.74Z" fill="#E72E47"/>
<path d="M257.97 169L323 112.67V115.06L260.74 169H257.97Z" fill="#E62E47"/>
<path d="M255.21 169L323 110.27V112.67L257.97 169H255.21Z" fill="#E52E46"/>
<path d="M252.45 169L323 107.88V110.27L255.21 169H252.45Z" fill="#E42E45"/>
<path d="M249.69 169L323 105.49V107.88L252.45 169H249.69Z" fill="#E32D45"/>
<path d="M246.92 169L323 103.09V105.49L249.69 169H246.92Z" fill="#E22D44"/>
<path d="M244.16 169L323 100.7V103.09L246.92 169H244.16Z" fill="#E12D43"/>
<path d="M241.4 169L323 98.31V100.7L244.16 169H241.4Z" fill="#E02C43"/>
<path d="M238.63 169L323 95.91V98.31L241.4 169H238.63Z" fill="#DF2C42"/>
<path d="M235.87 169L323 93.52V95.91L238.63 169H235.87Z" fill="#DE2C42"/>
<path d="M233.11 169L323 91.13V93.52L235.87 169H233.11Z" fill="#DD2C41"/>
<path d="M230.35 169L323 88.73V91.13L233.11 169H230.35Z" fill="#DC2B40"/>
<path d="M227.58 169L323 86.34V88.73L230.35 169H227.58Z" fill="#DB2B40"/>
<path d="M224.82 169L323 83.95V86.34L227.58 169H224.82Z" fill="#DA2B3F"/>
<path d="M222.06 169L323 81.55V83.95L224.82 169H222.06Z" fill="#D92B3E"/>
<path d="M219.3 169L323 79.16V81.55L222.06 169H219.3Z" fill="#D82A3E"/>
<path d="M216.53 169L323 76.77V79.16L219.3 169H216.53Z" fill="#D72A3D"/>
<path d="M213.77 169L323 74.37V76.77L216.53 169H213.77Z" fill="#D62A3D"/>
<path d="M211.01 169L323 71.98V74.37L213.77 169H211.01Z" fill="#D5293C"/>
<path d="M208.25 169L323 69.59V71.98L211.01 169H208.25Z" fill="#D4293B"/>
<path d="M205.48 169L323 67.19V69.59L208.25 169H205.48Z" fill="#D3293B"/>
<path d="M202.72 169L323 64.8V67.19L205.48 169H202.72Z" fill="#D2293A"/>
<path d="M199.96 169L323 62.41V64.8L202.72 169H199.96Z" fill="#D12839"/>
<path d="M197.19 169L323 60.01V62.41L199.96 169H197.19Z" fill="#D02839"/>
<path d="M194.43 169L323 57.62V60.01L197.19 169H194.43Z" fill="#CF2838"/>
<path d="M191.67 169L323 55.23V57.62L194.43 169H191.67Z" fill="#CE2838"/>
<path d="M188.91 169L323 52.83V55.23L191.67 169H188.91Z" fill="#CC2737"/>
<path d="M186.14 169L323 50.44V52.83L188.91 169H186.14Z" fill="#CB2736"/>
<path d="M183.38 169L323 48.05V50.44L186.14 169H183.38Z" fill="#CA2736"/>
<path d="M180.62 169L323 45.65V48.05L183.38 169H180.62Z" fill="#C92635"/>
<path d="M177.86 169L323 43.26V45.65L180.62 169H177.86Z" fill="#C82634"/>
<path d="M175.09 169L323 40.87V43.26L177.86 169H175.09Z" fill="#C72634"/>
<path d="M172.33 169L323 38.47V40.87L175.09 169H172.33Z" fill="#C62633"/>
<path d="M169.57 169L323 36.08V38.47L172.33 169H169.57Z" fill="#C52532"/>
<path d="M166.81 169L323 33.69V36.08L169.57 169H166.81Z" fill="#C42532"/>
<path d="M164.04 169L323 31.3V33.69L166.81 169H164.04Z" fill="#C32531"/>
<path d="M163 167.51L323 28.9V31.3L164.04 169H163V167.51Z" fill="#C22431"/>
<path d="M163 165.12L323 26.51V28.9L163 167.51V165.12Z" fill="#C12430"/>
<path d="M163 162.72L323 24.11V26.51L163 165.12V162.72Z" fill="#C0242F"/>
<path d="M163 160.33L323 21.72V24.11L163 162.72V160.33Z" fill="#BF242F"/>
<path d="M163 157.94L323 19.33V21.72L163 160.33V157.94Z" fill="#BE232E"/>
<path d="M163 155.54L323 16.94V19.33L163 157.94V155.54Z" fill="#BD232D"/>
<path d="M163 153.15L323 14.54V16.94L163 155.54V153.15Z" fill="#BC232D"/>
<path d="M163 150.76L323 12.15V14.54L163 153.15V150.76Z" fill="#BB232C"/>
<path d="M163 148.36L323 9.75V12.15L163 150.76V148.36Z" fill="#BA222C"/>
<path d="M163 145.97L323 7.35999V9.74999L163 148.36V145.97Z" fill="#B9222B"/>
<path d="M163 143.58L323 4.97V7.36L163 145.97V143.58Z" fill="#B8222A"/>
<path d="M163 141.18L322.51 3H323V4.97L163 143.58V141.18Z" fill="#B7212A"/>
<path d="M163 138.79L319.75 3H322.51L163 141.18V138.79Z" fill="#B62129"/>
<path d="M163 136.4L316.98 3H319.75L163 138.79V136.4Z" fill="#B52128"/>
<path d="M163 134L314.22 3H316.98L163 136.4V134Z" fill="#B42128"/>
<path d="M163 131.61L311.46 3H314.22L163 134V131.61Z" fill="#B32027"/>
<path d="M163 129.22L308.7 3H311.46L163 131.61V129.22Z" fill="#B22027"/>
<path d="M163 126.82L305.93 3H308.7L163 129.22V126.82Z" fill="#B12026"/>
<path d="M163 124.43L303.17 3H305.93L163 126.82V124.43Z" fill="#B02025"/>
<path d="M163 122.04L300.41 3H303.17L163 124.43V122.04Z" fill="#AF1F25"/>
<path d="M163 119.64L297.64 3H300.41L163 122.04V119.64Z" fill="#AE1F24"/>
<path d="M163 117.7L295.41 3H297.64L163 119.64V117.7Z" fill="#AE1F24"/>
<path d="M163 115.76L293.17 3H295.41L163 117.7V115.76Z" fill="#AF1F25"/>
<path d="M163 113.82L290.93 3H293.17L163 115.76V113.82Z" fill="#B02025"/>
<path d="M163 111.88L288.69 3H290.93L163 113.82V111.88Z" fill="#B12026"/>
<path d="M163 109.94L286.45 3H288.69L163 111.88V109.94Z" fill="#B22027"/>
<path d="M163 108L284.21 3H286.45L163 109.94V108Z" fill="#B32027"/>
<path d="M163 106.06L281.97 3H284.21L163 108V106.06Z" fill="#B42128"/>
<path d="M163 104.13L279.73 3H281.97L163 106.06V104.13Z" fill="#B52128"/>
<path d="M163 102.19L277.49 3H279.73L163 104.13V102.19Z" fill="#B62129"/>
<path d="M163 100.25L275.25 3H277.49L163 102.19V100.25Z" fill="#B7212A"/>
<path d="M163 98.31L273.01 3H275.25L163 100.25V98.31Z" fill="#B8222A"/>
<path d="M163 96.37L270.77 3H273.01L163 98.31V96.37Z" fill="#B9222B"/>
<path d="M163 94.43L268.54 3H270.77L163 96.37V94.43Z" fill="#BA222C"/>
<path d="M163 92.49L266.3 3H268.54L163 94.43V92.49Z" fill="#BB232C"/>
<path d="M163 90.55L264.06 3H266.3L163 92.49V90.55Z" fill="#BC232D"/>
<path d="M163 88.61L261.82 3H264.06L163 90.55V88.61Z" fill="#BD232D"/>
<path d="M163 86.67L259.58 3H261.82L163 88.61V86.67Z" fill="#BE232E"/>
<path d="M163 84.73L257.34 3H259.58L163 86.67V84.73Z" fill="#BF242F"/>
<path d="M163 82.79L255.1 3H257.34L163 84.73V82.79Z" fill="#C0242F"/>
<path d="M163 80.85L252.86 3H255.1L163 82.79V80.85Z" fill="#C12430"/>
<path d="M163 78.91L250.62 3H252.86L163 80.85V78.91Z" fill="#C22431"/>
<path d="M163 76.97L248.38 3H250.62L163 78.91V76.97Z" fill="#C32531"/>
<path d="M163 75.03L246.14 3H248.38L163 76.97V75.03Z" fill="#C42532"/>
<path d="M163 73.09L243.9 3H246.14L163 75.03V73.09Z" fill="#C52532"/>
<path d="M163 71.15L241.66 3H243.9L163 73.09V71.15Z" fill="#C62633"/>
<path d="M163 69.21L239.43 3H241.66L163 71.15V69.21Z" fill="#C72634"/>
<path d="M163 67.27L237.19 3H239.43L163 69.21V67.27Z" fill="#C82634"/>
<path d="M163 65.33L234.95 3H237.19L163 67.27V65.33Z" fill="#C92635"/>
<path d="M163 63.39L232.71 3H234.95L163 65.33V63.39Z" fill="#CA2736"/>
<path d="M163 61.45L230.47 3H232.71L163 63.39V61.45Z" fill="#CB2736"/>
<path d="M163 59.51L228.23 3H230.47L163 61.45V59.51Z" fill="#CC2737"/>
<path d="M163 57.57L225.99 3H228.23L163 59.51V57.57Z" fill="#CE2838"/>
<path d="M163 55.63L223.75 3H225.99L163 57.57V55.63Z" fill="#CF2838"/>
<path d="M163 53.69L221.51 3H223.75L163 55.63V53.69Z" fill="#D02839"/>
<path d="M163 51.75L219.27 3H221.51L163 53.69V51.75Z" fill="#D12839"/>
<path d="M163 49.81L217.03 3H219.27L163 51.75V49.81Z" fill="#D2293A"/>
<path d="M163 47.87L214.79 3H217.03L163 49.81V47.87Z" fill="#D3293B"/>
<path d="M163 45.93L212.56 3H214.79L163 47.87V45.93Z" fill="#D4293B"/>
<path d="M163 43.99L210.32 3H212.56L163 45.93V43.99Z" fill="#D5293C"/>
<path d="M163 42.05L208.08 3H210.32L163 43.99V42.05Z" fill="#D62A3D"/>
<path d="M163 40.11L205.84 3H208.08L163 42.05V40.11Z" fill="#D72A3D"/>
<path d="M163 38.17L203.6 3H205.84L163 40.11V38.17Z" fill="#D82A3E"/>
<path d="M163 36.23L201.36 3H203.6L163 38.17V36.23Z" fill="#D92B3E"/>
<path d="M163 34.29L199.12 3H201.36L163 36.23V34.29Z" fill="#DA2B3F"/>
<path d="M163 32.35L196.88 3H199.12L163 34.29V32.35Z" fill="#DB2B40"/>
<path d="M163 30.41L194.64 3H196.88L163 32.35V30.41Z" fill="#DC2B40"/>
<path d="M163 28.47L192.4 3H194.64L163 30.41V28.47Z" fill="#DD2C41"/>
<path d="M163 26.53L190.16 3H192.4L163 28.47V26.53Z" fill="#DE2C42"/>
<path d="M163 24.59L187.92 3H190.16L163 26.53V24.59Z" fill="#DF2C42"/>
<path d="M163 22.65L185.69 3H187.92L163 24.59V22.65Z" fill="#E02C43"/>
<path d="M163 20.71L183.44 3H185.69L163 22.65V20.71Z" fill="#E12D43"/>
<path d="M163 18.77L181.21 3H183.44L163 20.71V18.77Z" fill="#E22D44"/>
<path d="M163 16.83L178.97 3H181.21L163 18.77V16.83Z" fill="#E32D45"/>
<path d="M163 14.89L176.73 3H178.97L163 16.83V14.89Z" fill="#E42E45"/>
<path d="M163 12.95L174.49 3H176.73L163 14.89V12.95Z" fill="#E52E46"/>
<path d="M163 11.01L172.25 3H174.49L163 12.95V11.01Z" fill="#E62E47"/>
<path d="M163 9.07L170.01 3H172.25L163 11.01V9.07Z" fill="#E72E47"/>
<path d="M163 7.13L167.77 3H170.01L163 9.07V7.13Z" fill="#E82F48"/>
<path d="M163 5.19L165.53 3H167.77L163 7.13V5.19Z" fill="#E92F48"/>
<path d="M163 3.25L163.29 3H165.53L163 5.19V3.25Z" fill="#EA2F49"/>
<path d="M163.29 3L163 3.25V3H163.29Z" fill="#EB2F4A"/>
</g>
<path d="M241.04 3H234.81L237.93 86L241.04 3Z" fill="#E93345"/>
<path d="M223.51 3H216.99L237.93 86.06L223.51 3Z" fill="#E93345"/>
<path d="M204.62 3H197.15L237.95 86.11L204.62 3Z" fill="#E93345"/>
<path d="M182.2 3H172.66L237.98 86.16L182.2 3Z" fill="#E93345"/>
<path d="M163 13.38V23.59L238.02 86.2L163 13.38Z" fill="#E93345"/>
<path d="M163 39.06V46.58L238.06 86.24L163 39.06Z" fill="#E93345"/>
<path d="M163 58.7V64.93L238.12 86.26L163 58.7Z" fill="#E93345"/>
<path d="M163 75.51V81.21L238.17 86.27L163 75.51Z" fill="#E93345"/>
<path d="M163 91.34V97.05L238.23 86.27L163 91.34Z" fill="#E93345"/>
<path d="M163 107.64V113.88L238.28 86.26L163 107.64Z" fill="#E93345"/>
<path d="M163 126.04V133.59L238.34 86.24L163 126.04Z" fill="#E93345"/>
<path d="M163 149.12V159.38L238.38 86.2L163 149.12Z" fill="#E93345"/>
<path d="M173.35 169H182.86L238.42 86.16L173.35 169Z" fill="#E93345"/>
<path d="M197.75 169H205.21L238.45 86.11L197.75 169Z" fill="#E93345"/>
<path d="M217.56 169H224.06L238.47 86.06L217.56 169Z" fill="#E93345"/>
<path d="M235.36 169H241.59L238.47 86L235.36 169Z" fill="#E93345"/>
<path d="M252.89 169H259.41L238.47 85.94L252.89 169Z" fill="#E93345"/>
<path d="M271.78 169H279.25L238.45 85.89L271.78 169Z" fill="#E93345"/>
<path d="M294.2 169H303.74L238.42 85.84L294.2 169Z" fill="#E93345"/>
<path d="M323 167.94V156.42L238.38 85.8L323 167.94Z" fill="#E93345"/>
<path d="M323 138.97V130.5L238.34 85.76L323 138.97Z" fill="#E93345"/>
<path d="M323 116.82V109.79L238.28 85.74L323 116.82Z" fill="#E93345"/>
<path d="M323 97.87V91.43L238.23 85.73L323 97.87Z" fill="#E93345"/>
<path d="M323 80.02V73.58L238.17 85.73L323 80.02Z" fill="#E93345"/>
<path d="M323 61.64V54.59L238.12 85.74L323 61.64Z" fill="#E93345"/>
<path d="M323 40.88V32.38L238.06 85.76L323 40.88Z" fill="#E93345"/>
<path d="M323 14.86V3.29999L238.02 85.8L323 14.86Z" fill="#E93345"/>
<path d="M303.05 3H293.54L237.98 85.84L303.05 3Z" fill="#E93345"/>
<path d="M278.64 3H271.19L237.95 85.89L278.64 3Z" fill="#E93345"/>
<path d="M258.84 3H252.34L237.93 85.94L258.84 3Z" fill="#E93345"/>
<mask id="mask1_1555_773" style="mask-type:luminance" maskUnits="userSpaceOnUse" x="3" y="3" width="271" height="94">
<path d="M273.17 3L169 39.14L163 41.22L3 96.74V43.35L119.28 3H273.17Z" fill="white"/>
</mask>
<g mask="url(#mask1_1555_773)">
<path d="M12.34 3L3 12.19V3H12.34Z" fill="#E2850A"/>
<path d="M13.92 3L3 13.74V12.19L12.34 3H13.92Z" fill="#E2850A"/>
<path d="M15.49 3L3 15.29V13.74L13.92 3H15.49Z" fill="#E2860A"/>
<path d="M17.07 3L3 16.85V15.29L15.49 3H17.07Z" fill="#E3870B"/>
<path d="M18.65 3L3 18.4V16.85L17.07 3H18.65Z" fill="#E3880B"/>
<path d="M20.23 3L3 19.95V18.4L18.65 3H20.23Z" fill="#E3890B"/>
<path d="M21.8 3L3 21.5V19.95L20.23 3H21.8Z" fill="#E48A0C"/>
<path d="M23.38 3L3 23.06V21.5L21.8 3H23.38Z" fill="#E48B0C"/>
<path d="M24.96 3L3 24.61V23.06L23.38 3H24.96Z" fill="#E48C0C"/>
<path d="M26.54 3L3 26.16V24.61L24.96 3H26.54Z" fill="#E58D0D"/>
<path d="M28.12 3L3 27.71V26.16L26.54 3H28.12Z" fill="#E58E0D"/>
<path d="M29.7 3L3 29.27V27.71L28.12 3H29.7Z" fill="#E58F0D"/>
<path d="M31.27 3L3 30.82V29.27L29.7 3H31.27Z" fill="#E6900E"/>
<path d="M32.85 3L3 32.37V30.82L31.27 3H32.85Z" fill="#E6910E"/>
<path d="M34.43 3L3 33.92V32.37L32.85 3H34.43Z" fill="#E6920E"/>
<path d="M36.01 3L3 35.48V33.92L34.43 3H36.01Z" fill="#E6930F"/>
<path d="M37.58 3L3 37.03V35.48L36.01 3H37.58Z" fill="#E7940F"/>
<path d="M39.16 3L3 38.58V37.03L37.58 3H39.16Z" fill="#E79510"/>
<path d="M40.74 3L3 40.13V38.58L39.16 3H40.74Z" fill="#E79610"/>
<path d="M42.32 3L3 41.69V40.13L40.74 3H42.32Z" fill="#E89710"/>
<path d="M43.9 3L3 43.24V41.69L42.32 3H43.9Z" fill="#E89811"/>
<path d="M45.47 3L3 44.79V43.24L43.9 3H45.47Z" fill="#E89911"/>
<path d="M47.05 3L3 46.34V44.79L45.47 3H47.05Z" fill="#E99A11"/>
<path d="M48.63 3L3 47.9V46.34L47.05 3H48.63Z" fill="#E99B12"/>
<path d="M50.21 3L3 49.45V47.9L48.63 3H50.21Z" fill="#E99C12"/>
<path d="M51.78 3L3 51V49.45L50.21 3H51.78Z" fill="#EA9D12"/>
<path d="M53.36 3L3 52.55V51L51.78 3H53.36Z" fill="#EA9E13"/>
<path d="M54.94 3L3 54.11V52.55L53.36 3H54.94Z" fill="#EA9F13"/>
<path d="M56.52 3L3 55.66V54.11L54.94 3H56.52Z" fill="#EBA013"/>
<path d="M58.1 3L3 57.21V55.66L56.52 3H58.1Z" fill="#EBA114"/>
<path d="M59.67 3L3 58.76V57.21L58.1 3H59.67Z" fill="#EBA214"/>
<path d="M61.25 3L3 60.32V58.76L59.67 3H61.25Z" fill="#ECA314"/>
<path d="M62.83 3L3 61.87V60.32L61.25 3H62.83Z" fill="#ECA415"/>
<path d="M64.41 3L3 63.42V61.87L62.83 3H64.41Z" fill="#ECA515"/>
<path d="M65.98 3L3 64.97V63.42L64.41 3H65.98Z" fill="#EDA615"/>
<path d="M67.56 3L3 66.53V64.97L65.98 3H67.56Z" fill="#EDA716"/>
<path d="M69.14 3L3 68.08V66.53L67.56 3H69.14Z" fill="#EDA816"/>
<path d="M70.72 3L3 69.63V68.08L69.14 3H70.72Z" fill="#EEA916"/>
<path d="M72.3 3L3 71.18V69.63L70.72 3H72.3Z" fill="#EEAA17"/>
<path d="M73.87 3L3 72.74V71.18L72.3 3H73.87Z" fill="#EEAB17"/>
<path d="M75.45 3L3 74.29V72.74L73.87 3H75.45Z" fill="#EFAC17"/>
<path d="M77.03 3L3 75.84V74.29L75.45 3H77.03Z" fill="#EFAD18"/>
<path d="M78.61 3L3 77.39V75.84L77.03 3H78.61Z" fill="#EFAF18"/>
<path d="M80.19 3L3 78.95V77.39L78.61 3H80.19Z" fill="#EFB019"/>
<path d="M81.76 3L3 80.5V78.95L80.19 3H81.76Z" fill="#F0B119"/>
<path d="M83.34 3L3 82.05V80.5L81.76 3H83.34Z" fill="#F0B219"/>
<path d="M84.92 3L3 83.6V82.05L83.34 3H84.92Z" fill="#F0B31A"/>
<path d="M86.5 3L3 85.16V83.6L84.92 3H86.5Z" fill="#F1B41A"/>
<path d="M88.08 3L3 86.71V85.16L86.5 3H88.08Z" fill="#F1B51A"/>
<path d="M89.65 3L3 88.26V86.71L88.08 3H89.65Z" fill="#F1B61B"/>
<path d="M91.23 3L3 89.81V88.26L89.65 3H91.23Z" fill="#F2B71B"/>
<path d="M92.81 3L3 91.37V89.81L91.23 3H92.81Z" fill="#F2B81B"/>
<path d="M94.39 3L3 92.92V91.37L92.81 3H94.39Z" fill="#F2B91C"/>
<path d="M95.96 3L3 94.47V92.92L94.39 3H95.96Z" fill="#F3BA1C"/>
<path d="M97.54 3L3 96.02V94.47L95.96 3H97.54Z" fill="#F3BB1C"/>
<path d="M99.12 3L3.85 96.74H3V96.02L97.54 3H99.12Z" fill="#F3BC1D"/>
<path d="M100.7 3L5.4301 96.74H3.8501L99.1201 3H100.7Z" fill="#F4BD1D"/>
<path d="M102.28 3L6.99993 96.74H5.42993L100.7 3H102.28Z" fill="#F4BE1D"/>
<path d="M103.85 3L8.58 96.74H7L102.28 3H103.85Z" fill="#F4BF1E"/>
<path d="M105.43 3L10.1601 96.74H8.58008L103.85 3H105.43Z" fill="#F5C01E"/>
<path d="M107.01 3L11.7399 96.74H10.1599L105.43 3H107.01Z" fill="#F5C11E"/>
<path d="M108.59 3L13.32 96.74H11.74L107.01 3H108.59Z" fill="#F5C21F"/>
<path d="M110.17 3L14.8901 96.74H13.3201L108.59 3H110.17Z" fill="#F6C31F"/>
<path d="M111.74 3L16.4699 96.74H14.8899L110.17 3H111.74Z" fill="#F6C41F"/>
<path d="M113.32 3L18.05 96.74H16.47L111.74 3H113.32Z" fill="#F6C520"/>
<path d="M114.9 3L19.63 96.74H18.05L113.32 3H114.9Z" fill="#F7C620"/>
<path d="M116.48 3L21.2099 96.74H19.6299L114.9 3H116.48Z" fill="#F7C720"/>
<path d="M118.05 3L22.78 96.74H21.21L116.48 3H118.05Z" fill="#F7C821"/>
<path d="M119.63 3L24.36 96.74H22.78L118.05 3H119.63Z" fill="#F8C921"/>
<path d="M121.21 3L25.9401 96.74H24.3601L119.63 3H121.21Z" fill="#F8CA22"/>
<path d="M122.79 3L27.5199 96.74H25.9399L121.21 3H122.79Z" fill="#F8CB22"/>
<path d="M124.36 3L29.09 96.74H27.52L122.79 3H124.36Z" fill="#F8CC22"/>
<path d="M125.94 3L30.6701 96.74H29.0901L124.36 3H125.94Z" fill="#F9CD23"/>
<path d="M127.52 3L32.2499 96.74H30.6699L125.94 3H127.52Z" fill="#F9CE23"/>
<path d="M129.1 3L33.83 96.74H32.25L127.52 3H129.1Z" fill="#F9CF23"/>
<path d="M130.68 3L35.4101 96.74H33.8301L129.1 3H130.68Z" fill="#FAD024"/>
<path d="M132.25 3L36.9799 96.74H35.4099L130.68 3H132.25Z" fill="#FAD124"/>
<path d="M133.83 3L38.56 96.74H36.98L132.25 3H133.83Z" fill="#FAD224"/>
<path d="M135.41 3L40.1401 96.74H38.5601L133.83 3H135.41Z" fill="#FBD325"/>
<path d="M136.99 3L41.7199 96.74H40.1399L135.41 3H136.99Z" fill="#FBD425"/>
<path d="M138.57 3L43.3 96.74H41.72L136.99 3H138.57Z" fill="#FBD525"/>
<path d="M140.14 3L44.87 96.74H43.3L138.57 3H140.14Z" fill="#FCD626"/>
<path d="M141.72 3L46.4501 96.74H44.8701L140.14 3H141.72Z" fill="#FCD726"/>
<path d="M143.31 3L48.04 96.74H46.45L141.72 3H143.31Z" fill="#FCD726"/>
<path d="M144.89 3L49.62 96.74H48.04L143.31 3H144.89Z" fill="#FCD626"/>
<path d="M146.48 3L51.2101 96.74H49.6201L144.89 3H146.48Z" fill="#FBD525"/>
<path d="M148.06 3L52.79 96.74H51.21L146.48 3H148.06Z" fill="#FBD425"/>
<path d="M149.65 3L54.38 96.74H52.79L148.06 3H149.65Z" fill="#FBD325"/>
<path d="M151.23 3L55.9599 96.74H54.3799L149.65 3H151.23Z" fill="#FAD224"/>
<path d="M152.82 3L57.55 96.74H55.96L151.23 3H152.82Z" fill="#FAD124"/>
<path d="M154.4 3L59.1301 96.74H57.55L152.82 3H154.4Z" fill="#FAD024"/>
<path d="M155.99 3L60.7199 96.74H59.1299L154.4 3H155.99Z" fill="#F9CF23"/>
<path d="M157.57 3L62.3 96.74H60.72L155.99 3H157.57Z" fill="#F9CE23"/>
<path d="M159.16 3L63.89 96.74H62.3L157.57 3H159.16Z" fill="#F9CD23"/>
<path d="M160.75 3L65.4799 96.74H63.8899L159.16 3H160.75Z" fill="#F8CC22"/>
<path d="M162.33 3L67.06 96.74H65.48L160.75 3H162.33Z" fill="#F8CB22"/>
<path d="M163.91 3L68.6401 96.74H67.0601L162.33 3H163.91Z" fill="#F8CA22"/>
<path d="M165.5 3L70.2299 96.74H68.6399L163.91 3H165.5Z" fill="#F8C921"/>
<path d="M167.09 3L71.82 96.74H70.23L165.5 3H167.09Z" fill="#F7C821"/>
<path d="M168.67 3L73.4001 96.74H71.8201L167.09 3H168.67Z" fill="#F7C720"/>
<path d="M170.26 3L74.9899 96.74H73.3999L168.67 3H170.26Z" fill="#F7C620"/>
<path d="M171.84 3L76.57 96.74H74.99L170.26 3H171.84Z" fill="#F6C520"/>
<path d="M173.43 3L78.1601 96.74H76.5701L171.84 3H173.43Z" fill="#F6C41F"/>
<path d="M175.01 3L79.7399 96.74H78.1599L173.43 3H175.01Z" fill="#F6C31F"/>
<path d="M176.6 3L81.33 96.74H79.74L175.01 3H176.6Z" fill="#F5C21F"/>
<path d="M178.18 3L82.9101 96.74H81.3301L176.6 3H178.18Z" fill="#F5C11E"/>
<path d="M179.77 3L84.4999 96.74H82.9099L178.18 3H179.77Z" fill="#F5C01E"/>
<path d="M181.35 3L86.08 96.74H84.5L179.77 3H181.35Z" fill="#F4BF1E"/>
<path d="M182.94 3L87.6701 96.74H86.0801L181.35 3H182.94Z" fill="#F4BE1D"/>
<path d="M184.52 3L89.2499 96.74H87.6699L182.94 3H184.52Z" fill="#F4BD1D"/>
<path d="M186.11 3L90.84 96.74H89.25L184.52 3H186.11Z" fill="#F3BC1D"/>
<path d="M187.69 3L92.4201 96.74H90.8401L186.11 3H187.69Z" fill="#F3BB1C"/>
<path d="M189.28 3L94.0099 96.74H92.4199L187.69 3H189.28Z" fill="#F3BA1C"/>
<path d="M190.87 3L95.59 96.74H94.01L189.28 3H190.87Z" fill="#F2B91C"/>
<path d="M192.45 3L97.1801 96.74H95.5901L190.87 3H192.45Z" fill="#F2B81B"/>
<path d="M194.04 3L98.7699 96.74H97.1799L192.45 3H194.04Z" fill="#F2B71B"/>
<path d="M195.62 3L100.35 96.74H98.77L194.04 3H195.62Z" fill="#F1B61B"/>
<path d="M197.21 3L101.94 96.74H100.35L195.62 3H197.21Z" fill="#F1B51A"/>
<path d="M198.79 3L103.52 96.74H101.94L197.21 3H198.79Z" fill="#F1B41A"/>
<path d="M200.38 3L105.11 96.74H103.52L198.79 3H200.38Z" fill="#F0B31A"/>
<path d="M201.96 3L106.69 96.74H105.11L200.38 3H201.96Z" fill="#F0B219"/>
<path d="M203.55 3L108.28 96.74H106.69L201.96 3H203.55Z" fill="#F0B119"/>
<path d="M205.13 3L109.86 96.74H108.28L203.55 3H205.13Z" fill="#EFB019"/>
<path d="M206.72 3L111.45 96.74H109.86L205.13 3H206.72Z" fill="#EFAF18"/>
<path d="M208.3 3L113.03 96.74H111.45L206.72 3H208.3Z" fill="#EFAD18"/>
<path d="M209.89 3L114.62 96.74H113.03L208.3 3H209.89Z" fill="#EFAC17"/>
<path d="M211.47 3L116.2 96.74H114.62L209.89 3H211.47Z" fill="#EEAB17"/>
<path d="M213.06 3L117.79 96.74H116.2L211.47 3H213.06Z" fill="#EEAA17"/>
<path d="M214.64 3L119.37 96.74H117.79L213.06 3H214.64Z" fill="#EEA916"/>
<path d="M216.23 3L120.96 96.74H119.37L214.64 3H216.23Z" fill="#EDA816"/>
<path d="M217.81 3L122.54 96.74H120.96L216.23 3H217.81Z" fill="#EDA716"/>
<path d="M219.4 3L124.13 96.74H122.54L217.81 3H219.4Z" fill="#EDA615"/>
<path d="M220.99 3L125.72 96.74H124.13L219.4 3H220.99Z" fill="#ECA515"/>
<path d="M222.57 3L127.3 96.74H125.72L220.99 3H222.57Z" fill="#ECA415"/>
<path d="M224.16 3L128.89 96.74H127.3L222.57 3H224.16Z" fill="#ECA314"/>
<path d="M225.74 3L130.47 96.74H128.89L224.16 3H225.74Z" fill="#EBA214"/>
<path d="M227.33 3L132.06 96.74H130.47L225.74 3H227.33Z" fill="#EBA114"/>
<path d="M228.91 3L133.64 96.74H132.06L227.33 3H228.91Z" fill="#EBA013"/>
<path d="M230.5 3L135.23 96.74H133.64L228.91 3H230.5Z" fill="#EA9F13"/>
<path d="M232.08 3L136.81 96.74H135.23L230.5 3H232.08Z" fill="#EA9E13"/>
<path d="M233.67 3L138.4 96.74H136.81L232.08 3H233.67Z" fill="#EA9D12"/>
<path d="M235.25 3L139.98 96.74H138.4L233.67 3H235.25Z" fill="#E99C12"/>
<path d="M236.84 3L141.57 96.74H139.98L235.25 3H236.84Z" fill="#E99B12"/>
<path d="M238.42 3L143.15 96.74H141.57L236.84 3H238.42Z" fill="#E99A11"/>
<path d="M240.01 3L144.74 96.74H143.15L238.42 3H240.01Z" fill="#E89911"/>
<path d="M241.59 3L146.32 96.74H144.74L240.01 3H241.59Z" fill="#E89811"/>
<path d="M243.18 3L147.91 96.74H146.32L241.59 3H243.18Z" fill="#E89710"/>
<path d="M244.76 3L149.49 96.74H147.91L243.18 3H244.76Z" fill="#E79610"/>
<path d="M246.35 3L151.08 96.74H149.49L244.76 3H246.35Z" fill="#E79510"/>
<path d="M247.94 3L152.66 96.74H151.08L246.35 3H247.94Z" fill="#E7940F"/>
<path d="M249.52 3L154.25 96.74H152.66L247.94 3H249.52Z" fill="#E6930F"/>
<path d="M251.1 3L155.84 96.74H154.25L249.52 3H251.1Z" fill="#E6920E"/>
<path d="M252.69 3L157.42 96.74H155.84L251.1 3H252.69Z" fill="#E6910E"/>
<path d="M254.28 3L159 96.74H157.42L252.69 3H254.28Z" fill="#E6900E"/>
<path d="M255.86 3L160.59 96.74H159L254.28 3H255.86Z" fill="#E58F0D"/>
<path d="M257.45 3L162.18 96.74H160.59L255.86 3H257.45Z" fill="#E58E0D"/>
<path d="M259.03 3L163.76 96.74H162.18L257.45 3H259.03Z" fill="#E58D0D"/>
<path d="M260.62 3L165.35 96.74H163.76L259.03 3H260.62Z" fill="#E48C0C"/>
<path d="M262.2 3L166.93 96.74H165.35L260.62 3H262.2Z" fill="#E48B0C"/>
<path d="M263.79 3L168.52 96.74H166.93L262.2 3H263.79Z" fill="#E48A0C"/>
<path d="M265.37 3L170.1 96.74H168.52L263.79 3H265.37Z" fill="#E3890B"/>
<path d="M266.96 3L171.69 96.74H170.1L265.37 3H266.96Z" fill="#E3880B"/>
<path d="M268.54 3L173.27 96.74H171.69L266.96 3H268.54Z" fill="#E3870B"/>
<path d="M270.13 3L174.86 96.74H173.27L268.54 3H270.13Z" fill="#E2860A"/>
<path d="M271.71 3L176.44 96.74H174.86L270.13 3H271.71Z" fill="#E2850A"/>
<path d="M176.44 96.74L271.71 3H273.17V96.74H176.44Z" fill="#E2850A"/>
</g>
</g>
</g>
<path d="M33.0742 58.0191L22.9045 45.315L26.6758 43.8603L32.3381 51.2542L31.7924 41.8866L34.626 40.7935L40.5125 48.101L39.7426 38.8198L43.5139 37.3651L44.5102 53.6078L41.6971 54.6929L35.5266 47.378L35.8873 56.934L33.0742 58.0191Z" fill="#110000"/>
<path d="M50.2805 51.382L44.6975 36.9086L48.2241 35.5482L50.1978 40.6649C50.4791 39.5728 51.2499 38.5963 52.6565 38.0537C54.7969 37.2281 57.1019 37.8611 58.3522 41.1024L60.7584 47.3402L57.2318 48.7006L55.0615 43.0743C54.6369 41.9735 53.7373 41.2198 52.5346 41.6838C51.3522 42.1399 51.2122 43.2945 51.6368 44.3953L53.8071 50.0216L50.2805 51.382Z" fill="#110000"/>
<path d="M64.9587 50.1695L65.1581 45.526L56.7257 36.7183L60.3135 35.3343L65.301 40.8575L65.267 33.4235L68.8548 32.0396L68.4038 48.8406L64.9587 50.1695Z" fill="#110000"/>
<path d="M88.6097 36.5969L84.1903 31.3932L84.4308 38.2088L81.2303 39.4434L73.2886 30.3293L76.7744 28.9847L81.2648 34.6761L80.8311 27.4199L84.0111 26.1932L88.5627 31.8611L88.0882 24.6205L91.5536 23.2838L91.8102 35.3623L88.6097 36.5969Z" fill="#110000"/>
<path d="M100.711 32.1632C98.3461 33.0753 95.0041 32.3037 93.5729 28.5936C92.1418 24.8835 94.0999 22.0674 96.4646 21.1552C98.3196 20.4397 99.7116 21.0736 99.8639 21.2256L99.9251 21.202L99.5398 20.2032L103.066 18.8428L107.155 29.4431L103.629 30.8034L103.243 29.8045L103.182 29.8281C103.172 30.043 102.566 31.4476 100.711 32.1632ZM97.0384 27.2568C97.6124 28.7449 99.0388 29.2251 100.262 28.7533C101.526 28.2658 102.248 26.9803 101.666 25.4718C101.084 23.9633 99.6858 23.4957 98.4219 23.9832C97.1988 24.455 96.4644 25.7687 97.0384 27.2568Z" fill="#110000"/>
<path d="M108.947 28.7518L104.858 18.1516L108.385 16.7912L112.474 27.3915L108.947 28.7518ZM104.536 17.3158L103.364 14.2784L106.891 12.918L108.063 15.9554L104.536 17.3158Z" fill="#110000"/>
<path d="M119.059 24.9917C116.939 25.8095 115.017 25.3799 113.995 22.7299L112.344 18.449L110.733 19.0702L109.664 16.2978L111.274 15.6766L110.229 12.9654L113.755 11.6051L114.801 14.3163L117.043 13.4513L118.113 16.2237L115.87 17.0887L117.317 20.8395C117.506 21.3288 118.027 21.8302 119.026 21.4449C119.271 21.3506 119.642 21.1604 119.962 20.8965L120.992 23.567C120.758 24.1727 119.855 24.685 119.059 24.9917Z" fill="#110000"/>
<path d="M41.7063 78.0902C39.5862 78.908 37.6642 78.4785 36.642 75.8285L34.9907 71.5476L33.3802 72.1688L32.3108 69.3964L33.9212 68.7752L32.8754 66.064L36.402 64.7036L37.4479 67.4149L39.6902 66.5499L40.7596 69.3223L38.5173 70.1872L39.9641 73.9381C40.1529 74.4273 40.6741 74.9288 41.673 74.5435C41.9176 74.4491 42.2892 74.259 42.609 73.9951L43.6391 76.6656C43.4044 77.2713 42.5013 77.7836 41.7063 78.0902Z" fill="#110000"/>
<path d="M50.3074 74.8661C47.5147 75.9434 43.9091 75.1563 42.5173 71.5481C41.1255 67.94 43.2685 64.9354 46.0612 63.8582C48.8336 62.7887 52.4392 63.5758 53.831 67.184C55.2228 70.7921 53.0798 73.7967 50.3074 74.8661ZM45.9828 70.2114C46.5253 71.6179 47.8655 72.1782 49.0886 71.7064C50.2914 71.2425 50.9081 69.9273 50.3656 68.5208C49.823 67.1142 48.4828 66.5539 47.2801 67.0178C46.057 67.4896 45.4402 68.8048 45.9828 70.2114Z" fill="#110000"/>
<path d="M66.4115 68.6541C63.4353 69.8022 60.0146 68.8267 58.67 65.3408C57.286 61.753 59.2299 58.7785 61.9818 57.7169C64.6727 56.679 68.6295 57.2838 69.83 62.5816L62.6341 65.3573C63.3924 66.0484 64.4749 66.1226 65.698 65.6508C66.5541 65.3205 67.2659 64.8587 67.8361 64.0298L70.0223 65.0834C69.5828 66.4941 68.4093 67.8835 66.4115 68.6541ZM61.5524 62.9175L65.7721 61.2898C65.1422 60.3853 64.0519 60.2907 63.1549 60.6367C62.258 60.9827 61.534 61.7771 61.5524 62.9175Z" fill="#110000"/>
<path d="M77.3263 64.4439C74.9616 65.356 71.6196 64.5844 70.1885 60.8743C68.7573 57.1642 70.7154 54.3481 73.0801 53.4359C74.9351 52.7203 76.3272 53.3543 76.4795 53.5063L76.5406 53.4827L76.1553 52.4838L79.682 51.1235L83.7709 61.7237L80.2443 63.0841L79.859 62.0852L79.7978 62.1088C79.787 62.3237 79.1813 63.7283 77.3263 64.4439ZM73.6539 59.5375C74.228 61.0256 75.6544 61.5058 76.8775 61.034C78.1413 60.5465 78.8632 59.261 78.2814 57.7525C77.6995 56.244 76.3013 55.7764 75.0374 56.2639C73.8143 56.7357 73.0799 58.0494 73.6539 59.5375Z" fill="#110000"/>
<path d="M85.5629 61.0325L81.4739 50.4322L85.0006 49.0719L86.1172 51.9666C85.7875 50.0798 86.2877 48.3412 88.1632 47.6178C88.4078 47.5234 88.6806 47.4416 88.9975 47.413L90.2949 50.7766C90.0063 50.8176 89.7742 50.8837 89.4889 50.9938C87.3688 51.8116 86.762 53.6381 87.5011 55.5543L89.0895 59.6721L85.5629 61.0325Z" fill="#110000"/>
<path d="M94.4017 57.623L90.3128 47.0227L93.8394 45.6624L94.3191 46.9059C94.6004 45.8138 95.3712 44.8373 96.7778 44.2948C98.9182 43.4691 101.223 44.1022 102.473 47.3434L104.88 53.5812L101.353 54.9416L99.1828 49.3153C98.7581 48.2145 97.8586 47.4609 96.6558 47.9248C95.4735 48.3809 95.3334 49.5356 95.7581 50.6364L97.9284 56.2626L94.4017 57.623Z" fill="#110000"/>
<path d="M31.1696 58.1076L21 45.4034L24.7712 43.9487L30.4336 51.3426L29.8879 41.975L32.7214 40.882L38.608 48.1894L37.8381 38.9083L41.6093 37.4536L42.6057 53.6962L39.7925 54.7814L33.622 47.4664L33.9828 57.0224L31.1696 58.1076Z" fill="white"/>
<path d="M48.3759 51.4704L42.7929 36.997L46.3196 35.6366L48.2933 40.7533C48.5746 39.6612 49.3454 38.6848 50.752 38.1422C52.8924 37.3165 55.1974 37.9496 56.4477 41.1908L58.8539 47.4287L55.3272 48.789L53.157 43.1627C52.7323 42.0619 51.8327 41.3083 50.63 41.7722C49.4477 42.2283 49.3076 43.383 49.7323 44.4838L51.9025 50.1101L48.3759 51.4704Z" fill="white"/>
<path d="M63.0542 50.2579L63.2536 45.6144L54.8211 36.8067L58.4089 35.4228L63.3964 40.9459L63.3625 33.512L66.9503 32.128L66.4993 48.929L63.0542 50.2579Z" fill="white"/>
<path d="M86.7052 36.6853L82.2858 31.4816L82.5262 38.2973L79.3258 39.5318L71.384 30.4178L74.8699 29.0731L79.3603 34.7646L78.9265 27.5083L82.1066 26.2816L86.6582 31.9495L86.1836 24.709L89.6491 23.3722L89.9056 35.4508L86.7052 36.6853Z" fill="white"/>
<path d="M98.8062 32.2516C96.4415 33.1638 93.0995 32.3921 91.6684 28.682C90.2373 24.9719 92.1953 22.1558 94.56 21.2437C96.4151 20.5281 97.8071 21.162 97.9594 21.3141L98.0206 21.2905L97.6353 20.2916L101.162 18.9312L105.251 29.5315L101.724 30.8918L101.339 29.893L101.278 29.9166C101.267 30.1315 100.661 31.5361 98.8062 32.2516ZM95.1339 27.3453C95.7079 28.8334 97.1343 29.3136 98.3574 28.8418C99.6213 28.3542 100.343 27.0688 99.7613 25.5603C99.1794 24.0518 97.7812 23.5841 96.5174 24.0716C95.2943 24.5434 94.5598 25.8571 95.1339 27.3453Z" fill="white"/>
<path d="M107.043 28.8403L102.954 18.24L106.48 16.8796L110.569 27.4799L107.043 28.8403ZM102.631 17.4042L101.46 14.3668L104.986 13.0065L106.158 16.0439L102.631 17.4042Z" fill="white"/>
<path d="M117.155 25.0801C115.035 25.8979 113.113 25.4684 112.091 22.8183L110.439 18.5375L108.829 19.1587L107.759 16.3863L109.37 15.7651L108.324 13.0539L111.851 11.6935L112.897 14.4047L115.139 13.5398L116.208 16.3121L113.966 17.1771L115.413 20.928C115.602 21.4172 116.123 21.9187 117.122 21.5334C117.366 21.439 117.738 21.2488 118.058 20.985L119.088 23.6554C118.853 24.2612 117.95 24.7734 117.155 25.0801Z" fill="white"/>
<path d="M39.8018 78.1787C37.6817 78.9965 35.7597 78.567 34.7374 75.9169L33.0861 71.636L31.4757 72.2572L30.4063 69.4849L32.0167 68.8637L30.9709 66.1524L34.4975 64.7921L35.5433 67.5033L37.7857 66.6383L38.8551 69.4107L36.6127 70.2757L38.0596 74.0265C38.2483 74.5158 38.7696 75.0172 39.7685 74.6319C40.0131 74.5376 40.3847 74.3474 40.7044 74.0836L41.7345 76.754C41.4998 77.3597 40.5968 77.872 39.8018 78.1787Z" fill="white"/>
<path d="M48.4029 74.9545C45.6101 76.0318 42.0046 75.2447 40.6127 71.6366C39.2209 68.0284 41.3639 65.0239 44.1567 63.9466C46.9291 62.8772 50.5347 63.6643 51.9265 67.2724C53.3183 70.8806 51.1753 73.8851 48.4029 74.9545ZM44.0782 70.2998C44.6208 71.7064 45.961 72.2667 47.1841 71.7949C48.3868 71.3309 49.0036 70.0158 48.461 68.6092C47.9184 67.2026 46.5782 66.6423 45.3755 67.1063C44.1524 67.5781 43.5356 68.8932 44.0782 70.2998Z" fill="white"/>
<path d="M64.507 68.7426C61.5308 69.8906 58.1101 68.9151 56.7654 65.4293C55.3815 61.8415 57.3253 58.8669 60.0773 57.8054C62.7681 56.7674 66.7249 57.3722 67.9255 62.67L60.7295 65.4458C61.4879 66.1368 62.5703 66.211 63.7934 65.7392C64.6496 65.409 65.3613 64.9471 65.9315 64.1183L68.1177 65.1719C67.6783 66.5825 66.5047 67.972 64.507 68.7426ZM59.6479 63.006L63.8676 61.3783C63.2377 60.4737 62.1473 60.3791 61.2504 60.7251C60.3534 61.0711 59.6295 61.8656 59.6479 63.006Z" fill="white"/>
<path d="M75.4218 64.5323C73.0571 65.4444 69.7151 64.6728 68.2839 60.9627C66.8528 57.2526 68.8109 54.4365 71.1756 53.5243C73.0306 52.8088 74.4226 53.4427 74.5749 53.5947L74.6361 53.5712L74.2508 52.5723L77.7774 51.2119L81.8664 61.8122L78.3397 63.1725L77.9544 62.1737L77.8933 62.1973C77.8825 62.4122 77.2768 63.8167 75.4218 64.5323ZM71.7494 59.6259C72.3234 61.114 73.7498 61.5942 74.9729 61.1224C76.2368 60.6349 76.9587 59.3494 76.3768 57.841C75.7949 56.3325 74.3968 55.8648 73.1329 56.3523C71.9098 56.8241 71.1754 58.1378 71.7494 59.6259Z" fill="white"/>
<path d="M83.6583 61.1209L79.5694 50.5207L83.096 49.1603L84.2126 52.055C83.8829 50.1682 84.3832 48.4296 86.2586 47.7062C86.5032 47.6118 86.7761 47.53 87.093 47.5015L88.3904 50.865C88.1018 50.9061 87.8697 50.9722 87.5843 51.0823C85.4643 51.9001 84.8574 53.7266 85.5966 55.6428L87.185 59.7606L83.6583 61.1209Z" fill="white"/>
<path d="M92.4972 57.7114L88.4082 47.1112L91.9349 45.7508L92.4145 46.9943C92.6958 45.9022 93.4667 44.9258 94.8732 44.3832C97.0137 43.5575 99.3187 44.1906 100.569 47.4318L102.975 53.6697L99.4485 55.03L97.2782 49.4037C96.8536 48.303 95.954 47.5493 94.7513 48.0132C93.569 48.4693 93.4289 49.624 93.8535 50.7248L96.0238 56.3511L92.4972 57.7114Z" fill="white"/>
<path d="M272.748 126.619V117.477H266.05C258.287 112.818 244.545 110.012 228.881 110.012C213.217 110.012 199.468 112.818 191.705 117.477H185.007V126.619C185.007 136.523 204.645 144.549 228.881 144.549C253.116 144.549 272.748 136.523 272.748 126.619Z" fill="#D4860C"/>
<path d="M269.845 133.043V117.477H268.462V134.354C268.949 133.941 269.411 133.503 269.845 133.043Z" fill="#96500A"/>
<path d="M263.693 116.222V137.525C264.17 137.273 264.633 137.015 265.075 136.75V116.935C264.633 116.689 264.197 116.456 263.693 116.222Z" fill="#96500A"/>
<path d="M258.916 114.262V139.682C259.386 139.499 259.849 139.316 260.299 139.127V114.76C259.849 114.596 259.393 114.426 258.916 114.262Z" fill="#96500A"/>
<path d="M254.139 112.868V141.289C254.61 141.151 255.073 141.018 255.522 140.873V113.215C255.073 113.095 254.61 112.969 254.139 112.868Z" fill="#96500A"/>
<path d="M249.37 111.803V142.5L250.752 142.185V112.068L249.37 111.803Z" fill="#96500A"/>
<path d="M244.593 111.034V143.363C245.056 143.288 245.519 143.218 245.976 143.137V111.229L244.593 111.034Z" fill="#96500A"/>
<path d="M239.823 110.498V143.988L241.206 143.83V110.63C240.743 110.586 240.287 110.536 239.823 110.498Z" fill="#96500A"/>
<path d="M235.047 110.17V144.391L236.429 144.303V110.258C235.966 110.221 235.51 110.189 235.047 110.17Z" fill="#96500A"/>
<path d="M230.27 110.031V144.536H231.653V110.044L230.27 110.031Z" fill="#96500A"/>
<path d="M225.487 110.063V144.492C225.943 144.492 226.399 144.524 226.869 144.53V110.038L225.487 110.063Z" fill="#96500A"/>
<path d="M220.724 110.284V144.24L222.107 144.341V110.202L220.724 110.284Z" fill="#96500A"/>
<path d="M215.947 110.693V143.761L217.33 143.918V110.548L215.947 110.693Z" fill="#96500A"/>
<path d="M211.178 111.324V143.029L212.56 143.263V111.109L211.178 111.324Z" fill="#96500A"/>
<path d="M206.401 112.2V142.021C206.857 142.128 207.32 142.241 207.784 142.342V111.916C207.314 112.005 206.857 112.106 206.401 112.2Z" fill="#96500A"/>
<path d="M201.624 113.392V140.665C202.081 140.816 202.537 140.961 203.007 141.1V113.007C202.537 113.127 202.081 113.259 201.624 113.392Z" fill="#96500A"/>
<path d="M196.855 114.993V138.868C197.304 139.064 197.76 139.259 198.237 139.448V114.476C197.767 114.646 197.304 114.817 196.855 114.993Z" fill="#96500A"/>
<path d="M192.078 117.282V136.391C192.521 136.668 192.984 136.945 193.461 137.21V116.512C192.998 116.758 192.521 117.011 192.078 117.282Z" fill="#96500A"/>
<path d="M187.302 117.477V132.349C187.729 132.862 188.191 133.351 188.684 133.812V117.477H187.302Z" fill="#96500A"/>
<path d="M228.881 135.06C253.108 135.06 272.748 127.239 272.748 117.591C272.748 107.942 253.108 100.121 228.881 100.121C204.654 100.121 185.014 107.942 185.014 117.591C185.014 127.239 204.654 135.06 228.881 135.06Z" fill="#F0AA00"/>
<path d="M228.881 134.329C252.096 134.329 270.916 126.835 270.916 117.591C270.916 108.346 252.096 100.852 228.881 100.852C205.665 100.852 186.845 108.346 186.845 117.591C186.845 126.835 205.665 134.329 228.881 134.329Z" fill="#FFDD00"/>
<path d="M228.881 133.749C251.291 133.749 269.458 126.515 269.458 117.591C269.458 108.666 251.291 101.432 228.881 101.432C206.471 101.432 188.304 108.666 188.304 117.591C188.304 126.515 206.471 133.749 228.881 133.749Z" fill="#FFF391"/>
<path d="M228.881 131.152C210.085 131.152 194.85 125.087 194.85 117.603C194.85 110.12 210.058 104.048 228.881 104.048C247.704 104.048 262.912 110.12 262.912 117.603C262.912 125.087 247.676 131.152 228.881 131.152Z" fill="#D4860C"/>
<path d="M228.881 130.521C210.97 130.521 196.454 124.721 196.454 117.591C196.454 110.46 210.97 104.673 228.881 104.673C246.791 104.673 261.308 110.447 261.308 117.584C261.308 124.721 246.791 130.521 228.881 130.521Z" fill="#F0AA00"/>
<path d="M245.153 108.455C247.621 108.455 250.087 108.568 252.543 108.796C246.625 106.274 238.22 104.71 228.881 104.71C210.97 104.673 196.454 110.454 196.454 117.591C196.454 123.706 207.148 128.825 221.491 130.155C216.058 127.848 212.733 124.746 212.733 121.329C212.733 114.205 227.249 108.455 245.153 108.455Z" fill="#D97C11"/>
<path d="M247.192 123V118.889C245.568 119.589 243.231 120.075 239.982 120.15V122.76L236.443 122.653V120.131C229.233 119.791 224.637 117.944 224.353 115.144C218.623 116.865 211.413 118.599 204.127 120.144V118.303C210.777 116.784 216.929 115.239 224.001 113.095L228.383 112.988V114.218C228.383 116.639 231.563 117.95 236.443 118.139V112.78L239.982 112.692V118.082C244.082 117.761 246.135 116.449 246.135 114.3V112.547L250.732 112.427V123.145L247.192 123Z" fill="#EA9C00"/>
<path d="M248.098 122.672V118.543C246.466 119.255 244.137 119.74 240.881 119.841V122.47L237.349 122.363V119.841C230.132 119.513 225.535 117.666 225.252 114.848C219.521 116.588 212.311 118.347 205.025 119.892V118.038C211.675 116.494 217.828 114.93 224.899 112.768L229.282 112.648V113.909C229.282 116.342 232.468 117.66 237.349 117.836V112.427L240.881 112.333V117.748C244.98 117.414 247.033 116.096 247.033 113.965V112.194L251.63 112.074V122.792L248.098 122.672Z" fill="#FFF391"/>
<path d="M267.059 117.963C267.059 117.963 267.059 118.114 267.142 118.391C267.158 118.567 267.158 118.745 267.142 118.921C267.152 119.163 267.136 119.406 267.094 119.646C266.988 120.304 266.766 120.943 266.437 121.537C266.031 122.312 265.513 123.033 264.895 123.681C264.189 124.457 263.402 125.168 262.545 125.805C261.599 126.517 260.596 127.164 259.545 127.741C258.432 128.361 257.278 128.917 256.089 129.405C254.879 129.91 253.628 130.364 252.363 130.773C251.098 131.183 249.798 131.498 248.52 131.801C247.241 132.104 245.969 132.312 244.738 132.52C244.116 132.608 243.515 132.709 242.913 132.772L241.165 132.948C240.024 133.049 238.946 133.112 237.95 133.138C236.955 133.163 236.035 133.138 235.227 133.138C234.418 133.138 233.72 133.087 233.153 133.049C231.992 132.967 231.335 132.898 231.335 132.898C231.335 132.898 232.026 132.791 233.132 132.639L235.206 132.349L237.846 131.946L240.95 131.416C242.049 131.208 243.19 130.969 244.407 130.729L246.197 130.319L248.022 129.865C249.245 129.55 250.476 129.203 251.686 128.813C252.895 128.422 254.112 128.031 255.266 127.552C256.421 127.073 257.554 126.631 258.619 126.127C259.683 125.623 260.693 125.087 261.584 124.538C262.433 124.02 263.244 123.451 264.011 122.836C264.652 122.313 265.233 121.732 265.746 121.102C266.143 120.614 266.466 120.08 266.707 119.513C266.862 119.144 266.969 118.759 267.025 118.366L267.059 117.963Z" fill="white"/>
<path d="M217.738 103.456L216.293 103.752L214.662 104.105L212.588 104.603C211.821 104.799 211.005 105.026 210.148 105.265C209.291 105.505 208.392 105.795 207.466 106.085C205.552 106.706 203.676 107.419 201.846 108.222C200.906 108.619 200.014 109.079 199.129 109.527C198.244 109.975 197.422 110.473 196.647 110.983C195.924 111.474 195.231 112.003 194.574 112.566C193.991 113.079 193.457 113.636 192.977 114.23C192.735 114.501 192.583 114.798 192.389 115.056C192.228 115.315 192.082 115.583 191.954 115.857C191.74 116.309 191.578 116.78 191.47 117.263C191.428 117.471 191.387 117.654 191.359 117.811C191.332 117.969 191.359 118.114 191.325 118.227V118.58L191.228 118.24L191.117 117.817C191.117 117.654 191.076 117.458 191.055 117.237C191.012 116.702 191.047 116.163 191.159 115.636C191.227 115.306 191.315 114.98 191.421 114.659C191.552 114.307 191.709 113.964 191.892 113.631C192.766 112.062 193.987 110.675 195.479 109.559C196.268 108.931 197.101 108.351 197.975 107.825C198.9 107.292 199.858 106.808 200.843 106.375C201.825 105.942 202.831 105.556 203.857 105.221C204.86 104.868 205.883 104.591 206.864 104.357C207.846 104.124 208.814 103.929 209.733 103.777C210.595 103.63 211.465 103.523 212.339 103.456C213.141 103.374 213.887 103.349 214.551 103.33C215.215 103.311 215.781 103.33 216.258 103.33C216.735 103.33 217.095 103.386 217.351 103.405L217.738 103.456Z" fill="white"/>
<path d="M272.748 115.848V106.707H266.05C258.287 102.048 244.545 99.242 228.881 99.242C213.217 99.242 199.468 102.048 191.705 106.707H185.007V115.848C185.007 125.753 204.645 133.778 228.881 133.778C253.116 133.778 272.748 125.753 272.748 115.848Z" fill="#D4860C"/>
<path d="M269.845 122.273V106.707H268.462V123.584C268.949 123.17 269.411 122.733 269.845 122.273Z" fill="#96500A"/>
<path d="M263.693 105.452V126.755C264.17 126.503 264.633 126.244 265.075 125.98V106.164C264.633 105.919 264.197 105.685 263.693 105.452Z" fill="#96500A"/>
<path d="M258.916 103.491V128.911C259.386 128.728 259.849 128.546 260.299 128.356V103.989C259.849 103.825 259.393 103.655 258.916 103.491Z" fill="#96500A"/>
<path d="M254.139 102.098V130.519C254.61 130.38 255.073 130.248 255.522 130.103V102.445C255.073 102.325 254.61 102.199 254.139 102.098Z" fill="#96500A"/>
<path d="M249.37 101.033V131.729L250.752 131.414V101.297L249.37 101.033Z" fill="#96500A"/>
<path d="M244.593 100.263V132.593C245.056 132.517 245.519 132.448 245.976 132.366V100.459L244.593 100.263Z" fill="#96500A"/>
<path d="M239.823 99.7275V133.217L241.206 133.06V99.8599C240.743 99.8158 240.287 99.7653 239.823 99.7275Z" fill="#96500A"/>
<path d="M235.047 99.3996V133.621L236.429 133.532V99.4879C235.966 99.4501 235.51 99.4185 235.047 99.3996Z" fill="#96500A"/>
<path d="M230.27 99.2609V133.766H231.653V99.2736L230.27 99.2609Z" fill="#96500A"/>
<path d="M225.487 99.2925V133.722C225.943 133.722 226.399 133.753 226.869 133.759V99.2673L225.487 99.2925Z" fill="#96500A"/>
<path d="M220.724 99.5131V133.469L222.107 133.57V99.4312L220.724 99.5131Z" fill="#96500A"/>
<path d="M215.947 99.9229V132.99L217.33 133.148V99.7779L215.947 99.9229Z" fill="#96500A"/>
<path d="M211.178 100.553V132.259L212.56 132.492V100.339L211.178 100.553Z" fill="#96500A"/>
<path d="M206.401 101.43V131.25C206.857 131.357 207.32 131.471 207.784 131.572V101.146C207.314 101.234 206.857 101.335 206.401 101.43Z" fill="#96500A"/>
<path d="M201.624 102.621V129.895C202.081 130.046 202.537 130.191 203.007 130.33V102.237C202.537 102.356 202.081 102.489 201.624 102.621Z" fill="#96500A"/>
<path d="M196.855 104.223V128.098C197.304 128.293 197.76 128.489 198.237 128.678V103.706C197.767 103.876 197.304 104.046 196.855 104.223Z" fill="#96500A"/>
<path d="M192.078 106.511V125.62C192.521 125.898 192.984 126.175 193.461 126.44V105.742C192.998 105.988 192.521 106.24 192.078 106.511Z" fill="#96500A"/>
<path d="M187.302 106.707V121.579C187.729 122.092 188.191 122.58 188.684 123.042V106.707H187.302Z" fill="#96500A"/>
<path d="M228.881 124.29C253.108 124.29 272.748 116.468 272.748 106.82C272.748 97.1717 253.108 89.3502 228.881 89.3502C204.654 89.3502 185.014 97.1717 185.014 106.82C185.014 116.468 204.654 124.29 228.881 124.29Z" fill="#F0AA00"/>
<path d="M228.881 123.559C252.096 123.559 270.916 116.065 270.916 106.82C270.916 97.5756 252.096 90.0815 228.881 90.0815C205.665 90.0815 186.845 97.5756 186.845 106.82C186.845 116.065 205.665 123.559 228.881 123.559Z" fill="#FFDD00"/>
<path d="M228.881 122.979C251.291 122.979 269.458 115.744 269.458 106.82C269.458 97.896 251.291 90.6615 228.881 90.6615C206.471 90.6615 188.304 97.896 188.304 106.82C188.304 115.744 206.471 122.979 228.881 122.979Z" fill="#FFF391"/>
<path d="M228.881 120.381C210.085 120.381 194.85 114.316 194.85 106.833C194.85 99.3492 210.058 93.2779 228.881 93.2779C247.704 93.2779 262.912 99.3492 262.912 106.833C262.912 114.316 247.676 120.381 228.881 120.381Z" fill="#D4860C"/>
<path d="M228.881 119.751C210.97 119.751 196.454 113.951 196.454 106.82C196.454 99.6896 210.97 93.9021 228.881 93.9021C246.791 93.9021 261.308 99.677 261.308 106.814C261.308 113.951 246.791 119.751 228.881 119.751Z" fill="#F0AA00"/>
<path d="M245.153 97.6848C247.621 97.6842 250.087 97.7978 252.543 98.0252C246.625 95.5034 238.22 93.9399 228.881 93.9399C210.97 93.9021 196.454 99.6833 196.454 106.82C196.454 112.935 207.148 118.055 221.491 119.385C216.058 117.078 212.733 113.976 212.733 110.559C212.733 103.435 227.249 97.6848 245.153 97.6848Z" fill="#D97C11"/>
<path d="M247.192 112.229V108.119C245.568 108.819 243.231 109.304 239.982 109.38V111.99L236.443 111.883V109.361C229.233 109.02 224.637 107.173 224.353 104.374C218.623 106.095 211.413 107.829 204.127 109.373V107.533C210.777 106.013 216.929 104.468 224.001 102.325L228.383 102.218V103.447C228.383 105.868 231.563 107.179 236.443 107.369V102.01L239.982 101.921V107.312C244.082 106.99 246.135 105.679 246.135 103.529V101.776L250.732 101.657V112.374L247.192 112.229Z" fill="#EA9C00"/>
<path d="M248.098 111.902V107.772C246.466 108.484 244.137 108.97 240.881 109.071V111.7L237.349 111.593V109.071C230.132 108.743 225.535 106.896 225.252 104.078C219.521 105.818 212.311 107.577 205.025 109.121V107.268C211.675 105.723 217.828 104.16 224.899 101.997L229.282 101.877V103.138C229.282 105.572 232.468 106.889 237.349 107.066V101.657L240.881 101.562V106.978C244.98 106.644 247.033 105.326 247.033 103.195V101.423L251.63 101.304V112.021L248.098 111.902Z" fill="#FFF391"/>
<path d="M267.059 107.192C267.059 107.192 267.059 107.343 267.142 107.621C267.158 107.797 267.158 107.974 267.142 108.15C267.152 108.393 267.136 108.636 267.094 108.875C266.988 109.534 266.766 110.173 266.437 110.767C266.031 111.541 265.513 112.262 264.895 112.91C264.189 113.686 263.402 114.398 262.545 115.035C261.599 115.747 260.596 116.394 259.545 116.97C258.432 117.59 257.278 118.146 256.089 118.635C254.879 119.139 253.628 119.593 252.363 120.003C251.098 120.413 249.798 120.728 248.52 121.031C247.241 121.333 245.969 121.541 244.738 121.749C244.116 121.838 243.515 121.938 242.913 122.001L241.165 122.178C240.024 122.279 238.946 122.342 237.95 122.367C236.955 122.392 236.035 122.367 235.227 122.367C234.418 122.367 233.72 122.317 233.153 122.279C231.992 122.197 231.335 122.128 231.335 122.128C231.335 122.128 232.026 122.02 233.132 121.869L235.206 121.579L237.846 121.176L240.95 120.646C242.049 120.438 243.19 120.198 244.407 119.959L246.197 119.549L248.022 119.095C249.245 118.78 250.476 118.433 251.686 118.042C252.895 117.651 254.112 117.26 255.266 116.781C256.421 116.302 257.554 115.861 258.619 115.356C259.683 114.852 260.693 114.316 261.584 113.768C262.433 113.25 263.244 112.681 264.011 112.065C264.652 111.543 265.233 110.962 265.746 110.332C266.143 109.844 266.466 109.309 266.707 108.743C266.862 108.373 266.969 107.988 267.025 107.596L267.059 107.192Z" fill="white"/>
<path d="M217.738 92.6853L216.293 92.9816L214.662 93.3347L212.588 93.8327C211.821 94.0282 211.005 94.2551 210.148 94.4947C209.291 94.7343 208.392 95.0243 207.466 95.3143C205.552 95.9356 203.676 96.649 201.846 97.4515C200.906 97.8487 200.014 98.309 199.129 98.7566C198.244 99.2042 197.422 99.7023 196.647 100.213C195.924 100.704 195.231 101.232 194.574 101.795C193.991 102.309 193.457 102.865 192.977 103.46C192.735 103.731 192.583 104.027 192.389 104.286C192.228 104.545 192.082 104.812 191.954 105.086C191.74 105.539 191.578 106.01 191.47 106.492C191.428 106.7 191.387 106.883 191.359 107.041C191.332 107.198 191.359 107.343 191.325 107.457V107.81L191.228 107.469L191.117 107.047C191.117 106.883 191.076 106.688 191.055 106.467C191.012 105.931 191.047 105.393 191.159 104.866C191.227 104.536 191.315 104.21 191.421 103.888C191.552 103.537 191.709 103.193 191.892 102.861C192.766 101.292 193.987 99.9047 195.479 98.7881C196.268 98.1601 197.101 97.5809 197.975 97.0544C198.9 96.5219 199.858 96.0377 200.843 95.6043C201.825 95.1711 202.831 94.7859 203.857 94.4506C204.86 94.0975 205.883 93.8201 206.864 93.5869C207.846 93.3536 208.814 93.1581 209.733 93.0068C210.595 92.8595 211.465 92.7522 212.339 92.6853C213.141 92.6034 213.887 92.5781 214.551 92.5592C215.215 92.5403 215.781 92.5592 216.258 92.5592C216.735 92.5592 217.095 92.6159 217.351 92.6349L217.738 92.6853Z" fill="white"/>
<path d="M272 79.4311V73.9936H271.635C268.887 53.8728 250.283 38.2983 227.724 38.2983C205.166 38.2983 186.562 53.8728 183.813 73.9936H183.449V77.238H183.498C183.498 77.8716 183.449 78.5051 183.449 79.1456C183.449 101.71 203.273 120 227.724 120C252.176 120 271.825 101.843 272 79.4311Z" fill="#D4860C"/>
<path d="M270.612 89.3105V69.0086C270.224 67.5909 269.756 66.1962 269.209 64.8313V93.4878C269.754 92.1224 270.223 90.7278 270.612 89.3105Z" fill="#96500A"/>
<path d="M264.364 56.226V102.093C264.854 101.397 265.317 100.743 265.766 100.046V58.2729C265.324 57.5628 264.847 56.8874 264.364 56.226Z" fill="#96500A"/>
<path d="M259.518 50.7328V107.565C260.002 107.106 260.465 106.639 260.921 106.173V52.1322C260.465 51.6588 260.002 51.1923 259.518 50.7328Z" fill="#96500A"/>
<path d="M254.68 46.7504V111.59C255.149 111.248 255.619 110.893 256.082 110.552V47.7808C255.619 47.4327 255.149 47.0846 254.68 46.7504Z" fill="#96500A"/>
<path d="M249.82 43.7567V114.542C250.29 114.291 250.76 114.026 251.223 113.762V44.5364C250.774 44.2649 250.304 44.0073 249.82 43.7567Z" fill="#96500A"/>
<path d="M244.989 41.5287V116.777C245.465 116.595 245.928 116.394 246.391 116.199V42.1066C245.928 41.9047 245.465 41.7097 244.989 41.5287Z" fill="#96500A"/>
<path d="M240.15 39.9274V118.364L241.553 117.96V40.3312L240.15 39.9274Z" fill="#96500A"/>
<path d="M235.305 38.904V119.394C235.774 119.318 236.244 119.248 236.707 119.158V39.1825C236.244 39.0571 235.796 38.9736 235.305 38.904Z" fill="#96500A"/>
<path d="M230.459 38.3818V119.944C230.929 119.944 231.399 119.889 231.862 119.847V38.4862C231.399 38.4305 230.929 38.4097 230.459 38.3818Z" fill="#96500A"/>
<path d="M225.621 38.34V119.944C226.084 119.944 226.553 119.944 227.023 119.979V38.3122C226.553 38.3191 226.084 38.3191 225.621 38.34Z" fill="#96500A"/>
<path d="M220.775 38.8065V119.492C221.238 119.561 221.708 119.617 222.178 119.673V38.6255L220.775 38.8065Z" fill="#96500A"/>
<path d="M215.937 39.7743V118.552C216.4 118.67 216.862 118.782 217.339 118.886V39.4331C216.862 39.5375 216.4 39.6489 215.937 39.7743Z" fill="#96500A"/>
<path d="M211.091 41.2711V117.006C211.554 117.18 212.017 117.354 212.494 117.515V40.7907C212.024 40.9509 211.554 41.118 211.091 41.2711Z" fill="#96500A"/>
<path d="M206.246 43.4225V114.869C206.709 115.106 207.178 115.328 207.648 115.565V42.7402C207.178 42.963 206.709 43.1857 206.246 43.4225Z" fill="#96500A"/>
<path d="M201.435 46.3048V111.993C201.891 112.307 202.361 112.613 202.838 112.912V45.3788C202.333 45.6852 201.863 45.9915 201.435 46.3048Z" fill="#96500A"/>
<path d="M196.562 50.1549V108.157C197.018 108.575 197.487 108.986 197.964 109.39V48.9296C197.487 49.3264 197.018 49.7372 196.562 50.1549Z" fill="#96500A"/>
<path d="M191.716 55.3975V102.901C192.172 103.479 192.635 104.05 193.119 104.613V53.6917C192.635 54.2487 192.172 54.8127 191.716 55.3975Z" fill="#96500A"/>
<path d="M186.878 63.418V94.8803C187.306 95.8272 187.775 96.7462 188.28 97.6652V60.6331C187.775 61.5428 187.308 62.4711 186.878 63.418Z" fill="#96500A"/>
<path d="M227.5 115.071C202.922 115.071 183 96.6974 183 74.0354C183 51.3733 202.922 33 227.5 33C252.078 33 272 51.3733 272 74.0354C272 96.6974 252.078 115.071 227.5 115.071Z" fill="#F0AA00"/>
<path d="M227.5 113.372C251.05 113.372 270.142 95.7666 270.142 74.0493C270.142 52.332 251.05 34.7266 227.5 34.7266C203.95 34.7266 184.858 52.332 184.858 74.0493C184.858 95.7666 203.95 113.372 227.5 113.372Z" fill="#FFDD00"/>
<path d="M227.5 112.007C250.233 112.007 268.662 95.013 268.662 74.0493C268.662 53.0856 250.233 36.0912 227.5 36.0912C204.767 36.0912 186.338 53.0856 186.338 74.0493C186.338 95.013 204.767 112.007 227.5 112.007Z" fill="#FFF391"/>
<path d="M227.5 105.881C208.434 105.881 192.978 91.6289 192.978 74.0493C192.978 56.4697 208.406 42.218 227.5 42.218C246.594 42.218 262.021 56.4697 262.021 74.0493C262.021 91.6289 246.566 105.881 227.5 105.881Z" fill="#D4860C"/>
<path d="M227.5 104.384C209.331 104.384 194.605 90.8004 194.605 74.0493C194.605 57.2982 209.331 43.7149 227.5 43.7149C245.669 43.7149 260.395 57.2982 260.395 74.0493C260.395 90.8004 245.669 104.384 227.5 104.384Z" fill="#F0AA00"/>
<path d="M244.007 52.5221C246.527 52.5207 249.041 52.7891 251.503 53.3227C245.091 47.1033 236.464 43.6502 227.5 43.7149C209.331 43.7149 194.605 57.2982 194.605 74.0493C194.605 88.4263 205.453 100.45 220.004 103.583C217.211 100.887 214.986 97.6661 213.461 94.1074C211.936 90.5488 211.14 86.724 211.119 82.8565C211.119 66.0984 225.845 52.5221 244.007 52.5221Z" fill="#D97C11"/>
<path d="M266.229 74.9335C268.536 89.2757 257.113 103.346 244.042 108.185C239.571 109.859 234.773 110.493 230.017 110.037C234.514 109.214 238.876 107.785 242.983 105.79C254.904 99.7399 264.539 88.4263 266.222 74.9335H266.229Z" fill="white"/>
<path d="M216.196 40.8464C204.977 44.3275 196.197 54.2209 192.011 64.8174C190.616 68.5434 189.711 72.4326 189.318 76.3886C188.404 72.3166 188.467 68.0883 189.5 64.0446C192.305 52.4873 203.609 40.5401 216.196 40.8464Z" fill="white"/>
<path d="M245.879 86.6022L228.678 78.1709C228.736 78.0194 228.769 77.8595 228.776 77.6975C228.786 77.4311 228.716 77.1676 228.575 76.9407C228.434 76.7138 228.228 76.5338 227.984 76.4234L228.952 54.6108L228.159 52.1949L227.227 54.6456L226.897 76.4234C226.647 76.532 226.432 76.7085 226.278 76.9326C226.125 77.1568 226.038 77.4195 226.027 77.6905C226.026 77.8436 226.048 77.9961 226.091 78.1431L214.429 89.1156L213.728 90.9814L215.621 90.32L226.806 78.9577C226.977 79.0368 227.164 79.0772 227.353 79.076C227.547 79.0755 227.739 79.035 227.916 78.9571C228.093 78.8792 228.253 78.7656 228.384 78.6235L228.461 78.5399L228.545 78.4146L245.795 86.8876L245.879 86.6022Z" fill="black"/>
<path d="M245.886 86.3585L228.685 77.9064C228.743 77.7548 228.776 77.595 228.783 77.4329C228.794 77.1673 228.724 76.9046 228.583 76.6787C228.442 76.4528 228.235 76.2742 227.991 76.1658L228.959 54.3462L228.166 51.9373L227.234 54.388L226.904 76.1588C226.654 76.2674 226.439 76.4439 226.285 76.6681C226.132 76.8922 226.045 77.1549 226.034 77.426C226.034 77.5813 226.055 77.736 226.098 77.8855L214.436 88.851L213.735 90.7238L215.635 90.0624L226.813 78.6931C226.982 78.7778 227.17 78.8207 227.36 78.8184C227.554 78.817 227.746 78.7754 227.924 78.6963C228.101 78.6172 228.26 78.5023 228.391 78.3589L228.468 78.2754L228.552 78.157L245.809 86.6231L245.886 86.3585Z" fill="#96500A"/>
<path d="M215.383 52.2366L213.286 48.5815L212.052 49.229L214.156 52.8841L215.383 52.2366Z" fill="#96500A"/>
<path d="M205.215 61.1413L201.449 58.99L200.72 60.1318L204.479 62.2762L205.215 61.1413Z" fill="#96500A"/>
<path d="M201.036 73.6176L196.625 73.5619L196.59 74.8848L201.001 74.9474L201.036 73.6176Z" fill="#96500A"/>
<path d="M200.096 88.3776L200.769 89.5333L204.64 87.5003L203.974 86.3376L200.096 88.3776Z" fill="#96500A"/>
<path d="M210.937 99.4754L212.129 100.158L214.436 96.5651L213.244 95.8829L210.937 99.4754Z" fill="#96500A"/>
<path d="M226.21 98.807H226.041L225.929 102.991H226.091L227.325 103.005L227.493 103.012L227.605 98.8279H227.444L226.21 98.807Z" fill="#96500A"/>
<path d="M227.71 45.0934H227.549L227.43 49.2777H227.591L228.832 49.2986H228.994L229.113 45.1143H228.945L227.71 45.0934Z" fill="#96500A"/>
<path d="M240.865 52.5917L242.058 53.2671L244.365 49.6815L243.172 48.9992L240.865 52.5917Z" fill="#96500A"/>
<path d="M255.072 60.8907L254.406 59.735L250.528 61.7679L251.202 62.9306L255.072 60.8907Z" fill="#96500A"/>
<path d="M254.006 74.3626L253.971 75.6924L258.375 75.7481L258.417 74.4253L254.006 74.3626Z" fill="#96500A"/>
<path d="M249.624 88.1269L253.382 90.2713L254.119 89.1295L250.36 86.9851L249.624 88.1269Z" fill="#96500A"/>
<path d="M239.33 96.9133L241.433 100.561L242.668 99.914L240.564 96.2658L239.33 96.9133Z" fill="#96500A"/>
<path d="M306.991 118.508C309.977 101.668 298.709 85.602 281.824 82.6246C264.939 79.6471 248.831 90.8852 245.846 107.726C242.86 124.566 254.128 140.631 271.013 143.609C287.898 146.586 304.006 135.348 306.991 118.508Z" fill="#F0AA00"/>
<path d="M282.915 84.16C266.882 80.5808 250.975 90.6424 247.386 106.633C243.798 122.624 253.886 138.489 269.919 142.068C285.952 145.647 301.859 135.585 305.448 119.595C309.036 103.604 298.948 87.7392 282.915 84.16Z" fill="#FFDD00"/>
<path d="M304.696 118.103C303.37 125.583 299.119 132.231 292.879 136.585C286.638 140.939 278.919 142.642 271.419 141.32C263.919 139.997 257.253 135.758 252.888 129.533C248.522 123.309 246.815 115.61 248.141 108.13C248.797 104.426 250.178 100.887 252.205 97.7153C254.233 94.5435 256.867 91.8012 259.957 89.6448C263.047 87.4884 266.533 85.9603 270.216 85.1477C273.898 84.3351 277.705 84.254 281.419 84.9088C288.919 86.2327 295.584 90.4735 299.95 96.6984C304.315 102.923 306.022 110.623 304.696 118.103Z" fill="#FFF391"/>
<path d="M300.135 117.299C299.022 123.575 295.456 129.153 290.219 132.806C284.983 136.459 278.506 137.888 272.214 136.779C265.921 135.669 260.328 132.112 256.666 126.889C253.003 121.667 251.57 115.207 252.683 108.931C253.795 102.655 257.362 97.0771 262.598 93.424C267.834 89.7708 274.311 88.3419 280.604 89.4515C286.896 90.5611 292.489 94.1184 296.152 99.3408C299.815 104.563 301.247 111.023 300.135 117.299Z" fill="#D4860C"/>
<path d="M299.012 117.101C297.951 123.077 294.553 128.389 289.566 131.867C284.58 135.346 278.412 136.706 272.419 135.649C269.452 135.127 266.616 134.026 264.075 132.411C261.534 130.795 259.337 128.696 257.61 126.233C255.882 123.771 254.658 120.993 254.007 118.059C253.356 115.124 253.291 112.091 253.816 109.131C254.34 106.171 255.443 103.343 257.064 100.808C258.684 98.2738 260.789 96.0824 263.258 94.3595C265.728 92.6365 268.514 91.4157 271.457 90.7668C274.399 90.1179 277.441 90.0536 280.409 90.5776C286.402 91.6344 291.729 95.0226 295.218 99.9966C298.707 104.971 300.071 111.123 299.012 117.101Z" fill="#F0AA00"/>
<path d="M262.243 127.112C260.509 126.804 258.816 126.299 257.196 125.609C258.908 128.236 261.143 130.482 263.763 132.21C266.382 133.937 269.331 135.108 272.424 135.65C278.417 136.706 284.584 135.344 289.57 131.864C294.557 128.385 297.953 123.073 299.012 117.096C299.913 112.015 299.065 106.779 296.607 102.238C294.149 97.6978 290.224 94.119 285.47 92.0826C288.655 96.9461 289.858 102.839 288.831 108.557C287.772 114.534 284.376 119.846 279.389 123.326C274.403 126.805 268.236 128.167 262.243 127.112Z" fill="#D97C11"/>
<path d="M288.384 102.099L281.019 100.8C282.233 102.347 282.809 104.297 282.629 106.253L287.471 107.107L287.035 109.565L282.193 108.711C280.859 113.646 276.68 116.206 270.932 115.391C273.707 119.989 276.6 125.669 279.465 131.394L275.18 130.638C272.517 125.407 270.017 120.554 266.69 114.897L267.23 111.85L269.685 112.283C274.527 113.137 277.486 111.378 278.401 108.043L268.233 106.25L268.669 103.792L278.711 105.563C278.593 102.598 276.482 100.757 272.599 100.072L269.427 99.513L269.993 96.3208L288.785 99.6346L288.384 102.099Z" fill="#EA9C00"/>
<path d="M287.865 101.36L280.505 100.062C281.718 101.61 282.293 103.56 282.115 105.515L286.957 106.369L286.522 108.827L281.679 107.974C280.345 112.908 276.162 115.467 270.413 114.657C273.189 119.251 276.082 124.93 278.946 130.66L274.661 129.904C271.999 124.668 269.498 119.82 266.176 114.164L266.714 111.131L269.169 111.564C274.011 112.418 276.969 110.659 277.881 107.319L267.712 105.526L268.148 103.067L278.215 104.843C278.095 101.883 275.98 100.041 272.097 99.3562L268.93 98.7978L269.497 95.6008L288.284 98.9137L287.865 101.36Z" fill="#FFF391"/>
<path d="M281.781 86.6959L282.236 86.6963C282.668 86.6948 283.101 86.7195 283.531 86.7703C283.812 86.8199 284.123 86.8398 284.458 86.8939C284.822 86.9388 285.184 87.0026 285.542 87.0852C286.407 87.2775 287.256 87.5337 288.083 87.8519C288.552 88.0194 289.014 88.2303 289.479 88.4268C289.943 88.6233 290.447 88.8814 290.932 89.1563C291.965 89.7211 292.957 90.357 293.901 91.0592C294.911 91.8131 295.866 92.6373 296.759 93.5255C297.677 94.448 298.532 95.4306 299.319 96.467C300.093 97.5153 300.796 98.6142 301.422 99.7563C301.719 100.307 302.02 100.893 302.26 101.478L302.622 102.368L302.942 103.237C303.161 103.808 303.317 104.393 303.486 104.956C303.656 105.519 303.786 106.085 303.872 106.638C303.959 107.191 304.069 107.723 304.116 108.25L304.194 109.02L304.232 109.764C304.263 110.226 304.271 110.69 304.255 111.153C304.247 111.594 304.228 112.01 304.189 112.401C304.137 113.074 304.049 113.743 303.923 114.406C303.827 114.952 303.699 115.362 303.634 115.67L303.522 116.108L303.498 115.651C303.481 115.354 303.483 114.921 303.44 114.375C303.396 113.83 303.354 113.165 303.262 112.417C303.224 112.042 303.164 111.648 303.088 111.231L302.986 110.595L302.706 109.246L302.521 108.541C302.406 108.063 302.253 107.577 302.101 107.082C301.949 106.587 301.778 106.084 301.581 105.566C301.383 105.048 301.189 104.536 300.945 104.025C300.477 102.967 299.955 101.934 299.381 100.93C298.769 99.9004 298.104 98.9022 297.39 97.9396C296.662 96.9746 295.887 96.0511 295.083 95.1772C294.279 94.3034 293.424 93.4951 292.569 92.7417C291.743 92.0229 290.881 91.3457 289.987 90.7128C289.136 90.1094 288.297 89.573 287.499 89.1185C287.094 88.8928 286.708 88.6802 286.331 88.4943C286.143 88.4013 285.96 88.3044 285.782 88.2131C285.603 88.1219 285.426 88.0508 285.25 87.9749C284.909 87.8103 284.582 87.6829 284.28 87.5598C283.977 87.4367 283.694 87.317 283.439 87.2322C283.184 87.1475 282.97 87.0599 282.748 86.986C282.527 86.9121 282.365 86.8685 282.223 86.8236L281.781 86.6959Z" fill="white"/>
<path d="M279.811 139.159L280.211 139.1C280.479 139.083 280.858 139 281.327 138.918C281.796 138.837 282.37 138.669 282.998 138.481C283.699 138.254 284.389 137.992 285.064 137.695C285.858 137.349 286.633 136.962 287.387 136.536C288.191 136.085 289.004 135.556 289.836 134.975C290.668 134.395 291.463 133.768 292.268 133.084C293.074 132.399 293.837 131.672 294.573 130.9C295.309 130.129 296.018 129.337 296.66 128.509C296.996 128.105 297.306 127.682 297.603 127.271C297.901 126.86 298.201 126.435 298.461 126.008L298.867 125.382L299.242 124.756C299.5 124.344 299.715 123.923 299.96 123.523C300.399 122.709 300.775 121.914 301.106 121.17C301.438 120.427 301.726 119.731 301.972 119.107C302.217 118.483 302.382 117.919 302.548 117.46C302.836 116.515 303.008 115.993 303.008 115.993L303.021 116.398C303.02 116.657 303.045 117.05 303.023 117.544C303 118.038 302.983 118.643 302.872 119.325C302.78 120.097 302.644 120.863 302.465 121.619C302.246 122.52 301.972 123.406 301.645 124.274C301.467 124.74 301.285 125.206 301.064 125.665C300.842 126.124 300.615 126.617 300.361 127.095C299.837 128.078 299.242 129.022 298.582 129.919C297.903 130.85 297.163 131.734 296.365 132.566C295.561 133.394 294.705 134.17 293.801 134.888C292.921 135.575 291.996 136.202 291.032 136.765C290.129 137.291 289.19 137.751 288.221 138.142C287.353 138.493 286.46 138.777 285.549 138.991C284.782 139.174 284.002 139.298 283.216 139.361C282.613 139.407 282.006 139.409 281.403 139.365C281.017 139.342 280.634 139.291 280.256 139.213C279.952 139.184 279.811 139.159 279.811 139.159Z" fill="white"/>
<path d="M236.689 161V157.59H232.817V161H231.871V153.19H232.817V156.71H236.689V153.19H237.635V161H236.689ZM241.623 161.11C240.138 161.11 238.653 160.054 238.653 158.14C238.653 156.226 240.138 155.17 241.623 155.17C243.108 155.17 244.593 156.226 244.593 158.14C244.593 160.054 243.108 161.11 241.623 161.11ZM239.577 158.14C239.577 159.493 240.567 160.263 241.623 160.263C242.679 160.263 243.669 159.493 243.669 158.14C243.669 156.787 242.679 156.017 241.623 156.017C240.567 156.017 239.577 156.787 239.577 158.14ZM251.503 161L249.71 156.402L247.917 161H247.059L244.903 155.28H245.838L247.499 159.845L249.27 155.28H250.15L251.921 159.845L253.582 155.28H254.517L252.361 161H251.503ZM257.781 161V155.28H258.705V161H257.781ZM257.781 154.048V153.19H258.705V154.048H257.781ZM261.775 161.066C261.016 161.066 260.499 160.692 260.499 159.834V156.039H259.729V155.28H260.499V153.817H261.423V155.28H262.556V156.039H261.423V159.658C261.423 160.01 261.599 160.23 262.028 160.23C262.16 160.23 262.336 160.208 262.545 160.131V160.868C262.347 161.022 262.039 161.066 261.775 161.066ZM272.203 161L270.41 156.402L268.617 161H267.759L265.603 155.28H266.538L268.199 159.845L269.97 155.28H270.85L272.621 159.845L274.282 155.28H275.217L273.061 161H272.203ZM278.49 161.11C277.005 161.11 275.52 160.054 275.52 158.14C275.52 156.226 277.005 155.17 278.49 155.17C279.975 155.17 281.46 156.226 281.46 158.14C281.46 160.054 279.975 161.11 278.49 161.11ZM276.444 158.14C276.444 159.493 277.434 160.263 278.49 160.263C279.546 160.263 280.536 159.493 280.536 158.14C280.536 156.787 279.546 156.017 278.49 156.017C277.434 156.017 276.444 156.787 276.444 158.14ZM282.488 161V155.28H283.412V156.699C283.621 155.874 284.193 155.17 285.249 155.17C285.381 155.17 285.491 155.181 285.579 155.214V156.083C285.48 156.061 285.392 156.05 285.26 156.05C284.193 156.05 283.412 156.853 283.412 158.129V161H282.488ZM286.602 161V153.19H287.526V158.316L290.276 155.28H291.409L289 157.898L291.673 161H290.595L288.417 158.525L287.526 159.493V161H286.602ZM293.882 161.11C292.815 161.11 292.045 160.538 291.869 159.559L292.639 159.35C292.793 159.955 293.244 160.34 293.882 160.34C294.421 160.34 294.96 160.076 294.96 159.449C294.96 158.976 294.63 158.734 293.97 158.459L293.453 158.261C292.507 157.876 292.111 157.315 292.111 156.666C292.111 155.764 292.892 155.17 293.882 155.17C294.795 155.17 295.477 155.676 295.675 156.446L294.938 156.666C294.762 156.193 294.421 155.929 293.915 155.929C293.42 155.929 293.024 156.193 293.024 156.677C293.024 157.04 293.255 157.326 293.849 157.568L294.311 157.755C295.213 158.107 295.873 158.503 295.873 159.449C295.873 160.582 294.916 161.11 293.882 161.11ZM298.982 161V160.087L302.469 158.36L298.982 156.611V155.709L303.569 158.019V158.69L298.982 161ZM304.449 161V160.087L307.936 158.36L304.449 156.611V155.709L309.036 158.019V158.69L304.449 161ZM309.917 161V160.087L313.404 158.36L309.917 156.611V155.709L314.504 158.019V158.69L309.917 161Z" fill="white"/>
<path d="M19.856 117.105C18.596 117.105 17.609 116.359 17.357 115.288L18.1025 114.942C18.3125 115.719 18.9635 116.265 19.856 116.265C20.6435 116.265 21.326 115.834 21.326 114.984C21.326 114.217 20.78 113.881 19.9085 113.535L19.415 113.346C18.323 112.905 17.6615 112.296 17.6615 111.33C17.6615 110.175 18.596 109.44 19.8035 109.44C21.032 109.44 21.7565 110.185 22.0505 110.994L21.3575 111.351C21.0635 110.679 20.5805 110.269 19.8245 110.269C19.1105 110.269 18.5645 110.668 18.5645 111.34C18.5645 111.865 18.8795 112.275 19.7615 112.621L20.2655 112.821C21.4835 113.304 22.25 113.85 22.25 114.994C22.25 116.37 21.1055 117.105 19.856 117.105ZM23.2284 117V109.545H24.1104V112.432C24.3939 111.907 24.9924 111.435 25.9374 111.435C27.0819 111.435 28.0689 112.149 28.0689 113.787V117H27.1869V113.913C27.1869 112.81 26.5359 112.243 25.6644 112.243C24.7929 112.243 24.1104 112.81 24.1104 113.913V117H23.2284ZM31.724 117.105C30.401 117.105 29.0465 116.139 29.0465 114.27C29.0465 112.401 30.401 111.435 31.724 111.435C32.7425 111.435 33.509 111.991 33.7715 112.569H33.803V111.54H34.685V117H33.803V115.971H33.7715C33.509 116.548 32.7425 117.105 31.724 117.105ZM29.9285 114.27C29.9285 115.624 30.905 116.296 31.871 116.296C32.858 116.296 33.8345 115.614 33.8345 114.27C33.8345 112.926 32.858 112.243 31.871 112.243C30.905 112.243 29.9285 112.915 29.9285 114.27ZM35.9227 117V111.54H36.8047V112.894C37.0042 112.107 37.5502 111.435 38.5582 111.435C38.6842 111.435 38.7892 111.445 38.8732 111.477V112.306C38.7787 112.285 38.6947 112.275 38.5687 112.275C37.5502 112.275 36.8047 113.041 36.8047 114.259V117H35.9227ZM42.2372 117.105C40.7672 117.105 39.4337 116.086 39.4337 114.27C39.4337 112.432 40.7777 111.435 42.1532 111.435C43.5392 111.435 44.9882 112.432 44.7677 114.595H40.2737C40.4102 115.74 41.2817 116.349 42.3317 116.349C42.9722 116.349 43.5602 116.118 43.9592 115.688L44.4002 116.139C43.9067 116.748 43.1192 117.105 42.2372 117.105ZM40.2737 113.923H43.9907C43.9277 112.8 43.0772 112.201 42.1637 112.201C41.2607 112.201 40.4102 112.779 40.2737 113.923ZM49.0513 118.995L49.9543 116.947L47.6548 111.54H48.5683L50.3848 115.908L52.2013 111.54H53.1148L50.7943 117L49.9228 118.995H49.0513ZM56.2447 117.105C54.8272 117.105 53.4097 116.097 53.4097 114.27C53.4097 112.443 54.8272 111.435 56.2447 111.435C57.6622 111.435 59.0797 112.443 59.0797 114.27C59.0797 116.097 57.6622 117.105 56.2447 117.105ZM54.2917 114.27C54.2917 115.561 55.2367 116.296 56.2447 116.296C57.2527 116.296 58.1977 115.561 58.1977 114.27C58.1977 112.978 57.2527 112.243 56.2447 112.243C55.2367 112.243 54.2917 112.978 54.2917 114.27ZM64.9009 111.54V117H64.0189V116.107C63.7354 116.632 63.1369 117.105 62.1919 117.105C61.0474 117.105 60.0604 116.391 60.0604 114.753V111.54H60.9424V114.627C60.9424 115.729 61.5934 116.296 62.4649 116.296C63.3364 116.296 64.0189 115.729 64.0189 114.627V111.54H64.9009ZM66.141 117V111.54H67.023V112.894C67.2225 112.107 67.7685 111.435 68.7765 111.435C68.9025 111.435 69.0075 111.445 69.0915 111.477V112.306C68.997 112.285 68.913 112.275 68.787 112.275C67.7685 112.275 67.023 113.041 67.023 114.259V117H66.141ZM72.1088 117V111.54H72.9908V112.894C73.1903 112.107 73.7363 111.435 74.7443 111.435C74.8703 111.435 74.9753 111.445 75.0593 111.477V112.306C74.9648 112.285 74.8808 112.275 74.7548 112.275C73.7363 112.275 72.9908 113.041 72.9908 114.259V117H72.1088ZM78.4232 117.105C76.9532 117.105 75.6197 116.086 75.6197 114.27C75.6197 112.432 76.9637 111.435 78.3392 111.435C79.7252 111.435 81.1742 112.432 80.9537 114.595H76.4597C76.5962 115.74 77.4677 116.349 78.5177 116.349C79.1582 116.349 79.7462 116.118 80.1452 115.688L80.5862 116.139C80.0927 116.748 79.3052 117.105 78.4232 117.105ZM76.4597 113.923H80.1767C80.1137 112.8 79.2632 112.201 78.3497 112.201C77.4467 112.201 76.5962 112.779 76.4597 113.923ZM82.2253 110.941C82.2253 109.618 83.1178 109.335 83.7688 109.335C84.0943 109.335 84.3988 109.408 84.6193 109.545V110.248C84.3988 110.143 84.1468 110.101 83.9578 110.101C83.4538 110.101 83.1178 110.353 83.1178 111.046V111.54H84.6193V112.264H83.1178V117H82.2253V112.264H81.5953V111.54H82.2253V110.941ZM87.9286 117.105C86.4586 117.105 85.1251 116.086 85.1251 114.27C85.1251 112.432 86.4691 111.435 87.8446 111.435C89.2306 111.435 90.6796 112.432 90.4591 114.595H85.9651C86.1016 115.74 86.9731 116.349 88.0231 116.349C88.6636 116.349 89.2516 116.118 89.6506 115.688L90.0916 116.139C89.5981 116.748 88.8106 117.105 87.9286 117.105ZM85.9651 113.923H89.6821C89.6191 112.8 88.7686 112.201 87.8551 112.201C86.9521 112.201 86.1016 112.779 85.9651 113.923ZM91.4681 117V111.54H92.3501V112.894C92.5496 112.107 93.0956 111.435 94.1036 111.435C94.2296 111.435 94.3346 111.445 94.4186 111.477V112.306C94.3241 112.285 94.2401 112.275 94.1141 112.275C93.0956 112.275 92.3501 113.041 92.3501 114.259V117H91.4681ZM95.3954 117V111.54H96.2774V112.894C96.4769 112.107 97.0229 111.435 98.0309 111.435C98.1569 111.435 98.2619 111.445 98.3459 111.477V112.306C98.2514 112.285 98.1674 112.275 98.0414 112.275C97.0229 112.275 96.2774 113.041 96.2774 114.259V117H95.3954ZM101.584 117.105C100.261 117.105 98.9063 116.139 98.9063 114.27C98.9063 112.401 100.261 111.435 101.584 111.435C102.602 111.435 103.369 111.991 103.631 112.569H103.663V111.54H104.545V117H103.663V115.971H103.631C103.369 116.548 102.602 117.105 101.584 117.105ZM99.7883 114.27C99.7883 115.624 100.765 116.296 101.731 116.296C102.718 116.296 103.694 115.614 103.694 114.27C103.694 112.926 102.718 112.243 101.731 112.243C100.765 112.243 99.7883 112.915 99.7883 114.27ZM105.783 117V109.545H106.665V117H105.783ZM112.723 117.105C111.306 117.105 109.888 116.097 109.888 114.27C109.888 112.443 111.306 111.435 112.723 111.435C113.668 111.435 114.561 111.886 115.054 112.779L114.382 113.178C114.036 112.59 113.416 112.243 112.734 112.243C111.747 112.243 110.77 112.978 110.77 114.27C110.77 115.561 111.747 116.296 112.734 116.296C113.416 116.296 114.036 115.95 114.382 115.362L115.054 115.761C114.561 116.643 113.668 117.105 112.723 117.105ZM118.517 117.105C117.099 117.105 115.682 116.097 115.682 114.27C115.682 112.443 117.099 111.435 118.517 111.435C119.934 111.435 121.352 112.443 121.352 114.27C121.352 116.097 119.934 117.105 118.517 117.105ZM116.564 114.27C116.564 115.561 117.509 116.296 118.517 116.296C119.525 116.296 120.47 115.561 120.47 114.27C120.47 112.978 119.525 112.243 118.517 112.243C117.509 112.243 116.564 112.978 116.564 114.27ZM127.708 117H126.826V115.971H126.795C126.532 116.548 125.766 117.105 124.747 117.105C123.424 117.105 122.07 116.139 122.07 114.27C122.07 112.401 123.424 111.435 124.747 111.435C125.766 111.435 126.532 111.991 126.795 112.569H126.826V109.545H127.708V117ZM122.952 114.27C122.952 115.624 123.928 116.296 124.894 116.296C125.881 116.296 126.858 115.614 126.858 114.27C126.858 112.926 125.881 112.243 124.894 112.243C123.928 112.243 122.952 112.915 122.952 114.27ZM131.487 117.105C130.017 117.105 128.684 116.086 128.684 114.27C128.684 112.432 130.028 111.435 131.403 111.435C132.789 111.435 134.238 112.432 134.018 114.595H129.524C129.66 115.74 130.532 116.349 131.582 116.349C132.222 116.349 132.81 116.118 133.209 115.688L133.65 116.139C133.157 116.748 132.369 117.105 131.487 117.105ZM129.524 113.923H133.241C133.178 112.8 132.327 112.201 131.414 112.201C130.511 112.201 129.66 112.779 129.524 113.923ZM23.552 133L21.8405 128.611L20.129 133H19.31L17.252 127.54H18.1445L19.73 131.897L21.4205 127.54H22.2605L23.951 131.897L25.5365 127.54H26.429L24.371 133H23.552ZM27.2992 133V127.54H28.1812V133H27.2992ZM27.2992 126.364V125.545H28.1812V126.364H27.2992ZM31.1122 133.063C30.3877 133.063 29.8942 132.706 29.8942 131.887V128.264H29.1592V127.54H29.8942V126.143H30.7762V127.54H31.8577V128.264H30.7762V131.719C30.7762 132.055 30.9442 132.265 31.3537 132.265C31.4797 132.265 31.6477 132.244 31.8472 132.17V132.874C31.6582 133.021 31.3642 133.063 31.1122 133.063ZM32.8876 133V125.545H33.7696V128.432C34.0531 127.907 34.6516 127.435 35.5966 127.435C36.7411 127.435 37.7281 128.149 37.7281 129.787V133H36.8461V129.913C36.8461 128.81 36.1951 128.243 35.3236 128.243C34.4521 128.243 33.7696 128.81 33.7696 129.913V133H32.8876ZM42.2427 134.995L43.1457 132.947L40.8462 127.54H41.7597L43.5762 131.908L45.3927 127.54H46.3062L43.9857 133L43.1142 134.995H42.2427ZM49.4361 133.105C48.0186 133.105 46.6011 132.097 46.6011 130.27C46.6011 128.443 48.0186 127.435 49.4361 127.435C50.8536 127.435 52.2711 128.443 52.2711 130.27C52.2711 132.097 50.8536 133.105 49.4361 133.105ZM47.4831 130.27C47.4831 131.561 48.4281 132.296 49.4361 132.296C50.4441 132.296 51.3891 131.561 51.3891 130.27C51.3891 128.978 50.4441 128.243 49.4361 128.243C48.4281 128.243 47.4831 128.978 47.4831 130.27ZM58.0923 127.54V133H57.2103V132.107C56.9268 132.632 56.3283 133.105 55.3833 133.105C54.2388 133.105 53.2518 132.391 53.2518 130.753V127.54H54.1338V130.627C54.1338 131.729 54.7848 132.296 55.6563 132.296C56.5278 132.296 57.2103 131.729 57.2103 130.627V127.54H58.0923ZM59.3324 133V127.54H60.2144V128.894C60.4139 128.107 60.9599 127.435 61.9679 127.435C62.0939 127.435 62.1989 127.445 62.2829 127.477V128.306C62.1884 128.285 62.1044 128.275 61.9784 128.275C60.9599 128.275 60.2144 129.041 60.2144 130.259V133H59.3324ZM65.5627 126.941C65.5627 125.618 66.4552 125.335 67.1062 125.335C67.4317 125.335 67.7362 125.408 67.9567 125.545V126.248C67.7362 126.143 67.4842 126.101 67.2952 126.101C66.7912 126.101 66.4552 126.353 66.4552 127.046V127.54H67.9567V128.264H66.4552V133H65.5627V128.264H64.9327V127.54H65.5627V126.941ZM68.725 133V127.54H69.607V128.894C69.8065 128.107 70.3525 127.435 71.3605 127.435C71.4865 127.435 71.5915 127.445 71.6755 127.477V128.306C71.581 128.285 71.497 128.275 71.371 128.275C70.3525 128.275 69.607 129.041 69.607 130.259V133H68.725ZM72.6522 133V127.54H73.5342V133H72.6522ZM72.6522 126.364V125.545H73.5342V126.364H72.6522ZM77.3158 133.105C75.8458 133.105 74.5123 132.086 74.5123 130.27C74.5123 128.432 75.8563 127.435 77.2318 127.435C78.6178 127.435 80.0668 128.432 79.8463 130.595H75.3523C75.4888 131.74 76.3603 132.349 77.4103 132.349C78.0508 132.349 78.6388 132.118 79.0378 131.688L79.4788 132.139C78.9853 132.748 78.1978 133.105 77.3158 133.105ZM75.3523 129.923H79.0693C79.0063 128.8 78.1558 128.201 77.2423 128.201C76.3393 128.201 75.4888 128.779 75.3523 129.923ZM80.8553 133V127.54H81.7373V128.432C82.0208 127.907 82.6193 127.435 83.5643 127.435C84.7088 127.435 85.6958 128.149 85.6958 129.787V133H84.8138V129.913C84.8138 128.81 84.1628 128.243 83.2913 128.243C82.4198 128.243 81.7373 128.81 81.7373 129.913V133H80.8553ZM92.3119 133H91.4299V131.971H91.3984C91.1359 132.548 90.3694 133.105 89.3509 133.105C88.0279 133.105 86.6734 132.139 86.6734 130.27C86.6734 128.401 88.0279 127.435 89.3509 127.435C90.3694 127.435 91.1359 127.991 91.3984 128.569H91.4299V125.545H92.3119V133ZM87.5554 130.27C87.5554 131.624 88.5319 132.296 89.4979 132.296C90.4849 132.296 91.4614 131.614 91.4614 130.27C91.4614 128.926 90.4849 128.243 89.4979 128.243C88.5319 128.243 87.5554 128.915 87.5554 130.27ZM95.1562 133.105C94.1377 133.105 93.4027 132.559 93.2347 131.624L93.9697 131.425C94.1167 132.002 94.5472 132.37 95.1562 132.37C95.6707 132.37 96.1852 132.118 96.1852 131.519C96.1852 131.068 95.8702 130.837 95.2402 130.574L94.7467 130.385C93.8437 130.018 93.4657 129.482 93.4657 128.863C93.4657 128.002 94.2112 127.435 95.1562 127.435C96.0277 127.435 96.6787 127.918 96.8677 128.653L96.1642 128.863C95.9962 128.411 95.6707 128.159 95.1877 128.159C94.7152 128.159 94.3372 128.411 94.3372 128.873C94.3372 129.22 94.5577 129.493 95.1247 129.724L95.5657 129.902C96.4267 130.238 97.0567 130.616 97.0567 131.519C97.0567 132.601 96.1432 133.105 95.1562 133.105ZM102.691 133.105C101.368 133.105 100.014 132.139 100.014 130.27C100.014 128.401 101.368 127.435 102.691 127.435C103.71 127.435 104.476 127.991 104.739 128.569H104.77V127.54H105.652V133H104.77V131.971H104.739C104.476 132.548 103.71 133.105 102.691 133.105ZM100.896 130.27C100.896 131.624 101.872 132.296 102.838 132.296C103.825 132.296 104.802 131.614 104.802 130.27C104.802 128.926 103.825 128.243 102.838 128.243C101.872 128.243 100.896 128.915 100.896 130.27ZM106.89 133V127.54H107.772V128.432C108.056 127.907 108.654 127.435 109.599 127.435C110.744 127.435 111.731 128.149 111.731 129.787V133H110.849V129.913C110.849 128.81 110.198 128.243 109.326 128.243C108.455 128.243 107.772 128.81 107.772 129.913V133H106.89ZM118.347 133H117.465V131.971H117.433C117.171 132.548 116.404 133.105 115.386 133.105C114.063 133.105 112.708 132.139 112.708 130.27C112.708 128.401 114.063 127.435 115.386 127.435C116.404 127.435 117.171 127.991 117.433 128.569H117.465V125.545H118.347V133ZM113.59 130.27C113.59 131.624 114.567 132.296 115.533 132.296C116.52 132.296 117.496 131.614 117.496 130.27C117.496 128.926 116.52 128.243 115.533 128.243C114.567 128.243 113.59 128.915 113.59 130.27ZM124.371 133.105C122.901 133.105 121.567 132.086 121.567 130.27C121.567 128.432 122.911 127.435 124.287 127.435C125.673 127.435 127.122 128.432 126.901 130.595H122.407C122.544 131.74 123.415 132.349 124.465 132.349C125.106 132.349 125.694 132.118 126.093 131.688L126.534 132.139C126.04 132.748 125.253 133.105 124.371 133.105ZM122.407 129.923H126.124C126.061 128.8 125.211 128.201 124.297 128.201C123.394 128.201 122.544 128.779 122.407 129.923ZM130.326 133.105C129.003 133.105 127.648 132.139 127.648 130.27C127.648 128.401 129.003 127.435 130.326 127.435C131.344 127.435 132.111 127.991 132.373 128.569H132.405V127.54H133.287V133H132.405V131.971H132.373C132.111 132.548 131.344 133.105 130.326 133.105ZM128.53 130.27C128.53 131.624 129.507 132.296 130.473 132.296C131.46 132.296 132.436 131.614 132.436 130.27C132.436 128.926 131.46 128.243 130.473 128.243C129.507 128.243 128.53 128.915 128.53 130.27ZM134.524 133V127.54H135.406V128.894C135.606 128.107 136.152 127.435 137.16 127.435C137.286 127.435 137.391 127.445 137.475 127.477V128.306C137.38 128.285 137.296 128.275 137.17 128.275C136.152 128.275 135.406 129.041 135.406 130.259V133H134.524ZM138.452 133V127.54H139.334V128.432C139.617 127.907 140.216 127.435 141.161 127.435C142.305 127.435 143.292 128.149 143.292 129.787V133H142.41V129.913C142.41 128.81 141.759 128.243 140.888 128.243C140.016 128.243 139.334 128.81 139.334 129.913V133H138.452ZM17.6195 149V143.54H18.5015V144.894C18.701 144.107 19.247 143.435 20.255 143.435C20.381 143.435 20.486 143.445 20.57 143.477V144.306C20.4755 144.285 20.3915 144.275 20.2655 144.275C19.247 144.275 18.5015 145.041 18.5015 146.259V149H17.6195ZM23.9339 149.105C22.4639 149.105 21.1304 148.086 21.1304 146.27C21.1304 144.432 22.4744 143.435 23.8499 143.435C25.2359 143.435 26.6849 144.432 26.4644 146.595H21.9704C22.1069 147.74 22.9784 148.349 24.0284 148.349C24.6689 148.349 25.2569 148.118 25.6559 147.688L26.0969 148.139C25.6034 148.748 24.8159 149.105 23.9339 149.105ZM21.9704 145.923H25.6874C25.6244 144.8 24.7739 144.201 23.8604 144.201C22.9574 144.201 22.1069 144.779 21.9704 145.923ZM33.0881 149L31.3766 144.611L29.6651 149H28.8461L26.7881 143.54H27.6806L29.2661 147.897L30.9566 143.54H31.7966L33.4871 147.897L35.0726 143.54H35.9651L33.9071 149H33.0881ZM38.9324 149.105C37.6094 149.105 36.2549 148.139 36.2549 146.27C36.2549 144.401 37.6094 143.435 38.9324 143.435C39.9509 143.435 40.7174 143.991 40.9799 144.569H41.0114V143.54H41.8934V149H41.0114V147.971H40.9799C40.7174 148.548 39.9509 149.105 38.9324 149.105ZM37.1369 146.27C37.1369 147.624 38.1134 148.296 39.0794 148.296C40.0664 148.296 41.0429 147.614 41.0429 146.27C41.0429 144.926 40.0664 144.243 39.0794 144.243C38.1134 144.243 37.1369 144.915 37.1369 146.27ZM43.1312 149V143.54H44.0132V144.894C44.2127 144.107 44.7587 143.435 45.7667 143.435C45.8927 143.435 45.9977 143.445 46.0817 143.477V144.306C45.9872 144.285 45.9032 144.275 45.7772 144.275C44.7587 144.275 44.0132 145.041 44.0132 146.259V149H43.1312ZM52.2807 149H51.3987V147.971H51.3672C51.1047 148.548 50.3382 149.105 49.3197 149.105C47.9967 149.105 46.6422 148.139 46.6422 146.27C46.6422 144.401 47.9967 143.435 49.3197 143.435C50.3382 143.435 51.1047 143.991 51.3672 144.569H51.3987V141.545H52.2807V149ZM47.5242 146.27C47.5242 147.624 48.5007 148.296 49.4667 148.296C50.4537 148.296 51.4302 147.614 51.4302 146.27C51.4302 144.926 50.4537 144.243 49.4667 144.243C48.5007 144.243 47.5242 144.915 47.5242 146.27ZM55.1249 149.105C54.1064 149.105 53.3714 148.559 53.2034 147.624L53.9384 147.425C54.0854 148.002 54.5159 148.37 55.1249 148.37C55.6394 148.37 56.1539 148.118 56.1539 147.519C56.1539 147.068 55.8389 146.837 55.2089 146.574L54.7154 146.385C53.8124 146.018 53.4344 145.482 53.4344 144.863C53.4344 144.002 54.1799 143.435 55.1249 143.435C55.9964 143.435 56.6474 143.918 56.8364 144.653L56.1329 144.863C55.9649 144.411 55.6394 144.159 55.1564 144.159C54.6839 144.159 54.3059 144.411 54.3059 144.873C54.3059 145.22 54.5264 145.493 55.0934 145.724L55.5344 145.902C56.3954 146.238 57.0254 146.616 57.0254 147.519C57.0254 148.601 56.1119 149.105 55.1249 149.105ZM58.0988 149.105C57.7943 149.105 57.5633 148.874 57.5633 148.569C57.5633 148.265 57.7943 148.044 58.0988 148.044C58.4033 148.044 58.6238 148.265 58.6238 148.569C58.6238 148.874 58.4033 149.105 58.0988 149.105Z" fill="black"/>
<defs>
<filter id="filter0_dd_1555_773" x="0" y="0" width="326" height="172" filterUnits="userSpaceOnUse" color-interpolation-filters="sRGB">
<feFlood flood-opacity="0" result="BackgroundImageFix"/>
<feColorMatrix in="SourceAlpha" type="matrix" values="0 0 0 0 0 0 0 0 0 0 0 0 0 0 0 0 0 0 127 0" result="hardAlpha"/>
<feOffset dx="1" dy="1"/>
<feGaussianBlur stdDeviation="1"/>
<feComposite in2="hardAlpha" operator="out"/>
<feColorMatrix type="matrix" values="0 0 0 0 0.341176 0 0 0 0 0 0 0 0 0 0 0 0 0 0.35 0"/>
<feBlend mode="normal" in2="BackgroundImageFix" result="effect1_dropShadow_1555_773"/>
<feColorMatrix in="SourceAlpha" type="matrix" values="0 0 0 0 0 0 0 0 0 0 0 0 0 0 0 0 0 0 127 0" result="hardAlpha"/>
<feOffset dx="-1" dy="-1"/>
<feGaussianBlur stdDeviation="1"/>
<feComposite in2="hardAlpha" operator="out"/>
<feColorMatrix type="matrix" values="0 0 0 0 0.341176 0 0 0 0 0 0 0 0 0 0 0 0 0 0.35 0"/>
<feBlend mode="normal" in2="effect1_dropShadow_1555_773" result="effect2_dropShadow_1555_773"/>
<feBlend mode="normal" in="SourceGraphic" in2="effect2_dropShadow_1555_773" result="shape"/>
</filter>
<clipPath id="clip0_1555_773">
<rect width="320" height="166" fill="white" transform="translate(3 3)"/>
</clipPath>
</defs>
</svg>
