<svg width="336" height="182" viewBox="0 0 336 182" fill="none" xmlns="http://www.w3.org/2000/svg">
<g filter="url(#filter0_dd_1505_104)">
<rect x="8" y="8" width="320" height="166" fill="white"/>
</g>
<path d="M310.506 17C310.506 18.7521 309.81 20.4324 308.571 21.6713C307.332 22.9102 305.652 23.6062 303.9 23.6062C302.148 23.6062 300.468 22.9102 299.229 21.6713C297.99 20.4324 297.294 18.7521 297.294 17H287.856C287.856 18.7521 287.16 20.4324 285.921 21.6713C284.682 22.9102 283.002 23.6062 281.25 23.6062C279.498 23.6062 277.818 22.9102 276.579 21.6713C275.34 20.4324 274.644 18.7521 274.644 17H265.206C265.206 18.7521 264.51 20.4324 263.271 21.6713C262.032 22.9102 260.352 23.6062 258.6 23.6062C256.848 23.6062 255.168 22.9102 253.929 21.6713C252.69 20.4324 251.994 18.7521 251.994 17H242.556C242.556 18.7521 241.86 20.4324 240.621 21.6713C239.382 22.9102 237.702 23.6062 235.95 23.6062C234.198 23.6062 232.518 22.9102 231.279 21.6713C230.04 20.4324 229.344 18.7521 229.344 17H219.906C219.906 18.7521 219.21 20.4324 217.971 21.6713C216.732 22.9102 215.052 23.6062 213.3 23.6062C211.548 23.6062 209.868 22.9102 208.629 21.6713C207.39 20.4324 206.694 18.7521 206.694 17H197.256C197.256 18.7521 196.56 20.4324 195.321 21.6713C194.082 22.9102 192.402 23.6062 190.65 23.6062C188.898 23.6062 187.218 22.9102 185.979 21.6713C184.74 20.4324 184.044 18.7521 184.044 17H174.606C174.606 18.7521 173.91 20.4324 172.671 21.6713C171.432 22.9102 169.752 23.6062 168 23.6062C166.248 23.6062 164.568 22.9102 163.329 21.6713C162.09 20.4324 161.394 18.7521 161.394 17H151.956C151.956 18.7521 151.26 20.4324 150.021 21.6713C148.782 22.9102 147.102 23.6062 145.35 23.6062C143.598 23.6062 141.918 22.9102 140.679 21.6713C139.44 20.4324 138.744 18.7521 138.744 17H129.306C129.306 18.7521 128.61 20.4324 127.371 21.6713C126.132 22.9102 124.452 23.6062 122.7 23.6062C120.948 23.6062 119.268 22.9102 118.029 21.6713C116.79 20.4324 116.094 18.7521 116.094 17H106.656C106.656 18.7521 105.96 20.4324 104.721 21.6713C103.482 22.9102 101.802 23.6062 100.05 23.6062C98.2979 23.6062 96.6176 22.9102 95.3787 21.6713C94.1397 20.4324 93.4437 18.7521 93.4437 17H84.0062C84.0062 18.7521 83.3103 20.4324 82.0713 21.6713C80.8324 22.9102 79.1521 23.6062 77.4 23.6062C75.6479 23.6062 73.9676 22.9102 72.7287 21.6713C71.4897 20.4324 70.7938 18.7521 70.7938 17H61.3563C61.3563 18.7521 60.6603 20.4324 59.4213 21.6713C58.1824 22.9102 56.5021 23.6062 54.75 23.6062C52.9979 23.6062 51.3176 22.9102 50.0787 21.6713C48.8397 20.4324 48.1437 18.7521 48.1437 17H38.7062C38.7062 18.7521 38.0103 20.4324 36.7713 21.6713C35.5324 22.9102 33.8521 23.6062 32.1 23.6062C30.3479 23.6062 28.6676 22.9102 27.4287 21.6713C26.1897 20.4324 25.4938 18.7521 25.4938 17H17L17 164.843H25.4938C25.4938 163.091 26.1897 161.411 27.4287 160.172C28.6676 158.933 30.3479 158.237 32.1 158.237C33.8521 158.237 35.5324 158.933 36.7713 160.172C38.0103 161.411 38.7062 163.091 38.7062 164.843H48.1437C48.1437 163.091 48.8397 161.411 50.0787 160.172C51.3176 158.933 52.9979 158.237 54.75 158.237C56.5021 158.237 58.1824 158.933 59.4213 160.172C60.6603 161.411 61.3563 163.091 61.3563 164.843H70.7938C70.7938 163.091 71.4897 161.411 72.7287 160.172C73.9676 158.933 75.6479 158.237 77.4 158.237C79.1521 158.237 80.8324 158.933 82.0713 160.172C83.3103 161.411 84.0062 163.091 84.0062 164.843H93.4437C93.4437 163.091 94.1397 161.411 95.3787 160.172C96.6176 158.933 98.2979 158.237 100.05 158.237C101.802 158.237 103.482 158.933 104.721 160.172C105.96 161.411 106.656 163.091 106.656 164.843H116.094C116.094 163.091 116.79 161.411 118.029 160.172C119.268 158.933 120.948 158.237 122.7 158.237C124.452 158.237 126.132 158.933 127.371 160.172C128.61 161.411 129.306 163.091 129.306 164.843H138.744C138.744 163.091 139.44 161.411 140.679 160.172C141.918 158.933 143.598 158.237 145.35 158.237C147.102 158.237 148.782 158.933 150.021 160.172C151.26 161.411 151.956 163.091 151.956 164.843H161.394C161.394 163.091 162.09 161.411 163.329 160.172C164.568 158.933 166.248 158.237 168 158.237C169.752 158.237 171.432 158.933 172.671 160.172C173.91 161.411 174.606 163.091 174.606 164.843H184.044C184.044 163.091 184.74 161.411 185.979 160.172C187.218 158.933 188.898 158.237 190.65 158.237C192.402 158.237 194.082 158.933 195.321 160.172C196.56 161.411 197.256 163.091 197.256 164.843H206.694C206.694 163.091 207.39 161.411 208.629 160.172C209.868 158.933 211.548 158.237 213.3 158.237C215.052 158.237 216.732 158.933 217.971 160.172C219.21 161.411 219.906 163.091 219.906 164.843H229.344C229.344 163.091 230.04 161.411 231.279 160.172C232.518 158.933 234.198 158.237 235.95 158.237C237.702 158.237 239.382 158.933 240.621 160.172C241.86 161.411 242.556 163.091 242.556 164.843H251.994C251.994 163.091 252.69 161.411 253.929 160.172C255.168 158.933 256.848 158.237 258.6 158.237C260.352 158.237 262.032 158.933 263.271 160.172C264.51 161.411 265.206 163.091 265.206 164.843H274.644C274.644 163.091 275.34 161.411 276.579 160.172C277.818 158.933 279.498 158.237 281.25 158.237C283.002 158.237 284.682 158.933 285.921 160.172C287.16 161.411 287.856 163.091 287.856 164.843H297.294C297.294 163.091 297.99 161.411 299.229 160.172C300.468 158.933 302.148 158.237 303.9 158.237C305.652 158.237 307.332 158.933 308.571 160.172C309.81 161.411 310.506 163.091 310.506 164.843H319V17H310.506Z" fill="url(#paint0_linear_1505_104)"/>
<path d="M36.6857 55L34.7316 51.9366H34.719H33.1179V55H31.6934V46.0492H34.719C36.61 46.0492 37.8203 47.2594 37.8203 49.037C37.8203 50.3355 37.1647 51.2936 36.0679 51.7096L38.2111 55H36.6857ZM33.1179 50.6885H34.5551C35.6519 50.6885 36.3705 50.1842 36.3705 49.037C36.3705 47.8898 35.6519 47.3729 34.5551 47.3729H33.1179V50.6885ZM41.8977 55.1261C40.1201 55.1261 38.5064 53.9032 38.5064 51.7222C38.5064 49.5161 40.1327 48.3184 41.7968 48.3184C43.4609 48.3184 45.2763 49.5034 44.9611 52.2517H39.8175C40.0319 53.3863 40.9269 53.9662 42.0489 53.9662C42.7549 53.9662 43.3853 53.7393 43.8643 53.2855L44.5199 53.9662C43.9526 54.6722 43.0071 55.1261 41.8977 55.1261ZM39.8049 51.218H43.7256C43.65 50.0834 42.7423 49.5034 41.8094 49.5034C40.8891 49.5034 40.0066 50.0581 39.8049 51.218ZM46.426 47.8772C46.426 46.1122 47.6362 45.7845 48.4683 45.7845C48.8212 45.7845 49.2499 45.8475 49.565 46.0366V47.1334C49.2751 46.9947 48.9725 46.9695 48.8086 46.9695C48.1783 46.9695 47.8253 47.3099 47.8253 48.0411V48.4445H49.565V49.5665H47.8253V55H46.426V49.5665H45.6317V48.4445H46.426V47.8772ZM53.458 55.1261C51.6804 55.1261 50.0668 53.9032 50.0668 51.7222C50.0668 49.5161 51.693 48.3184 53.3571 48.3184C55.0212 48.3184 56.8366 49.5034 56.5214 52.2517H51.3779C51.5922 53.3863 52.4872 53.9662 53.6093 53.9662C54.3152 53.9662 54.9456 53.7393 55.4246 53.2855L56.0802 53.9662C55.5129 54.6722 54.5674 55.1261 53.458 55.1261ZM51.3652 51.218H55.286C55.2103 50.0834 54.3026 49.5034 53.3697 49.5034C52.4494 49.5034 51.567 50.0581 51.3652 51.218ZM57.6333 55V48.4445H59.02V50.1338C59.2469 49.1505 59.9025 48.3184 61.1001 48.3184C61.2514 48.3184 61.3775 48.331 61.5162 48.3688V49.6926C61.3775 49.6673 61.264 49.6547 61.1127 49.6547C59.8647 49.6547 59.02 50.5624 59.02 51.9366V55H57.6333ZM64.9708 55V48.4445H66.3575V50.1338C66.5845 49.1505 67.24 48.3184 68.4377 48.3184C68.5889 48.3184 68.715 48.331 68.8537 48.3688V49.6926C68.715 49.6673 68.6016 49.6547 68.4503 49.6547C67.2022 49.6547 66.3575 50.5624 66.3575 51.9366V55H64.9708ZM69.9076 55V48.4445H71.2944V55H69.9076ZM69.9076 47.2973V46.0492H71.2944V47.2973H69.9076ZM75.8546 57.6222C75.0351 57.6222 74.2913 57.4331 73.9384 57.1936V56.0464C74.2409 56.2481 74.8839 56.4498 75.6151 56.4498C76.8883 56.4498 77.8464 55.8699 77.8464 54.6344V53.9536H77.7708C77.5439 54.4705 76.7244 55.1261 75.5394 55.1261C74.0014 55.1261 72.3625 53.9789 72.3625 51.7222C72.3625 49.4656 74.0014 48.3184 75.5394 48.3184C76.7244 48.3184 77.5439 48.974 77.7708 49.4908H77.8464V48.4445H79.2332V54.5588C79.2332 56.9793 77.3548 57.6222 75.8546 57.6222ZM73.7366 51.7222C73.7366 53.1342 74.7578 53.8654 75.8042 53.8654C76.8631 53.8654 77.8843 53.1342 77.8843 51.7222C77.8843 50.3103 76.8631 49.5791 75.8042 49.5791C74.7578 49.5791 73.7366 50.3103 73.7366 51.7222ZM80.6185 55V46.0492H82.0052V49.4278C82.3582 48.8227 83.0516 48.3184 84.1105 48.3184C85.4595 48.3184 86.6193 49.1631 86.6193 51.1423V55H85.2199V51.3693C85.2199 50.222 84.5896 49.5791 83.6189 49.5791C82.6734 49.5791 82.0052 50.222 82.0052 51.3693V55H80.6185ZM90.115 55.0756C89.1191 55.0756 88.4131 54.584 88.4131 53.4115V49.5665H87.5054V48.4445H88.4131V46.7678H89.8124V48.4445H91.1361V49.5665H89.8124V53.1594C89.8124 53.5376 90.0141 53.8276 90.531 53.8276C90.6823 53.8276 90.8966 53.8024 91.1361 53.7141V54.8109C90.8966 55.0126 90.468 55.0756 90.115 55.0756ZM97.2063 55.0756C96.2104 55.0756 95.5044 54.584 95.5044 53.4115V49.5665H94.5967V48.4445H95.5044V46.7678H96.9037V48.4445H98.2275V49.5665H96.9037V53.1594C96.9037 53.5376 97.1055 53.8276 97.6223 53.8276C97.7736 53.8276 97.9879 53.8024 98.2275 53.7141V54.8109C97.9879 55.0126 97.5593 55.0756 97.2063 55.0756ZM102.409 55.1261C100.707 55.1261 98.9795 53.9284 98.9795 51.7222C98.9795 49.5161 100.707 48.3184 102.409 48.3184C104.11 48.3184 105.838 49.5161 105.838 51.7222C105.838 53.9284 104.11 55.1261 102.409 55.1261ZM100.354 51.7222C100.354 53.0712 101.337 53.8528 102.409 53.8528C103.48 53.8528 104.451 53.0712 104.451 51.7222C104.451 50.3733 103.48 49.5917 102.409 49.5917C101.337 49.5917 100.354 50.3733 100.354 51.7222ZM112.727 57.6222C111.907 57.6222 111.164 57.4331 110.811 57.1936V56.0464C111.113 56.2481 111.756 56.4498 112.487 56.4498C113.761 56.4498 114.719 55.8699 114.719 54.6344V53.9536H114.643C114.416 54.4705 113.597 55.1261 112.412 55.1261C110.874 55.1261 109.235 53.9789 109.235 51.7222C109.235 49.4656 110.874 48.3184 112.412 48.3184C113.597 48.3184 114.416 48.974 114.643 49.4908H114.719V48.4445H116.106V54.5588C116.106 56.9793 114.227 57.6222 112.727 57.6222ZM110.609 51.7222C110.609 53.1342 111.63 53.8654 112.676 53.8654C113.735 53.8654 114.757 53.1342 114.757 51.7222C114.757 50.3103 113.735 49.5791 112.676 49.5791C111.63 49.5791 110.609 50.3103 110.609 51.7222ZM120.567 55.1261C118.789 55.1261 117.176 53.9032 117.176 51.7222C117.176 49.5161 118.802 48.3184 120.466 48.3184C122.13 48.3184 123.945 49.5034 123.63 52.2517H118.487C118.701 53.3863 119.596 53.9662 120.718 53.9662C121.424 53.9662 122.054 53.7393 122.533 53.2855L123.189 53.9662C122.622 54.6722 121.676 55.1261 120.567 55.1261ZM118.474 51.218H122.395C122.319 50.0834 121.411 49.5034 120.479 49.5034C119.558 49.5034 118.676 50.0581 118.474 51.218ZM126.852 55.0756C125.856 55.0756 125.15 54.584 125.15 53.4115V49.5665H124.242V48.4445H125.15V46.7678H126.549V48.4445H127.873V49.5665H126.549V53.1594C126.549 53.5376 126.751 53.8276 127.268 53.8276C127.419 53.8276 127.634 53.8024 127.873 53.7141V54.8109C127.634 55.0126 127.205 55.0756 126.852 55.0756ZM131.649 55V48.4445H133.036V50.1338C133.262 49.1505 133.918 48.3184 135.116 48.3184C135.267 48.3184 135.393 48.331 135.532 48.3688V49.6926C135.393 49.6673 135.28 49.6547 135.128 49.6547C133.88 49.6547 133.036 50.5624 133.036 51.9366V55H131.649ZM139.477 55.1261C137.699 55.1261 136.086 53.9032 136.086 51.7222C136.086 49.5161 137.712 48.3184 139.376 48.3184C141.04 48.3184 142.856 49.5034 142.54 52.2517H137.397C137.611 53.3863 138.506 53.9662 139.628 53.9662C140.334 53.9662 140.965 53.7393 141.444 53.2855L142.099 53.9662C141.532 54.6722 140.586 55.1261 139.477 55.1261ZM137.384 51.218H141.305C141.229 50.0834 140.322 49.5034 139.389 49.5034C138.468 49.5034 137.586 50.0581 137.384 51.218ZM150.204 55L148.376 50.1464L146.548 55H145.263L142.829 48.4445H144.216L145.931 53.3107L147.733 48.4445H149.019L150.822 53.3107L152.524 48.4445H153.923L151.49 55H150.204ZM157.348 55.1261C155.797 55.1261 154.171 53.9789 154.171 51.7222C154.171 49.4656 155.797 48.3184 157.348 48.3184C158.546 48.3184 159.378 48.974 159.617 49.4908H159.655V48.4445H161.042V55H159.655V53.9536H159.617C159.378 54.4705 158.546 55.1261 157.348 55.1261ZM155.545 51.7222C155.545 53.1342 156.566 53.8654 157.613 53.8654C158.672 53.8654 159.693 53.1342 159.693 51.7222C159.693 50.3103 158.672 49.5791 157.613 49.5791C156.566 49.5791 155.545 50.3103 155.545 51.7222ZM162.427 55V48.4445H163.814V50.1338C164.041 49.1505 164.696 48.3184 165.894 48.3184C166.045 48.3184 166.171 48.331 166.31 48.3688V49.6926C166.171 49.6673 166.058 49.6547 165.906 49.6547C164.658 49.6547 163.814 50.5624 163.814 51.9366V55H162.427ZM173.735 55H172.348V53.9536H172.31C172.071 54.4705 171.239 55.1261 170.041 55.1261C168.49 55.1261 166.864 53.9789 166.864 51.7222C166.864 49.4656 168.49 48.3184 170.041 48.3184C171.239 48.3184 172.071 48.974 172.31 49.4908H172.348V46.0492H173.735V55ZM168.238 51.7222C168.238 53.1342 169.259 53.8654 170.306 53.8654C171.365 53.8654 172.386 53.1342 172.386 51.7222C172.386 50.3103 171.365 49.5791 170.306 49.5791C169.259 49.5791 168.238 50.3103 168.238 51.7222ZM178.196 55.1261C176.418 55.1261 174.805 53.9032 174.805 51.7222C174.805 49.5161 176.431 48.3184 178.095 48.3184C179.759 48.3184 181.575 49.5034 181.259 52.2517H176.116C176.33 53.3863 177.225 53.9662 178.347 53.9662C179.053 53.9662 179.684 53.7393 180.163 53.2855L180.818 53.9662C180.251 54.6722 179.305 55.1261 178.196 55.1261ZM176.103 51.218H180.024C179.948 50.0834 179.041 49.5034 178.108 49.5034C177.187 49.5034 176.305 50.0581 176.103 51.218ZM188.927 55H187.54V53.9536H187.502C187.263 54.4705 186.431 55.1261 185.233 55.1261C183.682 55.1261 182.056 53.9789 182.056 51.7222C182.056 49.4656 183.682 48.3184 185.233 48.3184C186.431 48.3184 187.263 48.974 187.502 49.4908H187.54V46.0492H188.927V55ZM183.43 51.7222C183.43 53.1342 184.451 53.8654 185.498 53.8654C186.557 53.8654 187.578 53.1342 187.578 51.7222C187.578 50.3103 186.557 49.5791 185.498 49.5791C184.451 49.5791 183.43 50.3103 183.43 51.7222Z" fill="white"/>
<path d="M31.649 80V72.19H35.851V73.048H32.595V75.666H35.565V76.48H32.595V80H31.649ZM39.3499 80.11C37.8649 80.11 36.3799 79.054 36.3799 77.14C36.3799 75.226 37.8649 74.17 39.3499 74.17C40.8349 74.17 42.3199 75.226 42.3199 77.14C42.3199 79.054 40.8349 80.11 39.3499 80.11ZM37.3039 77.14C37.3039 78.493 38.2939 79.263 39.3499 79.263C40.4059 79.263 41.3959 78.493 41.3959 77.14C41.3959 75.787 40.4059 75.017 39.3499 75.017C38.2939 75.017 37.3039 75.787 37.3039 77.14ZM43.3472 80V72.19H44.2712V80H43.3472ZM45.5709 80V72.19H46.4949V80H45.5709ZM50.4895 80.11C49.0045 80.11 47.5195 79.054 47.5195 77.14C47.5195 75.226 49.0045 74.17 50.4895 74.17C51.9745 74.17 53.4595 75.226 53.4595 77.14C53.4595 79.054 51.9745 80.11 50.4895 80.11ZM48.4435 77.14C48.4435 78.493 49.4335 79.263 50.4895 79.263C51.5455 79.263 52.5355 78.493 52.5355 77.14C52.5355 75.787 51.5455 75.017 50.4895 75.017C49.4335 75.017 48.4435 75.787 48.4435 77.14ZM60.3689 80L58.5759 75.402L56.7829 80H55.9249L53.7689 74.28H54.7039L56.3649 78.845L58.1359 74.28H59.0159L60.7869 78.845L62.4479 74.28H63.3829L61.2269 80H60.3689ZM68.418 80.066C67.659 80.066 67.142 79.692 67.142 78.834V75.039H66.372V74.28H67.142V72.817H68.066V74.28H69.199V75.039H68.066V78.658C68.066 79.01 68.242 79.23 68.671 79.23C68.803 79.23 68.979 79.208 69.188 79.131V79.868C68.99 80.022 68.682 80.066 68.418 80.066ZM70.2779 80V72.19H71.2019V75.215C71.4989 74.665 72.1259 74.17 73.1159 74.17C74.3149 74.17 75.3489 74.918 75.3489 76.634V80H74.4249V76.766C74.4249 75.611 73.7429 75.017 72.8299 75.017C71.9169 75.017 71.2019 75.611 71.2019 76.766V80H70.2779ZM79.31 80.11C77.77 80.11 76.373 79.043 76.373 77.14C76.373 75.215 77.781 74.17 79.222 74.17C80.674 74.17 82.192 75.215 81.961 77.481H77.253C77.396 78.68 78.309 79.318 79.409 79.318C80.08 79.318 80.696 79.076 81.114 78.625L81.576 79.098C81.059 79.736 80.234 80.11 79.31 80.11ZM77.253 76.777H81.147C81.081 75.6 80.19 74.973 79.233 74.973C78.287 74.973 77.396 75.578 77.253 76.777ZM87.0537 80.11C85.9867 80.11 85.2167 79.538 85.0407 78.559L85.8107 78.35C85.9647 78.955 86.4157 79.34 87.0537 79.34C87.5927 79.34 88.1317 79.076 88.1317 78.449C88.1317 77.976 87.8017 77.734 87.1417 77.459L86.6247 77.261C85.6787 76.876 85.2827 76.315 85.2827 75.666C85.2827 74.764 86.0637 74.17 87.0537 74.17C87.9667 74.17 88.6487 74.676 88.8467 75.446L88.1097 75.666C87.9337 75.193 87.5927 74.929 87.0867 74.929C86.5917 74.929 86.1957 75.193 86.1957 75.677C86.1957 76.04 86.4267 76.326 87.0207 76.568L87.4827 76.755C88.3847 77.107 89.0447 77.503 89.0447 78.449C89.0447 79.582 88.0877 80.11 87.0537 80.11ZM90.065 80V74.28H90.989V80H90.065ZM90.065 73.048V72.19H90.989V73.048H90.065ZM96.0726 80V76.7C96.0726 75.655 95.5996 75.017 94.6866 75.017C93.7626 75.017 93.2126 75.655 93.2126 76.7V80H92.2886V74.28H93.2126V75.171C93.4876 74.643 94.0486 74.17 94.9616 74.17C95.7646 74.17 96.4246 74.533 96.7656 75.325C97.0406 74.742 97.6566 74.17 98.7126 74.17C99.9006 74.17 100.781 74.929 100.781 76.634V80H99.8566V76.7C99.8566 75.655 99.3836 75.017 98.4706 75.017C97.5466 75.017 96.9966 75.655 96.9966 76.7V80H96.0726ZM102.075 82.09V74.28H102.999V75.358H103.032C103.307 74.753 104.11 74.17 105.177 74.17C106.563 74.17 107.982 75.182 107.982 77.14C107.982 79.098 106.563 80.11 105.177 80.11C104.11 80.11 103.307 79.527 103.032 78.922H102.999V82.09H102.075ZM102.966 77.14C102.966 78.548 103.989 79.263 105.023 79.263C106.035 79.263 107.058 78.559 107.058 77.14C107.058 75.721 106.035 75.017 105.023 75.017C103.989 75.017 102.966 75.732 102.966 77.14ZM109.003 80V72.19H109.927V80H109.003ZM113.889 80.11C112.349 80.11 110.952 79.043 110.952 77.14C110.952 75.215 112.36 74.17 113.801 74.17C115.253 74.17 116.771 75.215 116.54 77.481H111.832C111.975 78.68 112.888 79.318 113.988 79.318C114.659 79.318 115.275 79.076 115.693 78.625L116.155 79.098C115.638 79.736 114.813 80.11 113.889 80.11ZM111.832 76.777H115.726C115.66 75.6 114.769 74.973 113.812 74.973C112.866 74.973 111.975 75.578 111.832 76.777ZM121.633 80.11C120.566 80.11 119.796 79.538 119.62 78.559L120.39 78.35C120.544 78.955 120.995 79.34 121.633 79.34C122.172 79.34 122.711 79.076 122.711 78.449C122.711 77.976 122.381 77.734 121.721 77.459L121.204 77.261C120.258 76.876 119.862 76.315 119.862 75.666C119.862 74.764 120.643 74.17 121.633 74.17C122.546 74.17 123.228 74.676 123.426 75.446L122.689 75.666C122.513 75.193 122.172 74.929 121.666 74.929C121.171 74.929 120.775 75.193 120.775 75.677C120.775 76.04 121.006 76.326 121.6 76.568L122.062 76.755C122.964 77.107 123.624 77.503 123.624 78.449C123.624 79.582 122.667 80.11 121.633 80.11ZM126.308 80.066C125.549 80.066 125.032 79.692 125.032 78.834V75.039H124.262V74.28H125.032V72.817H125.956V74.28H127.089V75.039H125.956V78.658C125.956 79.01 126.132 79.23 126.561 79.23C126.693 79.23 126.869 79.208 127.078 79.131V79.868C126.88 80.022 126.572 80.066 126.308 80.066ZM130.776 80.11C129.236 80.11 127.839 79.043 127.839 77.14C127.839 75.215 129.247 74.17 130.688 74.17C132.14 74.17 133.658 75.215 133.427 77.481H128.719C128.862 78.68 129.775 79.318 130.875 79.318C131.546 79.318 132.162 79.076 132.58 78.625L133.042 79.098C132.525 79.736 131.7 80.11 130.776 80.11ZM128.719 76.777H132.613C132.547 75.6 131.656 74.973 130.699 74.973C129.753 74.973 128.862 75.578 128.719 76.777ZM134.377 82.09V74.28H135.301V75.358H135.334C135.609 74.753 136.412 74.17 137.479 74.17C138.865 74.17 140.284 75.182 140.284 77.14C140.284 79.098 138.865 80.11 137.479 80.11C136.412 80.11 135.609 79.527 135.334 78.922H135.301V82.09H134.377ZM135.268 77.14C135.268 78.548 136.291 79.263 137.325 79.263C138.337 79.263 139.36 78.559 139.36 77.14C139.36 75.721 138.337 75.017 137.325 75.017C136.291 75.017 135.268 75.732 135.268 77.14ZM142.827 80.11C141.76 80.11 140.99 79.538 140.814 78.559L141.584 78.35C141.738 78.955 142.189 79.34 142.827 79.34C143.366 79.34 143.905 79.076 143.905 78.449C143.905 77.976 143.575 77.734 142.915 77.459L142.398 77.261C141.452 76.876 141.056 76.315 141.056 75.666C141.056 74.764 141.837 74.17 142.827 74.17C143.74 74.17 144.422 74.676 144.62 75.446L143.883 75.666C143.707 75.193 143.366 74.929 142.86 74.929C142.365 74.929 141.969 75.193 141.969 75.677C141.969 76.04 142.2 76.326 142.794 76.568L143.256 76.755C144.158 77.107 144.818 77.503 144.818 78.449C144.818 79.582 143.861 80.11 142.827 80.11ZM149.962 80.066C149.203 80.066 148.686 79.692 148.686 78.834V75.039H147.916V74.28H148.686V72.817H149.61V74.28H150.743V75.039H149.61V78.658C149.61 79.01 149.786 79.23 150.215 79.23C150.347 79.23 150.523 79.208 150.732 79.131V79.868C150.534 80.022 150.226 80.066 149.962 80.066ZM154.463 80.11C152.978 80.11 151.493 79.054 151.493 77.14C151.493 75.226 152.978 74.17 154.463 74.17C155.948 74.17 157.433 75.226 157.433 77.14C157.433 79.054 155.948 80.11 154.463 80.11ZM152.417 77.14C152.417 78.493 153.407 79.263 154.463 79.263C155.519 79.263 156.509 78.493 156.509 77.14C156.509 75.787 155.519 75.017 154.463 75.017C153.407 75.017 152.417 75.787 152.417 77.14ZM31.649 97V91.28H32.573V92.699C32.782 91.874 33.354 91.17 34.41 91.17C34.542 91.17 34.652 91.181 34.74 91.214V92.083C34.641 92.061 34.553 92.05 34.421 92.05C33.354 92.05 32.573 92.853 32.573 94.129V97H31.649ZM38.2641 97.11C36.7241 97.11 35.3271 96.043 35.3271 94.14C35.3271 92.215 36.7351 91.17 38.1761 91.17C39.6281 91.17 41.1461 92.215 40.9151 94.481H36.2071C36.3501 95.68 37.2631 96.318 38.3631 96.318C39.0341 96.318 39.6501 96.076 40.0681 95.625L40.5301 96.098C40.0131 96.736 39.1881 97.11 38.2641 97.11ZM36.2071 93.777H40.1011C40.0351 92.6 39.1441 91.973 38.1871 91.973C37.2411 91.973 36.3501 92.578 36.2071 93.777ZM42.2472 90.653C42.2472 89.267 43.1822 88.97 43.8642 88.97C44.2052 88.97 44.5242 89.047 44.7552 89.19V89.927C44.5242 89.817 44.2602 89.773 44.0622 89.773C43.5342 89.773 43.1822 90.037 43.1822 90.763V91.28H44.7552V92.039H43.1822V97H42.2472V92.039H41.5872V91.28H42.2472V90.653ZM48.2221 97.11C46.6821 97.11 45.2851 96.043 45.2851 94.14C45.2851 92.215 46.6931 91.17 48.1341 91.17C49.5861 91.17 51.1041 92.215 50.8731 94.481H46.1651C46.3081 95.68 47.2211 96.318 48.3211 96.318C48.9921 96.318 49.6081 96.076 50.0261 95.625L50.4881 96.098C49.9711 96.736 49.1461 97.11 48.2221 97.11ZM46.1651 93.777H50.0591C49.9931 92.6 49.1021 91.973 48.1451 91.973C47.1991 91.973 46.3081 92.578 46.1651 93.777ZM51.9303 97V91.28H52.8543V92.699C53.0633 91.874 53.6353 91.17 54.6913 91.17C54.8233 91.17 54.9333 91.181 55.0213 91.214V92.083C54.9223 92.061 54.8343 92.05 54.7023 92.05C53.6353 92.05 52.8543 92.853 52.8543 94.129V97H51.9303ZM59.8652 97.11C58.7982 97.11 58.0282 96.538 57.8522 95.559L58.6222 95.35C58.7762 95.955 59.2272 96.34 59.8652 96.34C60.4042 96.34 60.9432 96.076 60.9432 95.449C60.9432 94.976 60.6132 94.734 59.9532 94.459L59.4362 94.261C58.4902 93.876 58.0942 93.315 58.0942 92.666C58.0942 91.764 58.8752 91.17 59.8652 91.17C60.7782 91.17 61.4602 91.676 61.6582 92.446L60.9212 92.666C60.7452 92.193 60.4042 91.929 59.8982 91.929C59.4032 91.929 59.0072 92.193 59.0072 92.677C59.0072 93.04 59.2382 93.326 59.8322 93.568L60.2942 93.755C61.1962 94.107 61.8562 94.503 61.8562 95.449C61.8562 96.582 60.8992 97.11 59.8652 97.11ZM65.5715 97.11C64.0865 97.11 62.6015 96.054 62.6015 94.14C62.6015 92.226 64.0865 91.17 65.5715 91.17C67.0565 91.17 68.5415 92.226 68.5415 94.14C68.5415 96.054 67.0565 97.11 65.5715 97.11ZM63.5255 94.14C63.5255 95.493 64.5155 96.263 65.5715 96.263C66.6275 96.263 67.6175 95.493 67.6175 94.14C67.6175 92.787 66.6275 92.017 65.5715 92.017C64.5155 92.017 63.5255 92.787 63.5255 94.14ZM73.3529 97V93.7C73.3529 92.655 72.8799 92.017 71.9669 92.017C71.0429 92.017 70.4929 92.655 70.4929 93.7V97H69.5689V91.28H70.4929V92.171C70.7679 91.643 71.3289 91.17 72.2419 91.17C73.0449 91.17 73.7049 91.533 74.0459 92.325C74.3209 91.742 74.9369 91.17 75.9929 91.17C77.1809 91.17 78.0609 91.929 78.0609 93.634V97H77.1369V93.7C77.1369 92.655 76.6639 92.017 75.7509 92.017C74.8269 92.017 74.2769 92.655 74.2769 93.7V97H73.3529ZM82.0171 97.11C80.4771 97.11 79.0801 96.043 79.0801 94.14C79.0801 92.215 80.4881 91.17 81.9291 91.17C83.3811 91.17 84.8991 92.215 84.6681 94.481H79.9601C80.1031 95.68 81.0161 96.318 82.1161 96.318C82.7871 96.318 83.4031 96.076 83.8211 95.625L84.2831 96.098C83.7661 96.736 82.9411 97.11 82.0171 97.11ZM79.9601 93.777H83.8541C83.7881 92.6 82.8971 91.973 81.9401 91.973C80.9941 91.973 80.1031 92.578 79.9601 93.777ZM88.4202 97.11C86.9352 97.11 85.4502 96.054 85.4502 94.14C85.4502 92.226 86.9352 91.17 88.4202 91.17C89.9052 91.17 91.3902 92.226 91.3902 94.14C91.3902 96.054 89.9052 97.11 88.4202 97.11ZM86.3742 94.14C86.3742 95.493 87.3642 96.263 88.4202 96.263C89.4762 96.263 90.4662 95.493 90.4662 94.14C90.4662 92.787 89.4762 92.017 88.4202 92.017C87.3642 92.017 86.3742 92.787 86.3742 94.14ZM92.4176 97V91.28H93.3416V92.215C93.6386 91.665 94.2656 91.17 95.2556 91.17C96.4546 91.17 97.4886 91.918 97.4886 93.634V97H96.5646V93.766C96.5646 92.611 95.8826 92.017 94.9696 92.017C94.0566 92.017 93.3416 92.611 93.3416 93.766V97H92.4176ZM101.45 97.11C99.9097 97.11 98.5127 96.043 98.5127 94.14C98.5127 92.215 99.9207 91.17 101.362 91.17C102.814 91.17 104.332 92.215 104.101 94.481H99.3927C99.5357 95.68 100.449 96.318 101.549 96.318C102.22 96.318 102.836 96.076 103.254 95.625L103.716 96.098C103.199 96.736 102.374 97.11 101.45 97.11ZM99.3927 93.777H103.287C103.221 92.6 102.33 91.973 101.373 91.973C100.427 91.973 99.5357 92.578 99.3927 93.777ZM105.144 97.11C104.825 97.11 104.583 96.868 104.583 96.549C104.583 96.23 104.825 95.999 105.144 95.999C105.463 95.999 105.694 96.23 105.694 96.549C105.694 96.868 105.463 97.11 105.144 97.11Z" fill="white"/>
<path d="M233.348 121.961C238.39 119.277 240.303 113.014 237.62 107.971C234.936 102.929 228.673 101.016 223.63 103.699C218.587 106.383 216.675 112.646 219.358 117.689C222.042 122.731 228.305 124.644 233.348 121.961Z" fill="#F0AA00"/>
<path d="M237.44 108.573C235.089 103.63 229.177 101.528 224.234 103.879C219.291 106.229 217.189 112.141 219.539 117.084C221.889 122.027 227.802 124.129 232.745 121.779C237.688 119.429 239.79 113.517 237.44 108.573Z" fill="#FFDD00"/>
<path d="M232.983 121.275C230.743 122.467 228.122 122.72 225.695 121.979C223.269 121.238 221.236 119.564 220.044 117.324C218.852 115.084 218.599 112.462 219.34 110.036C220.081 107.609 221.756 105.576 223.995 104.385C225.104 103.794 226.319 103.428 227.569 103.307C228.82 103.186 230.082 103.313 231.284 103.679C232.486 104.046 233.603 104.646 234.573 105.445C235.543 106.244 236.346 107.226 236.936 108.335C238.128 110.575 238.38 113.197 237.639 115.624C236.898 118.05 235.223 120.083 232.983 121.275Z" fill="#FFF391"/>
<path d="M232.258 119.913C230.379 120.913 228.179 121.125 226.143 120.504C224.107 119.882 222.402 118.477 221.402 116.598C220.401 114.718 220.189 112.519 220.811 110.483C221.432 108.447 222.838 106.741 224.717 105.741C226.596 104.741 228.796 104.529 230.832 105.15C232.868 105.772 234.573 107.177 235.573 109.056C236.573 110.936 236.786 113.135 236.164 115.171C235.542 117.207 234.137 118.913 232.258 119.913Z" fill="#D4860C"/>
<path d="M232.08 119.577C230.29 120.529 228.195 120.731 226.256 120.139C224.317 119.547 222.693 118.209 221.741 116.419C221.269 115.533 220.976 114.562 220.88 113.563C220.783 112.564 220.884 111.556 221.177 110.595C221.47 109.635 221.95 108.742 222.588 107.967C223.226 107.193 224.011 106.551 224.897 106.079C225.783 105.608 226.754 105.315 227.753 105.218C228.752 105.122 229.761 105.223 230.721 105.516C231.682 105.809 232.575 106.289 233.349 106.927C234.124 107.566 234.766 108.351 235.237 109.237C236.19 111.027 236.392 113.122 235.8 115.061C235.208 117 233.87 118.625 232.08 119.577Z" fill="#F0AA00"/>
<path d="M221.897 111.992C221.622 111.473 221.407 110.925 221.256 110.358C220.917 111.348 220.785 112.397 220.868 113.44C220.952 114.483 221.249 115.497 221.742 116.42C222.694 118.21 224.319 119.548 226.258 120.14C228.197 120.731 230.291 120.529 232.081 119.577C233.603 118.767 234.806 117.467 235.495 115.887C236.185 114.307 236.321 112.541 235.88 110.875C235.255 112.712 233.952 114.24 232.237 115.148C230.447 116.1 228.352 116.303 226.414 115.711C224.475 115.119 222.85 113.781 221.897 111.992Z" fill="#D97C11"/>
<path d="M233.844 113.701L232.673 111.501C232.516 112.138 232.121 112.691 231.569 113.046L232.339 114.492L231.603 114.884L230.833 113.438C229.261 114.104 227.73 113.534 226.764 111.859C226.124 113.533 225.224 115.461 224.307 117.392L223.626 116.112C224.455 114.336 225.218 112.681 226.023 110.644L226.936 110.159L227.326 110.892C228.095 112.338 229.166 112.752 230.231 112.306L228.615 109.269L229.351 108.877L230.947 111.876C231.702 111.235 231.753 110.302 231.136 109.143L230.632 108.195L231.588 107.687L234.574 113.299L233.844 113.701Z" fill="#EA9C00"/>
<path d="M233.932 113.413L232.762 111.215C232.604 111.851 232.209 112.404 231.658 112.76L232.427 114.206L231.691 114.598L230.922 113.151C229.35 113.817 227.818 113.246 226.851 111.571C226.212 113.245 225.312 115.173 224.393 117.104L223.712 115.824C224.543 114.048 225.305 112.394 226.11 110.358L227.019 109.875L227.409 110.608C228.178 112.054 229.248 112.468 230.314 112.02L228.698 108.983L229.434 108.591L231.034 111.598C231.788 110.957 231.838 110.023 231.221 108.863L230.718 107.918L231.675 107.408L234.661 113.019L233.932 113.413Z" fill="#FFF391"/>
<path d="M236.54 108.798L236.633 108.917C236.722 109.031 236.805 109.149 236.88 109.272C236.924 109.356 236.983 109.442 237.037 109.541C237.1 109.646 237.158 109.754 237.21 109.865C237.337 110.131 237.444 110.407 237.53 110.689C237.582 110.847 237.621 111.012 237.665 111.174C237.709 111.336 237.744 111.521 237.772 111.705C237.835 112.093 237.871 112.484 237.881 112.876C237.89 113.296 237.869 113.716 237.819 114.134C237.764 114.564 237.681 114.991 237.57 115.411C237.454 115.829 237.309 116.24 237.137 116.639C237.053 116.831 236.961 117.03 236.856 117.214L236.696 117.492L236.534 117.755C236.428 117.93 236.306 118.091 236.193 118.251C236.08 118.412 235.958 118.562 235.83 118.699C235.702 118.835 235.585 118.974 235.456 119.095L235.269 119.274L235.081 119.437C234.966 119.54 234.846 119.638 234.721 119.729C234.603 119.818 234.49 119.898 234.379 119.968C234.191 120.093 233.997 120.208 233.797 120.311C233.633 120.398 233.499 120.449 233.405 120.496L233.267 120.556L233.382 120.456C233.457 120.39 233.571 120.302 233.706 120.178C233.84 120.055 234.006 119.907 234.184 119.728C234.275 119.641 234.367 119.544 234.461 119.439L234.607 119.281L234.904 118.93L235.052 118.736C235.154 118.608 235.25 118.467 235.349 118.326C235.448 118.184 235.546 118.036 235.641 117.877C235.737 117.719 235.832 117.562 235.916 117.393C236.098 117.053 236.263 116.703 236.409 116.346C236.554 115.973 236.68 115.593 236.787 115.208C236.891 114.818 236.975 114.425 237.04 114.034C237.105 113.643 237.142 113.252 237.164 112.873C237.184 112.508 237.185 112.143 237.168 111.778C237.152 111.43 237.121 111.1 237.077 110.797C237.053 110.644 237.029 110.499 237.001 110.362C236.987 110.293 236.975 110.226 236.962 110.16C236.95 110.094 236.932 110.033 236.916 109.971C236.889 109.848 236.856 109.736 236.826 109.631C236.796 109.527 236.769 109.428 236.739 109.343C236.709 109.259 236.688 109.185 236.662 109.112C236.636 109.038 236.614 108.987 236.597 108.94L236.54 108.798Z" fill="white"/>
<path d="M222.335 119.081L222.433 119.174C222.493 119.24 222.592 119.323 222.71 119.429C222.828 119.535 222.99 119.651 223.168 119.777C223.372 119.915 223.582 120.042 223.799 120.158C224.053 120.295 224.314 120.418 224.581 120.528C224.864 120.646 225.17 120.751 225.494 120.85C225.817 120.948 226.146 121.028 226.491 121.098C226.836 121.169 227.184 121.219 227.538 121.254C227.893 121.288 228.246 121.311 228.596 121.309C228.771 121.314 228.946 121.308 229.115 121.301C229.284 121.295 229.458 121.286 229.624 121.267L229.872 121.244L230.113 121.214C230.275 121.197 230.429 121.166 230.585 121.148C230.889 121.096 231.176 121.031 231.439 120.965C231.703 120.899 231.945 120.831 232.16 120.767C232.374 120.703 232.556 120.63 232.711 120.579C233.019 120.46 233.192 120.398 233.192 120.398L233.088 120.485C233.019 120.538 232.921 120.625 232.787 120.721C232.652 120.817 232.489 120.937 232.287 121.048C232.065 121.183 231.836 121.305 231.6 121.414C231.318 121.541 231.029 121.652 230.734 121.745C230.574 121.794 230.414 121.842 230.248 121.879C230.082 121.915 229.906 121.957 229.728 121.989C229.362 122.054 228.991 122.092 228.62 122.103C228.235 122.117 227.851 122.105 227.468 122.067C227.085 122.026 226.706 121.961 226.331 121.872C225.97 121.782 225.615 121.669 225.269 121.532C224.945 121.403 224.631 121.251 224.329 121.078C224.059 120.923 223.801 120.747 223.558 120.551C223.352 120.388 223.159 120.209 222.981 120.016C222.845 119.867 222.72 119.708 222.608 119.541C222.535 119.435 222.47 119.324 222.413 119.209C222.358 119.123 222.335 119.081 222.335 119.081Z" fill="white"/>
<g clip-path="url(#clip0_1505_104)">
<path d="M304.916 160.965L314.432 164.42C314.432 164.42 318.001 163.864 320.265 159.075C322.468 154.423 320.83 150.816 320.83 150.816L312.214 146.056L312.01 146.475C312.01 146.475 313.069 150.096 311.104 154.32C308.818 159.232 305.108 160.567 305.108 160.567L304.916 160.965Z" fill="#FFC727"/>
<g opacity="0.5">
<path d="M304.916 160.965L314.432 164.42C314.432 164.42 318.001 163.864 320.265 159.075C322.468 154.423 320.83 150.816 320.83 150.816L312.214 146.056L312.01 146.475C312.01 146.475 313.069 150.096 311.104 154.32C308.818 159.232 305.108 160.567 305.108 160.567L304.916 160.965Z" fill="black"/>
</g>
<path opacity="0.1" d="M312.212 146.064C312.212 146.064 313.842 150.067 311.097 155.239C308.415 160.276 304.915 160.965 304.915 160.965L305.106 160.577C305.106 160.577 308.817 159.244 311.101 154.335C313.037 150.175 312.039 146.601 312.007 146.489L312.212 146.064Z" fill="black"/>
<path d="M273.303 107.091C273.303 107.091 280.73 122.522 294.018 133.435C302.126 140.096 308.186 143.381 308.81 143.704C308.81 143.704 312.449 146.457 309.444 154.002C305.828 161.275 301.349 160.4 301.349 160.4C300.692 160.15 294.201 157.826 283.825 156.227C266.834 153.606 250.382 158.367 250.382 158.367L250.354 158.291C253.621 157.692 258.097 152.979 262.362 145.876C262.643 145.419 262.908 144.951 263.178 144.475C264.857 141.521 266.368 138.474 267.704 135.348C269.142 132.27 270.404 129.112 271.483 125.89C271.66 125.37 271.825 124.857 271.983 124.349C274.435 116.435 274.957 109.954 273.225 107.12L273.303 107.091Z" fill="#FFC727"/>
<path d="M273.303 107.091C273.303 107.091 280.73 122.522 294.018 133.435C302.126 140.096 308.186 143.381 308.813 143.703C308.813 143.703 311.673 145.869 310.224 151.62C310.212 151.693 310.187 151.762 310.169 151.833C309.97 152.57 309.728 153.294 309.444 154.002C305.828 161.275 301.351 160.401 301.351 160.401C300.692 160.152 294.201 157.826 283.827 156.228C266.836 153.607 250.384 158.367 250.384 158.367L250.356 158.294C253.623 157.692 258.099 152.979 262.364 145.876C262.645 145.421 262.912 144.951 263.18 144.476C264.86 141.521 266.371 138.474 267.706 135.349C268.307 134.05 268.871 132.762 269.395 131.495C269.397 131.482 269.399 131.47 269.401 131.456C269.549 131.103 269.691 130.747 269.831 130.395C270.187 129.495 270.524 128.605 270.841 127.725C271.064 127.109 271.277 126.494 271.479 125.889C271.654 125.369 271.82 124.855 271.977 124.348C272.16 123.75 272.33 123.183 272.489 122.613C272.625 122.133 272.753 121.661 272.871 121.198C272.935 120.951 272.995 120.707 273.054 120.466C274.541 114.347 274.659 109.474 273.22 107.113L273.303 107.091Z" fill="#FFC727"/>
<path opacity="0.3" d="M274.484 117.875L274.738 117.999L274.736 118.015L271.009 127.457L275.754 118.986L276.454 119.306L273.379 127.629L277.207 120.461L278.243 120.925L274.513 131.503L278.859 123.888L280.222 124.523L277.407 132.262L280.921 125.939L282.482 126.64L280.07 133.622L282.608 129.635L284.229 130.392L282.954 134.465L285.355 130.843L286.991 131.676L285.063 136.865L288.199 132.234L289.812 132.971L288.139 139.171L290.612 135.621L292.12 136.377L290.393 141.429L292.947 138.119L294.345 138.836L293.783 140.689L295.207 138.526L296.556 139.171L295.31 142.932L296.901 141.322L298.076 142.063L297.644 143.226L298.487 142.172L299.645 142.774L298.877 145.426L300.882 142.716L301.929 143.219L301.358 145.271L302.851 143.269L303.8 143.73L302.673 147.731L304.469 144.848L305.235 145.132L304.641 148.619L305.715 147.186L306.339 147.495L305.712 149.63L307.145 147.583L307.611 147.764L306.988 151.846L309.715 148.696L309.946 148.793L309.511 152.412L310.225 151.618C310.213 151.691 310.187 151.76 310.17 151.831L309.472 152.646L309.36 152.597L309.646 149.193L306.839 152.637L306.484 152.478L306.961 148.791L305.128 151.554L304.567 151.292L305.15 149.164L304.308 150.318L303.635 150.031L304.085 147.115L301.71 151.094L300.839 150.718L302.035 146.206L300.459 148.364L299.459 147.879L299.962 146.027L297.8 149.029L296.677 148.48L297.475 145.618L296.051 147.423L294.863 146.756L295.613 144.669L294.158 146.156L292.949 145.421L293.365 144.122L292.108 146.059L290.705 145.403L291.552 142.573L288.645 146.395L287.212 145.625L288.537 141.68L286.694 144.387L285.122 143.663L286.705 137.714L282.312 144.24L280.689 143.407L282.518 138.472L280.925 140.865L279.291 140.085L280.459 136.366L277.513 140.975L275.916 140.201L277.651 135.251L273.866 141.966L272.392 141.286L275.801 132.107L271.994 138.62L270.783 138.058L274.599 127.597L270.889 134.368L270.006 133.964L273.983 123.592L269.408 131.507C269.41 131.495 269.412 131.483 269.414 131.468C269.562 131.116 269.704 130.76 269.844 130.408C270.2 129.507 270.537 128.617 270.853 127.738C271.077 127.121 271.289 126.507 271.492 125.901C271.667 125.381 271.833 124.868 271.99 124.36C272.173 123.762 272.343 123.196 272.502 122.625L273.637 119.919C273.392 120.34 273.14 120.77 272.884 121.21C272.948 120.963 273.008 120.72 273.067 120.478L274.484 117.875Z" fill="white"/>
<path d="M299.594 160.431L310.943 164.551C310.943 164.551 315.2 163.89 317.9 158.185C320.523 152.636 318.571 148.335 318.571 148.335L308.298 142.657L308.053 143.155C308.053 143.155 309.317 147.477 306.973 152.516C304.247 158.369 299.823 159.964 299.823 159.964L299.594 160.431Z" fill="#FFC727"/>
<g opacity="0.2">
<path d="M299.594 160.431L310.943 164.551C310.943 164.551 315.2 163.89 317.9 158.185C320.523 152.636 318.571 148.335 318.571 148.335L308.298 142.657L308.053 143.155C308.053 143.155 309.317 147.477 306.973 152.516C304.247 158.369 299.823 159.964 299.823 159.964L299.594 160.431Z" fill="black"/>
</g>
<path opacity="0.1" d="M308.297 142.659C308.297 142.659 310.241 147.433 306.975 153.604C303.788 159.611 299.602 160.432 299.602 160.432L299.831 159.965C299.831 159.965 304.265 158.37 306.981 152.518C309.289 147.556 308.1 143.288 308.06 143.161L308.297 142.659Z" fill="black"/>
<g opacity="0.2">
<path d="M317.049 149.111C317.115 149.121 317.182 149.11 317.241 149.079C317.3 149.048 317.348 148.999 317.377 148.939C317.413 148.866 317.418 148.781 317.391 148.703C317.364 148.625 317.308 148.562 317.234 148.526L314.727 147.308C314.69 147.29 314.65 147.279 314.61 147.277C314.569 147.274 314.528 147.28 314.49 147.293C314.451 147.306 314.416 147.327 314.385 147.354C314.355 147.381 314.33 147.414 314.313 147.451C314.277 147.525 314.272 147.61 314.299 147.688C314.326 147.765 314.382 147.829 314.456 147.865L316.963 149.083C316.99 149.097 317.019 149.106 317.049 149.111Z" fill="black"/>
<path d="M317.03 150.653C317.095 150.663 317.162 150.653 317.221 150.622C317.279 150.591 317.327 150.543 317.355 150.483C317.391 150.409 317.396 150.324 317.369 150.247C317.343 150.169 317.286 150.105 317.212 150.069L314.707 148.85C314.633 148.814 314.548 148.809 314.471 148.836C314.393 148.863 314.329 148.919 314.293 148.993C314.275 149.029 314.265 149.069 314.262 149.11C314.26 149.151 314.265 149.191 314.279 149.23C314.292 149.268 314.313 149.304 314.34 149.334C314.367 149.364 314.4 149.389 314.437 149.407L316.942 150.626C316.97 150.639 316.999 150.648 317.03 150.653Z" fill="black"/>
</g>
<g opacity="0.2">
<path d="M311.047 162.251C311.113 162.258 311.18 162.243 311.237 162.21C311.294 162.176 311.339 162.125 311.365 162.064C311.397 161.988 311.397 161.903 311.366 161.827C311.335 161.751 311.275 161.691 311.2 161.659L308.634 160.574C308.558 160.542 308.473 160.542 308.396 160.573C308.32 160.604 308.259 160.663 308.227 160.739C308.211 160.777 308.203 160.817 308.202 160.858C308.202 160.898 308.21 160.939 308.225 160.977C308.24 161.014 308.263 161.049 308.292 161.078C308.321 161.107 308.355 161.13 308.392 161.146L310.959 162.229C310.987 162.241 311.017 162.249 311.047 162.251Z" fill="black"/>
<path d="M309.807 163.239C309.873 163.246 309.94 163.232 309.997 163.198C310.055 163.164 310.1 163.113 310.126 163.052C310.142 163.014 310.15 162.974 310.15 162.933C310.151 162.892 310.143 162.852 310.128 162.814C310.112 162.776 310.089 162.742 310.061 162.713C310.032 162.684 309.998 162.661 309.96 162.645L307.394 161.562C307.356 161.546 307.316 161.538 307.275 161.537C307.234 161.537 307.194 161.545 307.156 161.56C307.118 161.575 307.084 161.598 307.055 161.627C307.026 161.655 307.003 161.69 306.987 161.727C306.971 161.765 306.963 161.805 306.963 161.845C306.962 161.886 306.97 161.926 306.986 161.964C307.001 162.002 307.024 162.036 307.052 162.065C307.081 162.094 307.115 162.116 307.153 162.132L309.719 163.217C309.748 163.227 309.777 163.235 309.807 163.239Z" fill="black"/>
</g>
<path opacity="0.1" d="M250.358 158.292L250.386 158.365C250.386 158.365 266.838 153.607 283.829 156.228C291.758 157.451 297.419 159.096 299.939 159.915L299.823 159.962L299.594 160.431L310.941 164.551C310.941 164.551 315.2 163.89 317.898 158.185C320.523 152.636 318.571 148.335 318.571 148.335C318.493 150.549 315.054 154.873 311.367 154.055C308.592 153.441 308.226 148.365 308.226 148.365C308.226 148.365 297.839 155.599 279.607 149.49C273.567 147.468 267.337 142.314 266.308 138.459C265.301 140.598 264.255 142.604 263.186 144.475C262.916 144.952 262.645 145.419 262.37 145.877C258.106 152.978 253.625 157.693 250.358 158.292Z" fill="black"/>
<path d="M273.31 106.939C272.998 106.408 272.539 105.979 271.989 105.703C267.536 103.563 258.346 113.468 251.46 127.818C244.574 142.169 242.603 155.544 247.051 157.676C247.141 157.718 247.221 157.752 247.312 157.787C247.338 157.799 247.367 157.807 247.396 157.811C249.082 158.365 251.364 157.384 253.9 155.226C257.393 152.254 261.375 147.059 265.012 140.556C265.892 138.963 266.766 137.294 267.6 135.558C268.854 132.926 269.961 130.33 270.879 127.828C274.38 118.318 275.363 110.2 273.31 106.939Z" fill="#FFC727"/>
<path opacity="0.6" d="M273.31 106.939C272.998 106.408 272.539 105.979 271.989 105.703C267.536 103.563 258.346 113.468 251.46 127.818C244.574 142.169 242.603 155.544 247.051 157.676C247.141 157.718 247.221 157.752 247.312 157.787C247.338 157.799 247.367 157.807 247.396 157.811C249.082 158.365 251.364 157.384 253.9 155.226C257.393 152.254 261.375 147.059 265.012 140.556C265.892 138.963 266.766 137.294 267.6 135.558C268.854 132.926 269.961 130.33 270.879 127.828C274.38 118.318 275.363 110.2 273.31 106.939Z" fill="black"/>
<path opacity="0.2" d="M246.972 139.071L267.964 134.748C267.84 135.019 267.714 135.287 267.583 135.555C266.749 137.294 265.887 138.96 264.995 140.554C261.369 147.058 257.385 152.253 253.884 155.223C251.346 157.381 249.064 158.362 247.379 157.81C247.35 157.804 247.322 157.796 247.295 157.784C247.206 157.749 247.122 157.715 247.035 157.674C243.809 156.122 243.977 148.594 246.972 139.071Z" fill="black"/>
<g opacity="0.1">
<path d="M250.692 129.461L267.963 134.75L253.209 124.355C252.613 125.477 252.026 126.633 251.456 127.822C251.198 128.371 250.942 128.917 250.692 129.461Z" fill="white"/>
<path d="M255.001 121.161L267.964 134.748L256.272 119.059C255.848 119.74 255.421 120.441 255.001 121.161Z" fill="white"/>
</g>
<path d="M270.445 128.94C269.38 127.749 267.965 126.926 266.403 126.589C265.425 126.375 264.414 126.356 263.428 126.533C262.442 126.71 261.5 127.079 260.657 127.62C259.814 128.161 259.086 128.863 258.514 129.685C257.942 130.508 257.538 131.434 257.325 132.413C256.896 134.39 257.27 136.457 258.363 138.159C259.456 139.861 261.18 141.06 263.156 141.493C263.622 141.595 264.097 141.653 264.574 141.666C265.466 140.077 266.329 138.406 267.163 136.669C268.424 134.035 269.535 131.444 270.445 128.94Z" fill="#FFC727"/>
<path d="M271.587 104.336C268.993 103.772 265.628 105.633 261.779 109.781C257.824 114.042 253.787 120.267 250.405 127.312C247.023 134.357 244.697 141.404 243.848 147.158C242.92 153.439 243.854 157.442 246.544 158.733C246.655 158.784 246.755 158.825 246.862 158.867C246.934 158.898 247.008 158.922 247.084 158.94C249.149 159.599 251.697 158.628 254.659 156.118C258.349 152.975 262.385 147.65 266.031 141.126C266.921 139.535 267.809 137.832 268.652 136.063C269.932 133.392 271.049 130.758 271.975 128.23C275.708 118.122 276.581 109.928 274.31 106.316C273.881 105.598 273.255 105.019 272.506 104.648C272.213 104.508 271.905 104.404 271.587 104.336ZM247.692 156.679L247.551 156.619C245.98 155.865 245.444 152.37 246.164 147.501C246.98 141.972 249.235 135.162 252.516 128.325C255.798 121.488 259.697 115.46 263.495 111.373C266.84 107.767 269.896 105.993 271.48 106.759C271.83 106.938 272.121 107.215 272.315 107.557C273.817 109.942 273.608 117.006 269.765 127.416C268.862 129.876 267.773 132.441 266.526 135.054C265.7 136.777 264.84 138.437 263.973 139.988C260.517 146.187 256.566 151.418 253.133 154.341C250.907 156.234 248.947 157.087 247.753 156.705L247.692 156.679Z" fill="#FFC727"/>
<path opacity="0.2" d="M271.587 104.336C268.993 103.772 265.628 105.633 261.779 109.781C257.824 114.042 253.787 120.267 250.405 127.312C247.023 134.357 244.697 141.404 243.848 147.158C242.92 153.439 243.854 157.442 246.544 158.733C246.655 158.784 246.755 158.825 246.862 158.867C246.934 158.898 247.008 158.922 247.084 158.94C249.149 159.599 251.697 158.628 254.659 156.118C258.349 152.975 262.385 147.65 266.031 141.126C266.921 139.535 267.809 137.832 268.652 136.063C269.932 133.392 271.049 130.758 271.975 128.23C275.708 118.122 276.581 109.928 274.31 106.316C273.881 105.598 273.255 105.019 272.506 104.648C272.213 104.508 271.905 104.404 271.587 104.336ZM247.692 156.679L247.551 156.619C245.98 155.865 245.444 152.37 246.164 147.501C246.98 141.972 249.235 135.162 252.516 128.325C255.798 121.488 259.697 115.46 263.495 111.373C266.84 107.767 269.896 105.993 271.48 106.759C271.83 106.938 272.121 107.215 272.315 107.557C273.817 109.942 273.608 117.006 269.765 127.416C268.862 129.876 267.773 132.441 266.526 135.054C265.7 136.777 264.84 138.437 263.973 139.988C260.517 146.187 256.566 151.418 253.133 154.341C250.907 156.234 248.947 157.087 247.753 156.705L247.692 156.679Z" fill="black"/>
</g>
<path d="M196.836 69.5552C196.801 69.5848 196.765 69.6143 196.73 69.6439L195.558 70.629L195.739 70.8447C194.086 73.5892 194.813 77.9527 197.734 81.4296C200.655 84.9065 204.829 86.3727 207.814 85.2148L207.995 85.4305L209.168 84.4455C209.203 84.4159 209.238 84.3864 209.274 84.3568C212.205 81.8941 211.807 76.5744 208.372 72.4854C204.937 68.3963 199.773 67.0876 196.836 69.5552Z" fill="#D4860C"/>
<path d="M198.904 68.498L195.437 71.4099C195.348 71.6043 195.27 71.8036 195.203 72.0069L199.523 68.3779C199.315 68.4064 199.108 68.4465 198.904 68.498Z" fill="#96500A"/>
<path d="M194.894 73.6563L201.211 68.3497C201.065 68.3348 200.918 68.3242 200.773 68.3181L194.939 73.2188C194.92 73.3628 194.906 73.5084 194.894 73.6563Z" fill="#96500A"/>
<path d="M194.911 75.0241L202.555 68.6034C202.433 68.57 202.31 68.5387 202.188 68.5117L194.884 74.6467C194.891 74.7712 194.899 74.8981 194.911 75.0241Z" fill="#96500A"/>
<path d="M195.102 76.244L203.722 69.0027C203.615 68.9587 203.507 68.9155 203.398 68.8746L195.032 75.9031C195.053 76.0169 195.077 76.131 195.102 76.244Z" fill="#96500A"/>
<path d="M195.417 77.3617L204.771 69.5037C204.674 69.4496 204.576 69.3998 204.478 69.35L195.315 77.0473C195.347 77.1523 195.381 77.2575 195.417 77.3617Z" fill="#96500A"/>
<path d="M195.825 78.4005L205.721 70.0875C205.633 70.0276 205.545 69.9678 205.455 69.9111L195.699 78.1069C195.739 78.2049 195.781 78.302 195.825 78.4005Z" fill="#96500A"/>
<path d="M196.313 79.3712L206.593 70.735L206.348 70.5409L196.16 79.0992L196.313 79.3712Z" fill="#96500A"/>
<path d="M196.875 80.281L207.395 71.4439L207.169 71.234L196.705 80.0238C196.755 80.1042 196.817 80.1955 196.875 80.281Z" fill="#96500A"/>
<path d="M197.501 81.1376L208.128 72.2099L207.922 71.9832L197.313 80.8952L197.501 81.1376Z" fill="#96500A"/>
<path d="M198.191 81.9378L208.799 73.0269L208.611 72.7845L197.983 81.7122C198.052 81.7888 198.121 81.8644 198.191 81.9378Z" fill="#96500A"/>
<path d="M198.943 82.6881L209.407 73.8982C209.351 73.813 209.296 73.7255 209.238 73.6401L198.719 82.4762L198.943 82.6881Z" fill="#96500A"/>
<path d="M199.758 83.3817L209.941 74.8274C209.892 74.735 209.843 74.6438 209.791 74.5534L199.517 83.1837L199.758 83.3817Z" fill="#96500A"/>
<path d="M200.659 84.009L210.413 75.8152C210.373 75.7171 210.329 75.6198 210.285 75.5225L200.391 83.8336C200.481 83.8946 200.569 83.9523 200.659 84.009Z" fill="#96500A"/>
<path d="M201.636 84.5701L210.797 76.8747C210.765 76.7697 210.733 76.6647 210.696 76.5594L201.344 84.4153C201.441 84.4683 201.538 84.5203 201.636 84.5701Z" fill="#96500A"/>
<path d="M202.716 85.0455L211.079 78.0199C211.057 77.9061 211.034 77.792 211.009 77.679L202.391 84.9183C202.498 84.9624 202.606 85.0055 202.716 85.0455Z" fill="#96500A"/>
<path d="M203.928 85.4074L211.226 79.2763C211.221 79.1508 211.213 79.023 211.2 78.8979L203.559 85.3167C203.683 85.3491 203.806 85.3816 203.928 85.4074Z" fill="#96500A"/>
<path d="M205.344 85.6L211.172 80.7042C211.191 80.5602 211.207 80.4127 211.217 80.2658L204.906 85.5674C205.053 85.5823 205.198 85.5939 205.344 85.6Z" fill="#96500A"/>
<path d="M207.21 85.4123L210.665 82.5102C210.753 82.3165 210.831 82.1178 210.897 81.9152L206.585 85.5373C206.796 85.5077 207.004 85.466 207.21 85.4123Z" fill="#96500A"/>
<path d="M207.096 73.5593C210.544 77.6636 210.965 83.0016 208.028 85.4692C205.09 87.9368 199.911 86.605 196.459 82.4949C193.006 78.3848 192.588 73.0536 195.525 70.5859C198.463 68.1183 203.643 69.4492 207.096 73.5593Z" fill="#F0AA00"/>
<path d="M206.868 73.7504C210.176 77.6882 210.577 82.7982 207.762 85.1624C204.948 87.5266 199.984 86.2504 196.676 82.3127C193.368 78.3749 192.972 73.2609 195.786 70.8967C198.601 68.5325 203.559 69.8115 206.868 73.7504Z" fill="#FFDD00"/>
<path d="M206.696 73.8952C203.502 70.0936 198.711 68.8619 195.994 71.1441C193.277 73.4264 193.664 78.3583 196.857 82.16C200.051 85.9616 204.842 87.1933 207.559 84.911C210.276 82.6288 209.889 77.6968 206.696 73.8952Z" fill="#FFF391"/>
<path d="M205.902 74.5621C208.58 77.7505 208.905 81.8866 206.626 83.8005C204.348 85.7145 200.334 84.6862 197.651 81.4931C194.969 78.3 194.649 74.1686 196.927 72.2546C199.206 70.3406 203.224 71.3737 205.902 74.5621Z" fill="#D4860C"/>
<path d="M205.709 74.7246C208.261 77.763 208.571 81.7032 206.398 83.5285C204.225 85.3538 200.398 84.3679 197.846 81.3296C195.294 78.2912 194.984 74.351 197.156 72.5267C199.327 70.7023 203.156 71.6863 205.709 74.7246Z" fill="#F0AA00"/>
<path d="M196.668 77.6107C196.315 77.1907 195.998 76.7425 195.718 76.2704C195.793 77.9118 196.515 79.7453 197.846 81.3296C200.398 84.3679 204.226 85.3529 206.398 83.5285C208.261 81.9632 208.296 78.84 206.657 76.0659C206.728 77.5786 206.258 78.9357 205.219 79.8084C203.048 81.6318 199.219 80.6478 196.668 77.6107Z" fill="#D97C11"/>
<path d="M200.815 73.5372L199.568 74.5843C200.013 74.6806 200.493 74.9517 200.985 75.4804L201.78 74.8125L202.252 75.4405L201.479 76.0896C202.402 77.4004 202.495 78.652 201.683 79.4163C203.195 80.0411 204.667 80.7594 206.09 81.5669L205.529 82.0377C204.096 81.2751 202.622 80.5942 201.112 79.9982L200.453 79.2833L200.829 78.9681C201.566 78.3484 201.513 77.4731 200.874 76.5979L199.236 77.9741L198.704 77.3963L200.346 76.0172C199.663 75.4046 198.972 75.3913 198.316 75.9419L197.781 76.3921L197.09 75.6418L200.343 72.9092L200.815 73.5372Z" fill="#EA9C00"/>
<path d="M200.587 73.4663L199.33 74.5223C199.778 74.6178 200.259 74.8879 200.754 75.4146L201.552 74.7438L202.026 75.3676L201.25 76.0198C202.178 77.3287 202.271 78.5804 201.45 79.3525C202.968 79.9712 204.447 80.6835 205.877 81.4853L205.313 81.9592C203.874 81.2011 202.392 80.5257 200.876 79.9363L200.215 79.2234L200.596 78.9033C201.337 78.2807 201.283 77.4042 200.641 76.531L199 77.9101L198.468 77.3345L200.116 75.9505C199.431 75.3398 198.736 75.3294 198.077 75.883L197.539 76.3352L196.846 75.5869L200.114 72.8415L200.587 73.4663Z" fill="#FFF391"/>
<path d="M196.451 71.4545C197.032 70.7181 197.989 70.349 198.9 70.2271C200.766 69.9839 202.685 70.6138 204.18 71.7123C204.927 72.2533 205.572 72.9221 206.086 73.6878C204.731 72.5515 203.207 71.5798 201.503 71.0893C199.855 70.621 197.937 70.4619 196.446 71.4584L196.451 71.4545Z" fill="white"/>
<path d="M199.061 83.5331C201.433 85.1666 204.948 85.9222 207.444 84.1575C205.474 86.8125 200.858 85.9895 199.061 83.5331Z" fill="white"/>
<path d="M186.103 116.447C186.116 116.409 186.129 116.371 186.142 116.332L186.571 115.053L186.806 115.132C188.522 112.892 192.334 112.08 196.126 113.352C199.919 114.625 202.467 117.573 202.482 120.394L202.717 120.473L202.288 121.752C202.275 121.79 202.262 121.829 202.249 121.867C201.176 125.065 196.687 126.455 192.227 124.958C187.767 123.462 185.028 119.652 186.103 116.447Z" fill="#D4860C"/>
<path d="M185.904 118.484L187.172 114.703C187.303 114.567 187.441 114.438 187.586 114.318L186.005 119.03C185.961 118.85 185.927 118.668 185.904 118.484Z" fill="#96500A"/>
<path d="M188.838 113.533L186.527 120.423C186.467 120.308 186.411 120.191 186.359 120.074L188.494 113.711C188.606 113.648 188.721 113.59 188.838 113.533Z" fill="#96500A"/>
<path d="M189.965 113.105L187.168 121.442C187.101 121.353 187.036 121.263 186.974 121.171L189.647 113.205C189.751 113.17 189.858 113.136 189.965 113.105Z" fill="#96500A"/>
<path d="M191.026 112.868L187.872 122.271C187.801 122.197 187.731 122.122 187.663 122.047L190.724 112.92C190.825 112.901 190.926 112.884 191.026 112.868Z" fill="#96500A"/>
<path d="M192.044 112.766L188.621 122.969C188.545 122.906 188.473 122.842 188.401 122.778L191.754 112.783C191.85 112.776 191.947 112.77 192.044 112.766Z" fill="#96500A"/>
<path d="M193.028 112.765L189.406 123.559C189.329 123.506 189.251 123.453 189.176 123.398L192.746 112.756C192.839 112.758 192.932 112.76 193.028 112.765Z" fill="#96500A"/>
<path d="M193.98 112.852L190.219 124.065L189.98 123.927L193.708 112.814L193.98 112.852Z" fill="#96500A"/>
<path d="M194.908 113.019L191.058 124.494L190.813 124.376L194.642 112.963C194.724 112.977 194.819 112.999 194.908 113.019Z" fill="#96500A"/>
<path d="M195.812 113.255L191.923 124.848L191.67 124.752L195.552 113.18L195.812 113.255Z" fill="#96500A"/>
<path d="M196.69 113.563L192.809 125.133L192.549 125.058L196.438 113.466C196.523 113.497 196.608 113.53 196.69 113.563Z" fill="#96500A"/>
<path d="M197.548 113.937L193.719 125.351C193.631 125.333 193.542 125.315 193.453 125.296L197.302 113.822L197.548 113.937Z" fill="#96500A"/>
<path d="M198.38 114.382L194.653 125.489C194.562 125.478 194.471 125.468 194.38 125.454L198.14 114.248L198.38 114.382Z" fill="#96500A"/>
<path d="M199.184 114.918L195.615 125.557C195.522 125.556 195.428 125.551 195.334 125.547L198.954 114.755C199.033 114.809 199.109 114.862 199.184 114.918Z" fill="#96500A"/>
<path d="M199.96 115.538L196.608 125.53C196.511 125.537 196.415 125.545 196.317 125.549L199.739 115.348C199.813 115.41 199.887 115.474 199.96 115.538Z" fill="#96500A"/>
<path d="M200.698 116.269L197.637 125.391C197.537 125.41 197.436 125.428 197.335 125.444L200.489 116.044C200.559 116.117 200.63 116.192 200.698 116.269Z" fill="#96500A"/>
<path d="M201.385 117.146L198.715 125.107C198.61 125.143 198.503 125.178 198.396 125.208L201.192 116.873C201.259 116.964 201.325 117.055 201.385 117.146Z" fill="#96500A"/>
<path d="M202 118.244L199.868 124.601C199.756 124.663 199.64 124.724 199.523 124.78L201.832 117.896C201.892 118.012 201.948 118.127 202 118.244Z" fill="#96500A"/>
<path d="M202.448 119.835L201.184 123.603C201.054 123.738 200.916 123.866 200.771 123.985L202.349 119.282C202.393 119.464 202.426 119.649 202.448 119.835Z" fill="#96500A"/>
<path d="M192.696 123.566C197.172 125.068 201.684 123.691 202.759 120.487C203.834 117.283 201.071 113.467 196.588 111.963C192.105 110.459 187.6 111.837 186.525 115.041C185.45 118.245 188.213 122.062 192.696 123.566Z" fill="#F0AA00"/>
<path d="M192.779 123.318C197.074 124.759 201.392 123.438 202.422 120.368C203.452 117.298 200.804 113.641 196.509 112.2C192.214 110.759 187.894 112.085 186.864 115.155C185.834 118.224 188.483 121.876 192.779 123.318Z" fill="#FFDD00"/>
<path d="M192.842 123.13C188.695 121.738 186.14 118.208 187.134 115.245C188.128 112.282 192.296 111.007 196.442 112.398C200.589 113.789 203.144 117.319 202.15 120.283C201.156 123.246 196.989 124.521 192.842 123.13Z" fill="#FFF391"/>
<path d="M193.133 122.264C196.61 123.43 200.105 122.362 200.939 119.876C201.773 117.391 199.635 114.433 196.152 113.264C192.669 112.096 189.179 113.166 188.345 115.651C187.511 118.137 189.655 121.097 193.133 122.264Z" fill="#D4860C"/>
<path d="M193.203 122.053C196.517 123.164 199.847 122.147 200.642 119.777C201.437 117.407 199.395 114.588 196.08 113.476C192.766 112.365 189.437 113.382 188.642 115.751C187.847 118.12 189.889 120.941 193.203 122.053Z" fill="#F0AA00"/>
<path d="M192.652 113.711C192.194 113.557 191.724 113.441 191.247 113.365C192.616 112.896 194.352 112.897 196.08 113.476C199.395 114.588 201.437 117.408 200.642 119.777C199.96 121.809 197.411 122.845 194.609 122.398C195.872 121.967 196.832 121.144 197.212 120.011C198.007 117.643 195.965 114.822 192.652 113.711Z" fill="#D97C11"/>
<path d="M190.651 118.424L191.107 117.065C191.33 117.398 191.707 117.704 192.299 117.937L192.008 118.804L192.675 118.988L192.957 118.145C194.33 118.479 195.386 118.151 195.75 117.239C196.75 118.277 197.814 119.252 198.935 120.158L199.14 119.546C198.053 118.618 197.019 117.628 196.043 116.583L195.244 116.274L195.107 116.683C194.837 117.488 194.102 117.727 193.179 117.485L193.778 115.698L193.133 115.449L192.533 117.24C191.81 116.878 191.576 116.316 191.816 115.601L192.012 115.016L191.174 114.692L189.984 118.24L190.651 118.424Z" fill="#EA9C00"/>
<path d="M190.519 118.261L190.979 116.889C191.202 117.226 191.579 117.533 192.17 117.769L191.878 118.64L192.542 118.827L192.826 117.98C194.199 118.318 195.255 117.991 195.623 117.068C196.62 118.113 197.681 119.096 198.8 120.01L199.006 119.394C197.92 118.459 196.888 117.462 195.916 116.41L195.118 116.098L194.979 116.514C194.708 117.322 193.972 117.56 193.049 117.316L193.65 115.526L193.007 115.276L192.404 117.073C191.682 116.708 191.449 116.142 191.69 115.423L191.887 114.836L191.051 114.51L189.855 118.075L190.519 118.261Z" fill="#FFF391"/>
<path d="M187.536 115.519C187.12 116.234 187.126 117.136 187.32 117.923C187.723 119.531 188.858 120.901 190.241 121.772C190.925 122.209 191.682 122.522 192.475 122.696C191.107 121.953 189.818 121.017 188.866 119.778C187.951 118.579 187.202 117.058 187.537 115.514L187.536 115.519Z" fill="white"/>
<path d="M198.279 113.761C200.383 115.179 202.137 117.816 201.496 120.432C203.036 117.96 200.872 114.442 198.279 113.761Z" fill="white"/>
<defs>
<filter id="filter0_dd_1505_104" x="0" y="0" width="336" height="182" filterUnits="userSpaceOnUse" color-interpolation-filters="sRGB">
<feFlood flood-opacity="0" result="BackgroundImageFix"/>
<feColorMatrix in="SourceAlpha" type="matrix" values="0 0 0 0 0 0 0 0 0 0 0 0 0 0 0 0 0 0 127 0" result="hardAlpha"/>
<feOffset dx="2" dy="2"/>
<feGaussianBlur stdDeviation="3"/>
<feComposite in2="hardAlpha" operator="out"/>
<feColorMatrix type="matrix" values="0 0 0 0 0.658824 0 0 0 0 0.0509804 0 0 0 0 0.109804 0 0 0 0.5 0"/>
<feBlend mode="normal" in2="BackgroundImageFix" result="effect1_dropShadow_1505_104"/>
<feColorMatrix in="SourceAlpha" type="matrix" values="0 0 0 0 0 0 0 0 0 0 0 0 0 0 0 0 0 0 127 0" result="hardAlpha"/>
<feOffset dx="-2" dy="-2"/>
<feGaussianBlur stdDeviation="3"/>
<feComposite in2="hardAlpha" operator="out"/>
<feColorMatrix type="matrix" values="0 0 0 0 0.658824 0 0 0 0 0.0509804 0 0 0 0 0.109804 0 0 0 0.5 0"/>
<feBlend mode="normal" in2="effect1_dropShadow_1505_104" result="effect2_dropShadow_1505_104"/>
<feBlend mode="normal" in="SourceGraphic" in2="effect2_dropShadow_1505_104" result="shape"/>
</filter>
<linearGradient id="paint0_linear_1505_104" x1="530.82" y1="-184.092" x2="-11.4028" y2="-237.605" gradientUnits="userSpaceOnUse">
<stop stop-color="#DB4252"/>
<stop offset="0.572917" stop-color="#B83846"/>
<stop offset="1" stop-color="#F8384B"/>
</linearGradient>
<clipPath id="clip0_1505_104">
<rect width="77.8364" height="57.8287" fill="white" transform="matrix(-0.987605 -0.156961 -0.156961 0.987605 328.04 113.3)"/>
</clipPath>
</defs>
</svg>
