<svg width="336" height="220" viewBox="0 0 336 220" fill="none" xmlns="http://www.w3.org/2000/svg">
<g filter="url(#filter0_dd_1505_108)">
<path d="M319 8C319 9.85652 318.262 11.637 316.95 12.9498C315.637 14.2625 313.857 15 312 15C310.143 15 308.363 14.2625 307.05 12.9498C305.738 11.637 305 9.85652 305 8H295C295 9.85652 294.262 11.637 292.95 12.9498C291.637 14.2625 289.857 15 288 15C286.143 15 284.363 14.2625 283.05 12.9498C281.738 11.637 281 9.85652 281 8H271C271 9.85652 270.262 11.637 268.95 12.9498C267.637 14.2625 265.857 15 264 15C262.143 15 260.363 14.2625 259.05 12.9498C257.738 11.637 257 9.85652 257 8H247C247 9.85652 246.262 11.637 244.95 12.9498C243.637 14.2625 241.857 15 240 15C238.143 15 236.363 14.2625 235.05 12.9498C233.738 11.637 233 9.85652 233 8H223C223 9.85652 222.262 11.637 220.95 12.9498C219.637 14.2625 217.857 15 216 15C214.143 15 212.363 14.2625 211.05 12.9498C209.738 11.637 209 9.85652 209 8H199C199 9.85652 198.262 11.637 196.95 12.9498C195.637 14.2625 193.857 15 192 15C190.143 15 188.363 14.2625 187.05 12.9498C185.738 11.637 185 9.85652 185 8H175C175 9.85652 174.262 11.637 172.95 12.9498C171.637 14.2625 169.857 15 168 15C166.143 15 164.363 14.2625 163.05 12.9498C161.738 11.637 161 9.85652 161 8H151C151 9.85652 150.262 11.637 148.95 12.9498C147.637 14.2625 145.857 15 144 15C142.143 15 140.363 14.2625 139.05 12.9498C137.738 11.637 137 9.85652 137 8H127C127 9.85652 126.262 11.637 124.95 12.9498C123.637 14.2625 121.857 15 120 15C118.143 15 116.363 14.2625 115.05 12.9498C113.738 11.637 113 9.85652 113 8H103C103 9.85652 102.263 11.637 100.95 12.9498C99.637 14.2625 97.8565 15 96 15C94.1435 15 92.363 14.2625 91.0502 12.9498C89.7375 11.637 89 9.85652 89 8H79C79 9.85652 78.2625 11.637 76.9498 12.9498C75.637 14.2625 73.8565 15 72 15C70.1435 15 68.363 14.2625 67.0502 12.9498C65.7375 11.637 65 9.85652 65 8H55C55 9.85652 54.2625 11.637 52.9498 12.9498C51.637 14.2625 49.8565 15 48 15C46.1435 15 44.363 14.2625 43.0502 12.9498C41.7375 11.637 41 9.85652 41 8H31C31 9.85652 30.2625 11.637 28.9498 12.9498C27.637 14.2625 25.8565 15 24 15C22.1435 15 20.363 14.2625 19.0502 12.9498C17.7375 11.637 17 9.85652 17 8H8L8 212H17C17 210.143 17.7375 208.363 19.0502 207.05C20.363 205.738 22.1435 205 24 205C25.8565 205 27.637 205.738 28.9498 207.05C30.2625 208.363 31 210.143 31 212H41C41 210.143 41.7375 208.363 43.0502 207.05C44.363 205.738 46.1435 205 48 205C49.8565 205 51.637 205.738 52.9498 207.05C54.2625 208.363 55 210.143 55 212H65C65 210.143 65.7375 208.363 67.0502 207.05C68.363 205.738 70.1435 205 72 205C73.8565 205 75.637 205.738 76.9498 207.05C78.2625 208.363 79 210.143 79 212H89C89 210.143 89.7375 208.363 91.0502 207.05C92.363 205.738 94.1435 205 96 205C97.8565 205 99.637 205.738 100.95 207.05C102.263 208.363 103 210.143 103 212H113C113 210.143 113.738 208.363 115.05 207.05C116.363 205.738 118.143 205 120 205C121.857 205 123.637 205.738 124.95 207.05C126.262 208.363 127 210.143 127 212H137C137 210.143 137.738 208.363 139.05 207.05C140.363 205.738 142.143 205 144 205C145.857 205 147.637 205.738 148.95 207.05C150.262 208.363 151 210.143 151 212H161C161 210.143 161.738 208.363 163.05 207.05C164.363 205.738 166.143 205 168 205C169.857 205 171.637 205.738 172.95 207.05C174.262 208.363 175 210.143 175 212H185C185 210.143 185.738 208.363 187.05 207.05C188.363 205.738 190.143 205 192 205C193.857 205 195.637 205.738 196.95 207.05C198.262 208.363 199 210.143 199 212H209C209 210.143 209.738 208.363 211.05 207.05C212.363 205.738 214.143 205 216 205C217.857 205 219.637 205.738 220.95 207.05C222.262 208.363 223 210.143 223 212H233C233 210.143 233.738 208.363 235.05 207.05C236.363 205.738 238.143 205 240 205C241.857 205 243.637 205.738 244.95 207.05C246.262 208.363 247 210.143 247 212H257C257 210.143 257.738 208.363 259.05 207.05C260.363 205.738 262.143 205 264 205C265.857 205 267.637 205.738 268.95 207.05C270.262 208.363 271 210.143 271 212H281C281 210.143 281.738 208.363 283.05 207.05C284.363 205.738 286.143 205 288 205C289.857 205 291.637 205.738 292.95 207.05C294.262 208.363 295 210.143 295 212H305C305 210.143 305.738 208.363 307.05 207.05C308.363 205.738 310.143 205 312 205C313.857 205 315.637 205.738 316.95 207.05C318.262 208.363 319 210.143 319 212H328V8H319Z" fill="white"/>
</g>
<path d="M32.2952 60.338C32.0422 60.338 31.8772 60.151 31.8772 59.92C31.8772 59.689 32.0422 59.502 32.2952 59.502C32.5482 59.502 32.7132 59.689 32.7132 59.92C32.7132 60.151 32.5482 60.338 32.2952 60.338ZM43.624 63V59.513L40.863 55.19H41.644L43.965 58.875L46.286 55.19H47.067L44.306 59.513V63H43.624ZM49.409 63.11C47.935 63.11 46.461 62.043 46.461 60.14C46.461 58.237 47.935 57.17 49.409 57.17C50.883 57.17 52.357 58.237 52.357 60.14C52.357 62.043 50.883 63.11 49.409 63.11ZM47.132 60.14C47.132 61.658 48.254 62.494 49.409 62.494C50.564 62.494 51.686 61.658 51.686 60.14C51.686 58.622 50.564 57.786 49.409 57.786C48.254 57.786 47.132 58.622 47.132 60.14ZM58.3883 57.28V63H57.7173V61.999C57.4313 62.56 56.7933 63.11 55.7373 63.11C54.5163 63.11 53.4713 62.351 53.4713 60.646V57.28H54.1423V60.569C54.1423 61.878 54.9233 62.494 55.9133 62.494C56.8923 62.494 57.7173 61.878 57.7173 60.569V57.28H58.3883ZM64.8345 63.11C63.3715 63.11 61.8975 62.043 61.8975 60.151C61.8975 58.237 63.3715 57.17 64.8345 57.17C65.8245 57.17 66.7815 57.654 67.2765 58.578L66.7485 58.875C66.3635 58.171 65.6265 57.786 64.8565 57.786C63.7235 57.786 62.5685 58.622 62.5685 60.151C62.5685 61.658 63.7235 62.494 64.8565 62.494C65.6265 62.494 66.3635 62.109 66.7485 61.405L67.2765 61.702C66.7815 62.626 65.8245 63.11 64.8345 63.11ZM70.8908 63.11C69.4608 63.11 68.0528 62.087 68.0528 60.14C68.0528 58.193 69.4608 57.17 70.8908 57.17C71.9688 57.17 72.8488 57.764 73.1788 58.501H73.2118V57.28H73.8828V63H73.2118V61.779H73.1788C72.8488 62.516 71.9688 63.11 70.8908 63.11ZM68.7238 60.14C68.7238 61.724 69.8568 62.494 70.9788 62.494C72.1008 62.494 73.2338 61.713 73.2338 60.14C73.2338 58.567 72.1008 57.786 70.9788 57.786C69.8568 57.786 68.7238 58.556 68.7238 60.14ZM75.2672 63V57.28H75.9382V58.281C76.2242 57.72 76.8622 57.17 77.9182 57.17C79.1392 57.17 80.1842 57.929 80.1842 59.634V63H79.5132V59.711C79.5132 58.402 78.7322 57.786 77.7422 57.786C76.7632 57.786 75.9382 58.402 75.9382 59.711V63H75.2672ZM83.9684 63V57.28H84.6394V58.611C84.8704 57.841 85.4424 57.17 86.4984 57.17C86.6304 57.17 86.7184 57.181 86.7954 57.203V57.83C86.7074 57.808 86.6304 57.797 86.5094 57.797C85.4644 57.797 84.6394 58.622 84.6394 59.964V63H83.9684ZM90.3786 63.11C88.8606 63.11 87.4746 62.054 87.4746 60.129C87.4746 58.215 88.8716 57.17 90.3016 57.17C91.7536 57.17 93.2166 58.226 93.0296 60.382H88.1126C88.2226 61.768 89.2566 62.516 90.4556 62.516C91.1816 62.516 91.8526 62.241 92.2706 61.746L92.6226 62.109C92.1056 62.747 91.2696 63.11 90.3786 63.11ZM88.1126 59.843H92.4246C92.3916 58.501 91.3906 57.764 90.3016 57.764C89.2456 57.764 88.2336 58.479 88.1126 59.843ZM94.394 56.532C94.394 55.278 95.219 54.981 95.857 54.981C96.22 54.981 96.495 55.08 96.693 55.201V55.74C96.495 55.63 96.231 55.564 95.967 55.564C95.461 55.564 95.065 55.806 95.065 56.62V57.28H96.693V57.841H95.065V63H94.394V57.841H93.767V57.28H94.394V56.532ZM100.208 63.11C98.6897 63.11 97.3037 62.054 97.3037 60.129C97.3037 58.215 98.7007 57.17 100.131 57.17C101.583 57.17 103.046 58.226 102.859 60.382H97.9417C98.0517 61.768 99.0857 62.516 100.285 62.516C101.011 62.516 101.682 62.241 102.1 61.746L102.452 62.109C101.935 62.747 101.099 63.11 100.208 63.11ZM97.9417 59.843H102.254C102.221 58.501 101.22 57.764 100.131 57.764C99.0747 57.764 98.0627 58.479 97.9417 59.843ZM103.981 63V57.28H104.652V58.611C104.883 57.841 105.455 57.17 106.511 57.17C106.643 57.17 106.731 57.181 106.808 57.203V57.83C106.72 57.808 106.643 57.797 106.522 57.797C105.477 57.797 104.652 58.622 104.652 59.964V63H103.981ZM110.346 56.532C110.346 55.278 111.171 54.981 111.809 54.981C112.172 54.981 112.447 55.08 112.645 55.201V55.74C112.447 55.63 112.183 55.564 111.919 55.564C111.413 55.564 111.017 55.806 111.017 56.62V57.28H112.645V57.841H111.017V63H110.346V57.841H109.719V57.28H110.346V56.532ZM113.531 63V57.28H114.202V58.611C114.433 57.841 115.005 57.17 116.061 57.17C116.193 57.17 116.281 57.181 116.358 57.203V57.83C116.27 57.808 116.193 57.797 116.072 57.797C115.027 57.797 114.202 58.622 114.202 59.964V63H113.531ZM117.473 63V57.28H118.144V63H117.473ZM117.473 55.839V55.19H118.144V55.839H117.473ZM122.154 63.11C120.636 63.11 119.25 62.054 119.25 60.129C119.25 58.215 120.647 57.17 122.077 57.17C123.529 57.17 124.992 58.226 124.805 60.382H119.888C119.998 61.768 121.032 62.516 122.231 62.516C122.957 62.516 123.628 62.241 124.046 61.746L124.398 62.109C123.881 62.747 123.045 63.11 122.154 63.11ZM119.888 59.843H124.2C124.167 58.501 123.166 57.764 122.077 57.764C121.021 57.764 120.009 58.479 119.888 59.843ZM125.927 63V57.28H126.598V58.281C126.884 57.72 127.522 57.17 128.578 57.17C129.799 57.17 130.844 57.929 130.844 59.634V63H130.173V59.711C130.173 58.402 129.392 57.786 128.402 57.786C127.423 57.786 126.598 58.402 126.598 59.711V63H125.927ZM137.788 63H137.117V61.779H137.084C136.754 62.516 135.874 63.11 134.796 63.11C133.366 63.11 131.958 62.087 131.958 60.14C131.958 58.193 133.366 57.17 134.796 57.17C135.874 57.17 136.754 57.764 137.084 58.501H137.117V55.19H137.788V63ZM132.629 60.14C132.629 61.724 133.762 62.494 134.884 62.494C136.006 62.494 137.139 61.713 137.139 60.14C137.139 58.567 136.006 57.786 134.884 57.786C133.762 57.786 132.629 58.556 132.629 60.14ZM140.8 63.11C139.755 63.11 139.018 62.527 138.842 61.592L139.425 61.427C139.601 62.142 140.129 62.527 140.8 62.527C141.416 62.527 142.032 62.219 142.032 61.504C142.032 60.921 141.636 60.657 140.888 60.338L140.448 60.162C139.502 59.777 139.117 59.227 139.117 58.6C139.117 57.753 139.832 57.17 140.778 57.17C141.636 57.17 142.285 57.643 142.483 58.369L141.944 58.545C141.757 58.061 141.405 57.742 140.8 57.742C140.25 57.742 139.777 58.028 139.777 58.6C139.777 59.029 140.041 59.359 140.712 59.634L141.097 59.788C142.087 60.195 142.703 60.58 142.703 61.504C142.703 62.615 141.746 63.11 140.8 63.11ZM146.209 55.19H146.88V58.501H146.913C147.243 57.764 148.123 57.17 149.201 57.17C150.631 57.17 152.039 58.193 152.039 60.14C152.039 62.087 150.631 63.11 149.201 63.11C148.123 63.11 147.243 62.516 146.913 61.779H146.88V63H146.209V55.19ZM146.858 60.14C146.858 61.713 147.991 62.494 149.113 62.494C150.235 62.494 151.368 61.724 151.368 60.14C151.368 58.556 150.235 57.786 149.113 57.786C147.991 57.786 146.858 58.567 146.858 60.14ZM158.065 57.28V63H157.394V61.999C157.108 62.56 156.47 63.11 155.414 63.11C154.193 63.11 153.148 62.351 153.148 60.646V57.28H153.819V60.569C153.819 61.878 154.6 62.494 155.59 62.494C156.569 62.494 157.394 61.878 157.394 60.569V57.28H158.065ZM161.016 63.066C160.356 63.066 159.916 62.747 159.916 62.032V57.841H159.179V57.28H159.916V55.817H160.587V57.28H161.698V57.841H160.587V61.889C160.587 62.263 160.774 62.461 161.159 62.461C161.291 62.461 161.467 62.439 161.676 62.351V62.901C161.478 63.033 161.236 63.066 161.016 63.066ZM165.255 63V57.28H165.926V58.281C166.212 57.72 166.85 57.17 167.906 57.17C169.127 57.17 170.172 57.929 170.172 59.634V63H169.501V59.711C169.501 58.402 168.72 57.786 167.73 57.786C166.751 57.786 165.926 58.402 165.926 59.711V63H165.255ZM174.233 63.11C172.759 63.11 171.285 62.043 171.285 60.14C171.285 58.237 172.759 57.17 174.233 57.17C175.707 57.17 177.181 58.237 177.181 60.14C177.181 62.043 175.707 63.11 174.233 63.11ZM171.956 60.14C171.956 61.658 173.078 62.494 174.233 62.494C175.388 62.494 176.51 61.658 176.51 60.14C176.51 58.622 175.388 57.786 174.233 57.786C173.078 57.786 171.956 58.622 171.956 60.14ZM179.696 63.066C179.036 63.066 178.596 62.747 178.596 62.032V57.841H177.859V57.28H178.596V55.817H179.267V57.28H180.378V57.841H179.267V61.889C179.267 62.263 179.454 62.461 179.839 62.461C179.971 62.461 180.147 62.439 180.356 62.351V62.901C180.158 63.033 179.916 63.066 179.696 63.066ZM184.177 56.532C184.177 55.278 185.002 54.981 185.64 54.981C186.003 54.981 186.278 55.08 186.476 55.201V55.74C186.278 55.63 186.014 55.564 185.75 55.564C185.244 55.564 184.848 55.806 184.848 56.62V57.28H186.476V57.841H184.848V63H184.177V57.841H183.55V57.28H184.177V56.532ZM189.925 63.11C188.495 63.11 187.087 62.087 187.087 60.14C187.087 58.193 188.495 57.17 189.925 57.17C191.003 57.17 191.883 57.764 192.213 58.501H192.246V57.28H192.917V63H192.246V61.779H192.213C191.883 62.516 191.003 63.11 189.925 63.11ZM187.758 60.14C187.758 61.724 188.891 62.494 190.013 62.494C191.135 62.494 192.268 61.713 192.268 60.14C192.268 58.567 191.135 57.786 190.013 57.786C188.891 57.786 187.758 58.556 187.758 60.14ZM198.151 63V59.678C198.151 58.534 197.645 57.786 196.6 57.786C195.555 57.786 194.972 58.534 194.972 59.678V63H194.301V57.28H194.972V58.215C195.236 57.676 195.797 57.17 196.765 57.17C197.612 57.17 198.316 57.566 198.635 58.424C198.877 57.819 199.493 57.17 200.604 57.17C201.792 57.17 202.672 57.918 202.672 59.612V63H202.001V59.678C202.001 58.534 201.495 57.786 200.45 57.786C199.416 57.786 198.822 58.534 198.822 59.678V63H198.151ZM204.055 63V57.28H204.726V63H204.055ZM204.055 55.839V55.19H204.726V55.839H204.055ZM206.107 63V55.19H206.778V63H206.107ZM209.248 65.09L210.194 62.956L207.774 57.28H208.478L210.524 62.142L212.57 57.28H213.274L210.832 63L209.908 65.09H209.248ZM32.2952 82.338C32.0422 82.338 31.8772 82.151 31.8772 81.92C31.8772 81.689 32.0422 81.502 32.2952 81.502C32.5482 81.502 32.7132 81.689 32.7132 81.92C32.7132 82.151 32.5482 82.338 32.2952 82.338ZM43.624 85V81.513L40.863 77.19H41.644L43.965 80.875L46.286 77.19H47.067L44.306 81.513V85H43.624ZM49.409 85.11C47.935 85.11 46.461 84.043 46.461 82.14C46.461 80.237 47.935 79.17 49.409 79.17C50.883 79.17 52.357 80.237 52.357 82.14C52.357 84.043 50.883 85.11 49.409 85.11ZM47.132 82.14C47.132 83.658 48.254 84.494 49.409 84.494C50.564 84.494 51.686 83.658 51.686 82.14C51.686 80.622 50.564 79.786 49.409 79.786C48.254 79.786 47.132 80.622 47.132 82.14ZM58.3883 79.28V85H57.7173V83.999C57.4313 84.56 56.7933 85.11 55.7373 85.11C54.5163 85.11 53.4713 84.351 53.4713 82.646V79.28H54.1423V82.569C54.1423 83.878 54.9233 84.494 55.9133 84.494C56.8923 84.494 57.7173 83.878 57.7173 82.569V79.28H58.3883ZM64.8345 85.11C63.3715 85.11 61.8975 84.043 61.8975 82.151C61.8975 80.237 63.3715 79.17 64.8345 79.17C65.8245 79.17 66.7815 79.654 67.2765 80.578L66.7485 80.875C66.3635 80.171 65.6265 79.786 64.8565 79.786C63.7235 79.786 62.5685 80.622 62.5685 82.151C62.5685 83.658 63.7235 84.494 64.8565 84.494C65.6265 84.494 66.3635 84.109 66.7485 83.405L67.2765 83.702C66.7815 84.626 65.8245 85.11 64.8345 85.11ZM70.8908 85.11C69.4608 85.11 68.0528 84.087 68.0528 82.14C68.0528 80.193 69.4608 79.17 70.8908 79.17C71.9688 79.17 72.8488 79.764 73.1788 80.501H73.2118V79.28H73.8828V85H73.2118V83.779H73.1788C72.8488 84.516 71.9688 85.11 70.8908 85.11ZM68.7238 82.14C68.7238 83.724 69.8568 84.494 70.9788 84.494C72.1008 84.494 73.2338 83.713 73.2338 82.14C73.2338 80.567 72.1008 79.786 70.9788 79.786C69.8568 79.786 68.7238 80.556 68.7238 82.14ZM75.2672 85V79.28H75.9382V80.281C76.2242 79.72 76.8622 79.17 77.9182 79.17C79.1392 79.17 80.1842 79.929 80.1842 81.634V85H79.5132V81.711C79.5132 80.402 78.7322 79.786 77.7422 79.786C76.7632 79.786 75.9382 80.402 75.9382 81.711V85H75.2672ZM83.9684 85V79.28H84.6394V80.611C84.8704 79.841 85.4424 79.17 86.4984 79.17C86.6304 79.17 86.7184 79.181 86.7954 79.203V79.83C86.7074 79.808 86.6304 79.797 86.5094 79.797C85.4644 79.797 84.6394 80.622 84.6394 81.964V85H83.9684ZM90.3786 85.11C88.8606 85.11 87.4746 84.054 87.4746 82.129C87.4746 80.215 88.8716 79.17 90.3016 79.17C91.7536 79.17 93.2166 80.226 93.0296 82.382H88.1126C88.2226 83.768 89.2566 84.516 90.4556 84.516C91.1816 84.516 91.8526 84.241 92.2706 83.746L92.6226 84.109C92.1056 84.747 91.2696 85.11 90.3786 85.11ZM88.1126 81.843H92.4246C92.3916 80.501 91.3906 79.764 90.3016 79.764C89.2456 79.764 88.2336 80.479 88.1126 81.843ZM94.394 78.532C94.394 77.278 95.219 76.981 95.857 76.981C96.22 76.981 96.495 77.08 96.693 77.201V77.74C96.495 77.63 96.231 77.564 95.967 77.564C95.461 77.564 95.065 77.806 95.065 78.62V79.28H96.693V79.841H95.065V85H94.394V79.841H93.767V79.28H94.394V78.532ZM100.208 85.11C98.6897 85.11 97.3037 84.054 97.3037 82.129C97.3037 80.215 98.7007 79.17 100.131 79.17C101.583 79.17 103.046 80.226 102.859 82.382H97.9417C98.0517 83.768 99.0857 84.516 100.285 84.516C101.011 84.516 101.682 84.241 102.1 83.746L102.452 84.109C101.935 84.747 101.099 85.11 100.208 85.11ZM97.9417 81.843H102.254C102.221 80.501 101.22 79.764 100.131 79.764C99.0747 79.764 98.0627 80.479 97.9417 81.843ZM103.981 85V79.28H104.652V80.611C104.883 79.841 105.455 79.17 106.511 79.17C106.643 79.17 106.731 79.181 106.808 79.203V79.83C106.72 79.808 106.643 79.797 106.522 79.797C105.477 79.797 104.652 80.622 104.652 81.964V85H103.981ZM112.447 81.832C113.294 80.787 113.91 80.16 113.91 79.225C113.91 78.279 113.261 77.718 112.326 77.718C111.391 77.718 110.621 78.279 110.621 79.423V79.61H109.95V79.368C109.95 78.015 110.907 77.08 112.326 77.08C113.734 77.08 114.592 77.982 114.592 79.159C114.592 80.303 113.8 81.106 113.239 81.788L111.094 84.395H114.625V85H109.884L112.447 81.832ZM118.542 78.532C118.542 77.278 119.367 76.981 120.005 76.981C120.368 76.981 120.643 77.08 120.841 77.201V77.74C120.643 77.63 120.379 77.564 120.115 77.564C119.609 77.564 119.213 77.806 119.213 78.62V79.28H120.841V79.841H119.213V85H118.542V79.841H117.915V79.28H118.542V78.532ZM121.727 85V79.28H122.398V80.611C122.629 79.841 123.201 79.17 124.257 79.17C124.389 79.17 124.477 79.181 124.554 79.203V79.83C124.466 79.808 124.389 79.797 124.268 79.797C123.223 79.797 122.398 80.622 122.398 81.964V85H121.727ZM125.67 85V79.28H126.341V85H125.67ZM125.67 77.839V77.19H126.341V77.839H125.67ZM130.35 85.11C128.832 85.11 127.446 84.054 127.446 82.129C127.446 80.215 128.843 79.17 130.273 79.17C131.725 79.17 133.188 80.226 133.001 82.382H128.084C128.194 83.768 129.228 84.516 130.427 84.516C131.153 84.516 131.824 84.241 132.242 83.746L132.594 84.109C132.077 84.747 131.241 85.11 130.35 85.11ZM128.084 81.843H132.396C132.363 80.501 131.362 79.764 130.273 79.764C129.217 79.764 128.205 80.479 128.084 81.843ZM134.124 85V79.28H134.795V80.281C135.081 79.72 135.719 79.17 136.775 79.17C137.996 79.17 139.041 79.929 139.041 81.634V85H138.37V81.711C138.37 80.402 137.589 79.786 136.599 79.786C135.62 79.786 134.795 80.402 134.795 81.711V85H134.124ZM145.984 85H145.313V83.779H145.28C144.95 84.516 144.07 85.11 142.992 85.11C141.562 85.11 140.154 84.087 140.154 82.14C140.154 80.193 141.562 79.17 142.992 79.17C144.07 79.17 144.95 79.764 145.28 80.501H145.313V77.19H145.984V85ZM140.825 82.14C140.825 83.724 141.958 84.494 143.08 84.494C144.202 84.494 145.335 83.713 145.335 82.14C145.335 80.567 144.202 79.786 143.08 79.786C141.958 79.786 140.825 80.556 140.825 82.14ZM148.997 85.11C147.952 85.11 147.215 84.527 147.039 83.592L147.622 83.427C147.798 84.142 148.326 84.527 148.997 84.527C149.613 84.527 150.229 84.219 150.229 83.504C150.229 82.921 149.833 82.657 149.085 82.338L148.645 82.162C147.699 81.777 147.314 81.227 147.314 80.6C147.314 79.753 148.029 79.17 148.975 79.17C149.833 79.17 150.482 79.643 150.68 80.369L150.141 80.545C149.954 80.061 149.602 79.742 148.997 79.742C148.447 79.742 147.974 80.028 147.974 80.6C147.974 81.029 148.238 81.359 148.909 81.634L149.294 81.788C150.284 82.195 150.9 82.58 150.9 83.504C150.9 84.615 149.943 85.11 148.997 85.11ZM157.034 85.11C155.516 85.11 154.13 84.054 154.13 82.129C154.13 80.215 155.527 79.17 156.957 79.17C158.409 79.17 159.872 80.226 159.685 82.382H154.768C154.878 83.768 155.912 84.516 157.111 84.516C157.837 84.516 158.508 84.241 158.926 83.746L159.278 84.109C158.761 84.747 157.925 85.11 157.034 85.11ZM154.768 81.843H159.08C159.047 80.501 158.046 79.764 156.957 79.764C155.901 79.764 154.889 80.479 154.768 81.843ZM162.531 85L160.089 79.28H160.793L162.839 84.142L164.885 79.28H165.589L163.147 85H162.531ZM168.883 85.11C167.365 85.11 165.979 84.054 165.979 82.129C165.979 80.215 167.376 79.17 168.806 79.17C170.258 79.17 171.721 80.226 171.534 82.382H166.617C166.727 83.768 167.761 84.516 168.96 84.516C169.686 84.516 170.357 84.241 170.775 83.746L171.127 84.109C170.61 84.747 169.774 85.11 168.883 85.11ZM166.617 81.843H170.929C170.896 80.501 169.895 79.764 168.806 79.764C167.75 79.764 166.738 80.479 166.617 81.843ZM172.656 85V79.28H173.327V80.611C173.558 79.841 174.13 79.17 175.186 79.17C175.318 79.17 175.406 79.181 175.483 79.203V79.83C175.395 79.808 175.318 79.797 175.197 79.797C174.152 79.797 173.327 80.622 173.327 81.964V85H172.656ZM177.687 87.09L178.633 84.956L176.213 79.28H176.917L178.963 84.142L181.009 79.28H181.713L179.271 85L178.347 87.09H177.687ZM187.438 85.11C186.052 85.11 184.941 84.131 184.941 82.624C184.941 81.392 185.711 80.457 186.129 79.874L188.032 77.19H188.791L186.338 80.633C186.767 80.347 187.196 80.281 187.537 80.281C188.868 80.281 189.946 81.227 189.946 82.657C189.946 84.131 188.824 85.11 187.438 85.11ZM185.59 82.679C185.59 83.812 186.448 84.494 187.438 84.494C188.428 84.494 189.297 83.812 189.297 82.679C189.297 81.557 188.428 80.875 187.438 80.875C186.448 80.875 185.59 81.557 185.59 82.679ZM197.41 85V81.678C197.41 80.534 196.904 79.786 195.859 79.786C194.814 79.786 194.231 80.534 194.231 81.678V85H193.56V79.28H194.231V80.215C194.495 79.676 195.056 79.17 196.024 79.17C196.871 79.17 197.575 79.566 197.894 80.424C198.136 79.819 198.752 79.17 199.863 79.17C201.051 79.17 201.931 79.918 201.931 81.612V85H201.26V81.678C201.26 80.534 200.754 79.786 199.709 79.786C198.675 79.786 198.081 80.534 198.081 81.678V85H197.41ZM205.987 85.11C204.513 85.11 203.039 84.043 203.039 82.14C203.039 80.237 204.513 79.17 205.987 79.17C207.461 79.17 208.935 80.237 208.935 82.14C208.935 84.043 207.461 85.11 205.987 85.11ZM203.71 82.14C203.71 83.658 204.832 84.494 205.987 84.494C207.142 84.494 208.264 83.658 208.264 82.14C208.264 80.622 207.142 79.786 205.987 79.786C204.832 79.786 203.71 80.622 203.71 82.14ZM210.049 85V79.28H210.72V80.281C211.006 79.72 211.644 79.17 212.7 79.17C213.921 79.17 214.966 79.929 214.966 81.634V85H214.295V81.711C214.295 80.402 213.514 79.786 212.524 79.786C211.545 79.786 210.72 80.402 210.72 81.711V85H210.049ZM217.756 85.066C217.096 85.066 216.656 84.747 216.656 84.032V79.841H215.919V79.28H216.656V77.817H217.327V79.28H218.438V79.841H217.327V83.889C217.327 84.263 217.514 84.461 217.899 84.461C218.031 84.461 218.207 84.439 218.416 84.351V84.901C218.218 85.033 217.976 85.066 217.756 85.066ZM219.599 85V77.19H220.27V80.281C220.556 79.72 221.194 79.17 222.25 79.17C223.471 79.17 224.516 79.929 224.516 81.634V85H223.845V81.711C223.845 80.402 223.064 79.786 222.074 79.786C221.095 79.786 220.27 80.402 220.27 81.711V85H219.599ZM227.533 85.11C226.488 85.11 225.751 84.527 225.575 83.592L226.158 83.427C226.334 84.142 226.862 84.527 227.533 84.527C228.149 84.527 228.765 84.219 228.765 83.504C228.765 82.921 228.369 82.657 227.621 82.338L227.181 82.162C226.235 81.777 225.85 81.227 225.85 80.6C225.85 79.753 226.565 79.17 227.511 79.17C228.369 79.17 229.018 79.643 229.216 80.369L228.677 80.545C228.49 80.061 228.138 79.742 227.533 79.742C226.983 79.742 226.51 80.028 226.51 80.6C226.51 81.029 226.774 81.359 227.445 81.634L227.83 81.788C228.82 82.195 229.436 82.58 229.436 83.504C229.436 84.615 228.479 85.11 227.533 85.11ZM32.2952 104.338C32.0422 104.338 31.8772 104.151 31.8772 103.92C31.8772 103.689 32.0422 103.502 32.2952 103.502C32.5482 103.502 32.7132 103.689 32.7132 103.92C32.7132 104.151 32.5482 104.338 32.2952 104.338ZM43.624 107V103.513L40.863 99.19H41.644L43.965 102.875L46.286 99.19H47.067L44.306 103.513V107H43.624ZM49.409 107.11C47.935 107.11 46.461 106.043 46.461 104.14C46.461 102.237 47.935 101.17 49.409 101.17C50.883 101.17 52.357 102.237 52.357 104.14C52.357 106.043 50.883 107.11 49.409 107.11ZM47.132 104.14C47.132 105.658 48.254 106.494 49.409 106.494C50.564 106.494 51.686 105.658 51.686 104.14C51.686 102.622 50.564 101.786 49.409 101.786C48.254 101.786 47.132 102.622 47.132 104.14ZM58.3883 101.28V107H57.7173V105.999C57.4313 106.56 56.7933 107.11 55.7373 107.11C54.5163 107.11 53.4713 106.351 53.4713 104.646V101.28H54.1423V104.569C54.1423 105.878 54.9233 106.494 55.9133 106.494C56.8923 106.494 57.7173 105.878 57.7173 104.569V101.28H58.3883ZM68.5305 107L66.5615 102.105L64.5925 107H63.9655L61.7875 101.28H62.4695L64.2845 106.131L66.2315 101.28H66.8915L68.8385 106.131L70.6535 101.28H71.3355L69.1575 107H68.5305ZM72.3346 107V101.28H73.0056V107H72.3346ZM72.3346 99.839V99.19H73.0056V99.839H72.3346ZM74.3864 107V99.19H75.0574V107H74.3864ZM76.4381 107V99.19H77.1091V107H76.4381ZM80.8854 107V101.28H81.5564V102.611C81.7874 101.841 82.3594 101.17 83.4154 101.17C83.5474 101.17 83.6354 101.181 83.7124 101.203V101.83C83.6244 101.808 83.5474 101.797 83.4264 101.797C82.3814 101.797 81.5564 102.622 81.5564 103.964V107H80.8854ZM87.2956 107.11C85.7776 107.11 84.3916 106.054 84.3916 104.129C84.3916 102.215 85.7886 101.17 87.2186 101.17C88.6706 101.17 90.1336 102.226 89.9466 104.382H85.0296C85.1396 105.768 86.1736 106.516 87.3726 106.516C88.0986 106.516 88.7696 106.241 89.1876 105.746L89.5396 106.109C89.0226 106.747 88.1866 107.11 87.2956 107.11ZM85.0296 103.843H89.3416C89.3086 102.501 88.3076 101.764 87.2186 101.764C86.1626 101.764 85.1506 102.479 85.0296 103.843ZM93.731 107.11C92.268 107.11 90.794 106.043 90.794 104.151C90.794 102.237 92.268 101.17 93.731 101.17C94.721 101.17 95.678 101.654 96.173 102.578L95.645 102.875C95.26 102.171 94.523 101.786 93.753 101.786C92.62 101.786 91.465 102.622 91.465 104.151C91.465 105.658 92.62 106.494 93.753 106.494C94.523 106.494 95.26 106.109 95.645 105.405L96.173 105.702C95.678 106.626 94.721 107.11 93.731 107.11ZM99.7888 107.11C98.2708 107.11 96.8848 106.054 96.8848 104.129C96.8848 102.215 98.2818 101.17 99.7118 101.17C101.164 101.17 102.627 102.226 102.44 104.382H97.5228C97.6328 105.768 98.6668 106.516 99.8658 106.516C100.592 106.516 101.263 106.241 101.681 105.746L102.033 106.109C101.516 106.747 100.68 107.11 99.7888 107.11ZM97.5228 103.843H101.835C101.802 102.501 100.801 101.764 99.7118 101.764C98.6558 101.764 97.6438 102.479 97.5228 103.843ZM103.562 107V101.28H104.233V107H103.562ZM103.562 99.839V99.19H104.233V99.839H103.562ZM107.671 107L105.229 101.28H105.933L107.979 106.142L110.025 101.28H110.729L108.287 107H107.671ZM114.022 107.11C112.504 107.11 111.118 106.054 111.118 104.129C111.118 102.215 112.515 101.17 113.945 101.17C115.397 101.17 116.86 102.226 116.673 104.382H111.756C111.866 105.768 112.9 106.516 114.099 106.516C114.825 106.516 115.496 106.241 115.914 105.746L116.266 106.109C115.749 106.747 114.913 107.11 114.022 107.11ZM111.756 103.843H116.068C116.035 102.501 115.034 101.764 113.945 101.764C112.889 101.764 111.877 102.479 111.756 103.843ZM121.28 109.09L122.226 106.956L119.806 101.28H120.51L122.556 106.142L124.602 101.28H125.306L122.864 107L121.94 109.09H121.28ZM128.643 107.11C127.169 107.11 125.695 106.043 125.695 104.14C125.695 102.237 127.169 101.17 128.643 101.17C130.117 101.17 131.591 102.237 131.591 104.14C131.591 106.043 130.117 107.11 128.643 107.11ZM126.366 104.14C126.366 105.658 127.488 106.494 128.643 106.494C129.798 106.494 130.92 105.658 130.92 104.14C130.92 102.622 129.798 101.786 128.643 101.786C127.488 101.786 126.366 102.622 126.366 104.14ZM137.623 101.28V107H136.952V105.999C136.666 106.56 136.028 107.11 134.972 107.11C133.751 107.11 132.706 106.351 132.706 104.646V101.28H133.377V104.569C133.377 105.878 134.158 106.494 135.148 106.494C136.127 106.494 136.952 105.878 136.952 104.569V101.28H137.623ZM139.011 107V101.28H139.682V102.611C139.913 101.841 140.485 101.17 141.541 101.17C141.673 101.17 141.761 101.181 141.838 101.203V101.83C141.75 101.808 141.673 101.797 141.552 101.797C140.507 101.797 139.682 102.622 139.682 103.964V107H139.011ZM145.376 100.543C145.376 99.289 146.201 98.981 146.828 98.981C147.191 98.981 147.477 99.08 147.675 99.201V99.74C147.477 99.63 147.202 99.564 146.949 99.564C146.443 99.564 146.047 99.828 146.047 100.62V101.28H149.193V107H148.522V101.841H146.047V107H145.376V101.841H144.749V101.28H145.376V100.543ZM148.522 99.839V99.19H149.193V99.839H148.522ZM150.581 107V101.28H151.252V102.611C151.483 101.841 152.055 101.17 153.111 101.17C153.243 101.17 153.331 101.181 153.408 101.203V101.83C153.32 101.808 153.243 101.797 153.122 101.797C152.077 101.797 151.252 102.622 151.252 103.964V107H150.581ZM156.044 107.11C154.999 107.11 154.262 106.527 154.086 105.592L154.669 105.427C154.845 106.142 155.373 106.527 156.044 106.527C156.66 106.527 157.276 106.219 157.276 105.504C157.276 104.921 156.88 104.657 156.132 104.338L155.692 104.162C154.746 103.777 154.361 103.227 154.361 102.6C154.361 101.753 155.076 101.17 156.022 101.17C156.88 101.17 157.529 101.643 157.727 102.369L157.188 102.545C157.001 102.061 156.649 101.742 156.044 101.742C155.494 101.742 155.021 102.028 155.021 102.6C155.021 103.029 155.285 103.359 155.956 103.634L156.341 103.788C157.331 104.195 157.947 104.58 157.947 105.504C157.947 106.615 156.99 107.11 156.044 107.11ZM160.511 107.066C159.851 107.066 159.411 106.747 159.411 106.032V101.841H158.674V101.28H159.411V99.817H160.082V101.28H161.193V101.841H160.082V105.889C160.082 106.263 160.269 106.461 160.654 106.461C160.786 106.461 160.962 106.439 161.171 106.351V106.901C160.973 107.033 160.731 107.066 160.511 107.066ZM164.75 107V101.28H165.421V107H164.75ZM164.75 99.839V99.19H165.421V99.839H164.75ZM166.801 107V101.28H167.472V102.281C167.758 101.72 168.396 101.17 169.452 101.17C170.673 101.17 171.718 101.929 171.718 103.634V107H171.047V103.711C171.047 102.402 170.266 101.786 169.276 101.786C168.297 101.786 167.472 102.402 167.472 103.711V107H166.801ZM175.769 107.11C174.306 107.11 172.832 106.043 172.832 104.151C172.832 102.237 174.306 101.17 175.769 101.17C176.759 101.17 177.716 101.654 178.211 102.578L177.683 102.875C177.298 102.171 176.561 101.786 175.791 101.786C174.658 101.786 173.503 102.622 173.503 104.151C173.503 105.658 174.658 106.494 175.791 106.494C176.561 106.494 177.298 106.109 177.683 105.405L178.211 105.702C177.716 106.626 176.759 107.11 175.769 107.11ZM181.827 107.11C180.309 107.11 178.923 106.054 178.923 104.129C178.923 102.215 180.32 101.17 181.75 101.17C183.202 101.17 184.665 102.226 184.478 104.382H179.561C179.671 105.768 180.705 106.516 181.904 106.516C182.63 106.516 183.301 106.241 183.719 105.746L184.071 106.109C183.554 106.747 182.718 107.11 181.827 107.11ZM179.561 103.843H183.873C183.84 102.501 182.839 101.764 181.75 101.764C180.694 101.764 179.682 102.479 179.561 103.843ZM185.6 107V101.28H186.271V102.281C186.557 101.72 187.195 101.17 188.251 101.17C189.472 101.17 190.517 101.929 190.517 103.634V107H189.846V103.711C189.846 102.402 189.065 101.786 188.075 101.786C187.096 101.786 186.271 102.402 186.271 103.711V107H185.6ZM193.307 107.066C192.647 107.066 192.207 106.747 192.207 106.032V101.841H191.47V101.28H192.207V99.817H192.878V101.28H193.989V101.841H192.878V105.889C192.878 106.263 193.065 106.461 193.45 106.461C193.582 106.461 193.758 106.439 193.967 106.351V106.901C193.769 107.033 193.527 107.066 193.307 107.066ZM195.15 107V101.28H195.821V107H195.15ZM195.15 99.839V99.19H195.821V99.839H195.15ZM199.259 107L196.817 101.28H197.521L199.567 106.142L201.613 101.28H202.317L199.875 107H199.259ZM205.61 107.11C204.092 107.11 202.706 106.054 202.706 104.129C202.706 102.215 204.103 101.17 205.533 101.17C206.985 101.17 208.448 102.226 208.261 104.382H203.344C203.454 105.768 204.488 106.516 205.687 106.516C206.413 106.516 207.084 106.241 207.502 105.746L207.854 106.109C207.337 106.747 206.501 107.11 205.61 107.11ZM203.344 103.843H207.656C207.623 102.501 206.622 101.764 205.533 101.764C204.477 101.764 203.465 102.479 203.344 103.843ZM214.452 107.11C212.978 107.11 211.504 106.043 211.504 104.14C211.504 102.237 212.978 101.17 214.452 101.17C215.926 101.17 217.4 102.237 217.4 104.14C217.4 106.043 215.926 107.11 214.452 107.11ZM212.175 104.14C212.175 105.658 213.297 106.494 214.452 106.494C215.607 106.494 216.729 105.658 216.729 104.14C216.729 102.622 215.607 101.786 214.452 101.786C213.297 101.786 212.175 102.622 212.175 104.14ZM218.514 107V101.28H219.185V102.281C219.471 101.72 220.109 101.17 221.165 101.17C222.386 101.17 223.431 101.929 223.431 103.634V107H222.76V103.711C222.76 102.402 221.979 101.786 220.989 101.786C220.01 101.786 219.185 102.402 219.185 103.711V107H218.514ZM227.215 107V101.28H227.886V102.611C228.117 101.841 228.689 101.17 229.745 101.17C229.877 101.17 229.965 101.181 230.042 101.203V101.83C229.954 101.808 229.877 101.797 229.756 101.797C228.711 101.797 227.886 102.622 227.886 103.964V107H227.215ZM233.626 107.11C232.108 107.11 230.722 106.054 230.722 104.129C230.722 102.215 232.119 101.17 233.549 101.17C235.001 101.17 236.464 102.226 236.277 104.382H231.36C231.47 105.768 232.504 106.516 233.703 106.516C234.429 106.516 235.1 106.241 235.518 105.746L235.87 106.109C235.353 106.747 234.517 107.11 233.626 107.11ZM231.36 103.843H235.672C235.639 102.501 234.638 101.764 233.549 101.764C232.493 101.764 231.481 102.479 231.36 103.843ZM237.641 100.532C237.641 99.278 238.466 98.981 239.104 98.981C239.467 98.981 239.742 99.08 239.94 99.201V99.74C239.742 99.63 239.478 99.564 239.214 99.564C238.708 99.564 238.312 99.806 238.312 100.62V101.28H239.94V101.841H238.312V107H237.641V101.841H237.014V101.28H237.641V100.532ZM243.455 107.11C241.937 107.11 240.551 106.054 240.551 104.129C240.551 102.215 241.948 101.17 243.378 101.17C244.83 101.17 246.293 102.226 246.106 104.382H241.189C241.299 105.768 242.333 106.516 243.532 106.516C244.258 106.516 244.929 106.241 245.347 105.746L245.699 106.109C245.182 106.747 244.346 107.11 243.455 107.11ZM241.189 103.843H245.501C245.468 102.501 244.467 101.764 243.378 101.764C242.322 101.764 241.31 102.479 241.189 103.843ZM247.228 107V101.28H247.899V102.611C248.13 101.841 248.702 101.17 249.758 101.17C249.89 101.17 249.978 101.181 250.055 101.203V101.83C249.967 101.808 249.89 101.797 249.769 101.797C248.724 101.797 247.899 102.622 247.899 103.964V107H247.228ZM251.171 107V101.28H251.842V102.611C252.073 101.841 252.645 101.17 253.701 101.17C253.833 101.17 253.921 101.181 253.998 101.203V101.83C253.91 101.808 253.833 101.797 253.712 101.797C252.667 101.797 251.842 102.622 251.842 103.964V107H251.171ZM257.515 107.11C256.085 107.11 254.677 106.087 254.677 104.14C254.677 102.193 256.085 101.17 257.515 101.17C258.593 101.17 259.473 101.764 259.803 102.501H259.836V101.28H260.507V107H259.836V105.779H259.803C259.473 106.516 258.593 107.11 257.515 107.11ZM255.348 104.14C255.348 105.724 256.481 106.494 257.603 106.494C258.725 106.494 259.858 105.713 259.858 104.14C259.858 102.567 258.725 101.786 257.603 101.786C256.481 101.786 255.348 102.556 255.348 104.14ZM261.891 107V99.19H262.562V107H261.891ZM32.2952 126.338C32.0422 126.338 31.8772 126.151 31.8772 125.92C31.8772 125.689 32.0422 125.502 32.2952 125.502C32.5482 125.502 32.7132 125.689 32.7132 125.92C32.7132 126.151 32.5482 126.338 32.2952 126.338ZM43.624 129V125.513L40.863 121.19H41.644L43.965 124.875L46.286 121.19H47.067L44.306 125.513V129H43.624ZM49.409 129.11C47.935 129.11 46.461 128.043 46.461 126.14C46.461 124.237 47.935 123.17 49.409 123.17C50.883 123.17 52.357 124.237 52.357 126.14C52.357 128.043 50.883 129.11 49.409 129.11ZM47.132 126.14C47.132 127.658 48.254 128.494 49.409 128.494C50.564 128.494 51.686 127.658 51.686 126.14C51.686 124.622 50.564 123.786 49.409 123.786C48.254 123.786 47.132 124.622 47.132 126.14ZM58.3883 123.28V129H57.7173V127.999C57.4313 128.56 56.7933 129.11 55.7373 129.11C54.5163 129.11 53.4713 128.351 53.4713 126.646V123.28H54.1423V126.569C54.1423 127.878 54.9233 128.494 55.9133 128.494C56.8923 128.494 57.7173 127.878 57.7173 126.569V123.28H58.3883ZM68.5305 129L66.5615 124.105L64.5925 129H63.9655L61.7875 123.28H62.4695L64.2845 128.131L66.2315 123.28H66.8915L68.8385 128.131L70.6535 123.28H71.3355L69.1575 129H68.5305ZM72.3346 129V123.28H73.0056V129H72.3346ZM72.3346 121.839V121.19H73.0056V121.839H72.3346ZM74.3864 129V121.19H75.0574V129H74.3864ZM76.4381 129V121.19H77.1091V129H76.4381ZM80.8854 129V123.28H81.5564V124.611C81.7874 123.841 82.3594 123.17 83.4154 123.17C83.5474 123.17 83.6354 123.181 83.7124 123.203V123.83C83.6244 123.808 83.5474 123.797 83.4264 123.797C82.3814 123.797 81.5564 124.622 81.5564 125.964V129H80.8854ZM87.2956 129.11C85.7776 129.11 84.3916 128.054 84.3916 126.129C84.3916 124.215 85.7886 123.17 87.2186 123.17C88.6706 123.17 90.1336 124.226 89.9466 126.382H85.0296C85.1396 127.768 86.1736 128.516 87.3726 128.516C88.0986 128.516 88.7696 128.241 89.1876 127.746L89.5396 128.109C89.0226 128.747 88.1866 129.11 87.2956 129.11ZM85.0296 125.843H89.3416C89.3086 124.501 88.3076 123.764 87.2186 123.764C86.1626 123.764 85.1506 124.479 85.0296 125.843ZM93.731 129.11C92.268 129.11 90.794 128.043 90.794 126.151C90.794 124.237 92.268 123.17 93.731 123.17C94.721 123.17 95.678 123.654 96.173 124.578L95.645 124.875C95.26 124.171 94.523 123.786 93.753 123.786C92.62 123.786 91.465 124.622 91.465 126.151C91.465 127.658 92.62 128.494 93.753 128.494C94.523 128.494 95.26 128.109 95.645 127.405L96.173 127.702C95.678 128.626 94.721 129.11 93.731 129.11ZM99.7888 129.11C98.2708 129.11 96.8848 128.054 96.8848 126.129C96.8848 124.215 98.2818 123.17 99.7118 123.17C101.164 123.17 102.627 124.226 102.44 126.382H97.5228C97.6328 127.768 98.6668 128.516 99.8658 128.516C100.592 128.516 101.263 128.241 101.681 127.746L102.033 128.109C101.516 128.747 100.68 129.11 99.7888 129.11ZM97.5228 125.843H101.835C101.802 124.501 100.801 123.764 99.7118 123.764C98.6558 123.764 97.6438 124.479 97.5228 125.843ZM103.562 129V123.28H104.233V129H103.562ZM103.562 121.839V121.19H104.233V121.839H103.562ZM107.671 129L105.229 123.28H105.933L107.979 128.142L110.025 123.28H110.729L108.287 129H107.671ZM114.022 129.11C112.504 129.11 111.118 128.054 111.118 126.129C111.118 124.215 112.515 123.17 113.945 123.17C115.397 123.17 116.86 124.226 116.673 126.382H111.756C111.866 127.768 112.9 128.516 114.099 128.516C114.825 128.516 115.496 128.241 115.914 127.746L116.266 128.109C115.749 128.747 114.913 129.11 114.022 129.11ZM111.756 125.843H116.068C116.035 124.501 115.034 123.764 113.945 123.764C112.889 123.764 111.877 124.479 111.756 125.843ZM122.754 129.11C121.324 129.11 119.916 128.087 119.916 126.14C119.916 124.193 121.324 123.17 122.754 123.17C123.832 123.17 124.712 123.764 125.042 124.501H125.075V123.28H125.746V129H125.075V127.779H125.042C124.712 128.516 123.832 129.11 122.754 129.11ZM120.587 126.14C120.587 127.724 121.72 128.494 122.842 128.494C123.964 128.494 125.097 127.713 125.097 126.14C125.097 124.567 123.964 123.786 122.842 123.786C121.72 123.786 120.587 124.556 120.587 126.14ZM127.131 129V123.28H127.802V124.281C128.088 123.72 128.726 123.17 129.782 123.17C131.003 123.17 132.048 123.929 132.048 125.634V129H131.377V125.711C131.377 124.402 130.596 123.786 129.606 123.786C128.627 123.786 127.802 124.402 127.802 125.711V129H127.131ZM136.109 129.11C134.635 129.11 133.161 128.043 133.161 126.14C133.161 124.237 134.635 123.17 136.109 123.17C137.583 123.17 139.057 124.237 139.057 126.14C139.057 128.043 137.583 129.11 136.109 129.11ZM133.832 126.14C133.832 127.658 134.954 128.494 136.109 128.494C137.264 128.494 138.386 127.658 138.386 126.14C138.386 124.622 137.264 123.786 136.109 123.786C134.954 123.786 133.832 124.622 133.832 126.14ZM141.572 129.066C140.912 129.066 140.472 128.747 140.472 128.032V123.841H139.735V123.28H140.472V121.817H141.143V123.28H142.254V123.841H141.143V127.889C141.143 128.263 141.33 128.461 141.715 128.461C141.847 128.461 142.023 128.439 142.232 128.351V128.901C142.034 129.033 141.792 129.066 141.572 129.066ZM143.416 129V121.19H144.087V124.281C144.373 123.72 145.011 123.17 146.067 123.17C147.288 123.17 148.333 123.929 148.333 125.634V129H147.662V125.711C147.662 124.402 146.881 123.786 145.891 123.786C144.912 123.786 144.087 124.402 144.087 125.711V129H143.416ZM152.35 129.11C150.832 129.11 149.446 128.054 149.446 126.129C149.446 124.215 150.843 123.17 152.273 123.17C153.725 123.17 155.188 124.226 155.001 126.382H150.084C150.194 127.768 151.228 128.516 152.427 128.516C153.153 128.516 153.824 128.241 154.242 127.746L154.594 128.109C154.077 128.747 153.241 129.11 152.35 129.11ZM150.084 125.843H154.396C154.363 124.501 153.362 123.764 152.273 123.764C151.217 123.764 150.205 124.479 150.084 125.843ZM156.124 129V123.28H156.795V124.611C157.026 123.841 157.598 123.17 158.654 123.17C158.786 123.17 158.874 123.181 158.951 123.203V123.83C158.863 123.808 158.786 123.797 158.665 123.797C157.62 123.797 156.795 124.622 156.795 125.964V129H156.124ZM162.247 129V123.28H162.918V129H162.247ZM162.247 121.839V121.19H162.918V121.839H162.247ZM164.298 129V123.28H164.969V124.281C165.255 123.72 165.893 123.17 166.949 123.17C168.17 123.17 169.215 123.929 169.215 125.634V129H168.544V125.711C168.544 124.402 167.763 123.786 166.773 123.786C165.794 123.786 164.969 124.402 164.969 125.711V129H164.298ZM173.266 129.11C171.803 129.11 170.329 128.043 170.329 126.151C170.329 124.237 171.803 123.17 173.266 123.17C174.256 123.17 175.213 123.654 175.708 124.578L175.18 124.875C174.795 124.171 174.058 123.786 173.288 123.786C172.155 123.786 171 124.622 171 126.151C171 127.658 172.155 128.494 173.288 128.494C174.058 128.494 174.795 128.109 175.18 127.405L175.708 127.702C175.213 128.626 174.256 129.11 173.266 129.11ZM179.324 129.11C177.806 129.11 176.42 128.054 176.42 126.129C176.42 124.215 177.817 123.17 179.247 123.17C180.699 123.17 182.162 124.226 181.975 126.382H177.058C177.168 127.768 178.202 128.516 179.401 128.516C180.127 128.516 180.798 128.241 181.216 127.746L181.568 128.109C181.051 128.747 180.215 129.11 179.324 129.11ZM177.058 125.843H181.37C181.337 124.501 180.336 123.764 179.247 123.764C178.191 123.764 177.179 124.479 177.058 125.843ZM183.097 129V123.28H183.768V124.281C184.054 123.72 184.692 123.17 185.748 123.17C186.969 123.17 188.014 123.929 188.014 125.634V129H187.343V125.711C187.343 124.402 186.562 123.786 185.572 123.786C184.593 123.786 183.768 124.402 183.768 125.711V129H183.097ZM190.804 129.066C190.144 129.066 189.704 128.747 189.704 128.032V123.841H188.967V123.28H189.704V121.817H190.375V123.28H191.486V123.841H190.375V127.889C190.375 128.263 190.562 128.461 190.947 128.461C191.079 128.461 191.255 128.439 191.464 128.351V128.901C191.266 129.033 191.024 129.066 190.804 129.066ZM192.647 129V123.28H193.318V129H192.647ZM192.647 121.839V121.19H193.318V121.839H192.647ZM196.756 129L194.314 123.28H195.018L197.064 128.142L199.11 123.28H199.814L197.372 129H196.756ZM203.107 129.11C201.589 129.11 200.203 128.054 200.203 126.129C200.203 124.215 201.6 123.17 203.03 123.17C204.482 123.17 205.945 124.226 205.758 126.382H200.841C200.951 127.768 201.985 128.516 203.184 128.516C203.91 128.516 204.581 128.241 204.999 127.746L205.351 128.109C204.834 128.747 203.998 129.11 203.107 129.11ZM200.841 125.843H205.153C205.12 124.501 204.119 123.764 203.03 123.764C201.974 123.764 200.962 124.479 200.841 125.843ZM215.634 129L213.665 124.105L211.696 129H211.069L208.891 123.28H209.573L211.388 128.131L213.335 123.28H213.995L215.942 128.131L217.757 123.28H218.439L216.261 129H215.634ZM219.438 129V121.19H220.109V124.281C220.395 123.72 221.033 123.17 222.089 123.17C223.31 123.17 224.355 123.929 224.355 125.634V129H223.684V125.711C223.684 124.402 222.903 123.786 221.913 123.786C220.934 123.786 220.109 124.402 220.109 125.711V129H219.438ZM228.373 129.11C226.855 129.11 225.469 128.054 225.469 126.129C225.469 124.215 226.866 123.17 228.296 123.17C229.748 123.17 231.211 124.226 231.024 126.382H226.107C226.217 127.768 227.251 128.516 228.45 128.516C229.176 128.516 229.847 128.241 230.265 127.746L230.617 128.109C230.1 128.747 229.264 129.11 228.373 129.11ZM226.107 125.843H230.419C230.386 124.501 229.385 123.764 228.296 123.764C227.24 123.764 226.228 124.479 226.107 125.843ZM232.146 129V123.28H232.817V124.281C233.103 123.72 233.741 123.17 234.797 123.17C236.018 123.17 237.063 123.929 237.063 125.634V129H236.392V125.711C236.392 124.402 235.611 123.786 234.621 123.786C233.642 123.786 232.817 124.402 232.817 125.711V129H232.146ZM241.936 131.09L242.882 128.956L240.462 123.28H241.166L243.212 128.142L245.258 123.28H245.962L243.52 129L242.596 131.09H241.936ZM249.3 129.11C247.826 129.11 246.352 128.043 246.352 126.14C246.352 124.237 247.826 123.17 249.3 123.17C250.774 123.17 252.248 124.237 252.248 126.14C252.248 128.043 250.774 129.11 249.3 129.11ZM247.023 126.14C247.023 127.658 248.145 128.494 249.3 128.494C250.455 128.494 251.577 127.658 251.577 126.14C251.577 124.622 250.455 123.786 249.3 123.786C248.145 123.786 247.023 124.622 247.023 126.14ZM258.279 123.28V129H257.608V127.999C257.322 128.56 256.684 129.11 255.628 129.11C254.407 129.11 253.362 128.351 253.362 126.646V123.28H254.033V126.569C254.033 127.878 254.814 128.494 255.804 128.494C256.783 128.494 257.608 127.878 257.608 126.569V123.28H258.279ZM259.668 129V123.28H260.339V124.611C260.57 123.841 261.142 123.17 262.198 123.17C262.33 123.17 262.418 123.181 262.495 123.203V123.83C262.407 123.808 262.33 123.797 262.209 123.797C261.164 123.797 260.339 124.622 260.339 125.964V129H259.668ZM265.791 129V123.28H266.462V124.611C266.693 123.841 267.265 123.17 268.321 123.17C268.453 123.17 268.541 123.181 268.618 123.203V123.83C268.53 123.808 268.453 123.797 268.332 123.797C267.287 123.797 266.462 124.622 266.462 125.964V129H265.791ZM272.201 129.11C270.683 129.11 269.297 128.054 269.297 126.129C269.297 124.215 270.694 123.17 272.124 123.17C273.576 123.17 275.039 124.226 274.852 126.382H269.935C270.045 127.768 271.079 128.516 272.278 128.516C273.004 128.516 273.675 128.241 274.093 127.746L274.445 128.109C273.928 128.747 273.092 129.11 272.201 129.11ZM269.935 125.843H274.247C274.214 124.501 273.213 123.764 272.124 123.764C271.068 123.764 270.056 124.479 269.935 125.843ZM276.216 122.532C276.216 121.278 277.041 120.981 277.679 120.981C278.042 120.981 278.317 121.08 278.515 121.201V121.74C278.317 121.63 278.053 121.564 277.789 121.564C277.283 121.564 276.887 121.806 276.887 122.62V123.28H278.515V123.841H276.887V129H276.216V123.841H275.589V123.28H276.216V122.532ZM282.03 129.11C280.512 129.11 279.126 128.054 279.126 126.129C279.126 124.215 280.523 123.17 281.953 123.17C283.405 123.17 284.868 124.226 284.681 126.382H279.764C279.874 127.768 280.908 128.516 282.107 128.516C282.833 128.516 283.504 128.241 283.922 127.746L284.274 128.109C283.757 128.747 282.921 129.11 282.03 129.11ZM279.764 125.843H284.076C284.043 124.501 283.042 123.764 281.953 123.764C280.897 123.764 279.885 124.479 279.764 125.843ZM285.803 129V123.28H286.474V124.611C286.705 123.841 287.277 123.17 288.333 123.17C288.465 123.17 288.553 123.181 288.63 123.203V123.83C288.542 123.808 288.465 123.797 288.344 123.797C287.299 123.797 286.474 124.622 286.474 125.964V129H285.803ZM289.746 129V123.28H290.417V124.611C290.648 123.841 291.22 123.17 292.276 123.17C292.408 123.17 292.496 123.181 292.573 123.203V123.83C292.485 123.808 292.408 123.797 292.287 123.797C291.242 123.797 290.417 124.622 290.417 125.964V129H289.746ZM296.09 129.11C294.66 129.11 293.252 128.087 293.252 126.14C293.252 124.193 294.66 123.17 296.09 123.17C297.168 123.17 298.048 123.764 298.378 124.501H298.411V123.28H299.082V129H298.411V127.779H298.378C298.048 128.516 297.168 129.11 296.09 129.11ZM293.923 126.14C293.923 127.724 295.056 128.494 296.178 128.494C297.3 128.494 298.433 127.713 298.433 126.14C298.433 124.567 297.3 123.786 296.178 123.786C295.056 123.786 293.923 124.556 293.923 126.14ZM300.466 129V121.19H301.137V129H300.466ZM43.855 146.11C42.392 146.11 40.918 145.043 40.918 143.151C40.918 141.237 42.392 140.17 43.855 140.17C44.845 140.17 45.802 140.654 46.297 141.578L45.769 141.875C45.384 141.171 44.647 140.786 43.877 140.786C42.744 140.786 41.589 141.622 41.589 143.151C41.589 144.658 42.744 145.494 43.877 145.494C44.647 145.494 45.384 145.109 45.769 144.405L46.297 144.702C45.802 145.626 44.845 146.11 43.855 146.11ZM50.0213 146.11C48.5473 146.11 47.0733 145.043 47.0733 143.14C47.0733 141.237 48.5473 140.17 50.0213 140.17C51.4953 140.17 52.9693 141.237 52.9693 143.14C52.9693 145.043 51.4953 146.11 50.0213 146.11ZM47.7443 143.14C47.7443 144.658 48.8663 145.494 50.0213 145.494C51.1763 145.494 52.2983 144.658 52.2983 143.14C52.2983 141.622 51.1763 140.786 50.0213 140.786C48.8663 140.786 47.7443 141.622 47.7443 143.14ZM57.9336 146V142.678C57.9336 141.534 57.4276 140.786 56.3826 140.786C55.3376 140.786 54.7546 141.534 54.7546 142.678V146H54.0836V140.28H54.7546V141.215C55.0186 140.676 55.5796 140.17 56.5476 140.17C57.3946 140.17 58.0986 140.566 58.4176 141.424C58.6596 140.819 59.2756 140.17 60.3866 140.17C61.5746 140.17 62.4546 140.918 62.4546 142.612V146H61.7836V142.678C61.7836 141.534 61.2776 140.786 60.2326 140.786C59.1986 140.786 58.6046 141.534 58.6046 142.678V146H57.9336ZM63.8375 148.09V140.28H64.5085V141.501H64.5415C64.8715 140.764 65.7515 140.17 66.8295 140.17C68.2595 140.17 69.6675 141.193 69.6675 143.14C69.6675 145.087 68.2595 146.11 66.8295 146.11C65.7515 146.11 64.8715 145.516 64.5415 144.779H64.5085V148.09H63.8375ZM64.4865 143.14C64.4865 144.713 65.6195 145.494 66.7415 145.494C67.8635 145.494 68.9965 144.724 68.9965 143.14C68.9965 141.556 67.8635 140.786 66.7415 140.786C65.6195 140.786 64.4865 141.567 64.4865 143.14ZM70.777 146V138.19H71.448V146H70.777ZM75.4577 146.11C73.9397 146.11 72.5537 145.054 72.5537 143.129C72.5537 141.215 73.9507 140.17 75.3807 140.17C76.8327 140.17 78.2957 141.226 78.1087 143.382H73.1917C73.3017 144.768 74.3357 145.516 75.5347 145.516C76.2607 145.516 76.9317 145.241 77.3497 144.746L77.7017 145.109C77.1847 145.747 76.3487 146.11 75.4577 146.11ZM73.1917 142.843H77.5037C77.4707 141.501 76.4697 140.764 75.3807 140.764C74.3247 140.764 73.3127 141.479 73.1917 142.843ZM80.632 146.066C79.972 146.066 79.532 145.747 79.532 145.032V140.841H78.795V140.28H79.532V138.817H80.203V140.28H81.314V140.841H80.203V144.889C80.203 145.263 80.39 145.461 80.775 145.461C80.907 145.461 81.083 145.439 81.292 145.351V145.901C81.094 146.033 80.852 146.066 80.632 146.066ZM85.0505 146.11C83.5325 146.11 82.1465 145.054 82.1465 143.129C82.1465 141.215 83.5435 140.17 84.9735 140.17C86.4255 140.17 87.8885 141.226 87.7015 143.382H82.7845C82.8945 144.768 83.9285 145.516 85.1275 145.516C85.8535 145.516 86.5245 145.241 86.9425 144.746L87.2945 145.109C86.7775 145.747 85.9415 146.11 85.0505 146.11ZM82.7845 142.843H87.0965C87.0635 141.501 86.0625 140.764 84.9735 140.764C83.9175 140.764 82.9055 141.479 82.7845 142.843ZM90.2907 146.11C89.2457 146.11 88.5087 145.527 88.3327 144.592L88.9157 144.427C89.0917 145.142 89.6197 145.527 90.2907 145.527C90.9067 145.527 91.5227 145.219 91.5227 144.504C91.5227 143.921 91.1267 143.657 90.3787 143.338L89.9387 143.162C88.9927 142.777 88.6077 142.227 88.6077 141.6C88.6077 140.753 89.3227 140.17 90.2687 140.17C91.1267 140.17 91.7757 140.643 91.9737 141.369L91.4347 141.545C91.2477 141.061 90.8957 140.742 90.2907 140.742C89.7407 140.742 89.2677 141.028 89.2677 141.6C89.2677 142.029 89.5317 142.359 90.2027 142.634L90.5877 142.788C91.5777 143.195 92.1937 143.58 92.1937 144.504C92.1937 145.615 91.2367 146.11 90.2907 146.11ZM98.0309 146.11C96.6449 146.11 95.5339 145.131 95.5339 143.624C95.5339 142.392 96.3039 141.457 96.7219 140.874L98.6249 138.19H99.3839L96.9309 141.633C97.3599 141.347 97.7889 141.281 98.1299 141.281C99.4609 141.281 100.539 142.227 100.539 143.657C100.539 145.131 99.4169 146.11 98.0309 146.11ZM96.1829 143.679C96.1829 144.812 97.0409 145.494 98.0309 145.494C99.0209 145.494 99.8899 144.812 99.8899 143.679C99.8899 142.557 99.0209 141.875 98.0309 141.875C97.0409 141.875 96.1829 142.557 96.1829 143.679ZM108.003 146V142.678C108.003 141.534 107.497 140.786 106.452 140.786C105.407 140.786 104.824 141.534 104.824 142.678V146H104.153V140.28H104.824V141.215C105.088 140.676 105.649 140.17 106.617 140.17C107.464 140.17 108.168 140.566 108.487 141.424C108.729 140.819 109.345 140.17 110.456 140.17C111.644 140.17 112.524 140.918 112.524 142.612V146H111.853V142.678C111.853 141.534 111.347 140.786 110.302 140.786C109.268 140.786 108.674 141.534 108.674 142.678V146H108.003ZM116.58 146.11C115.106 146.11 113.632 145.043 113.632 143.14C113.632 141.237 115.106 140.17 116.58 140.17C118.054 140.17 119.528 141.237 119.528 143.14C119.528 145.043 118.054 146.11 116.58 146.11ZM114.303 143.14C114.303 144.658 115.425 145.494 116.58 145.494C117.735 145.494 118.857 144.658 118.857 143.14C118.857 141.622 117.735 140.786 116.58 140.786C115.425 140.786 114.303 141.622 114.303 143.14ZM120.642 146V140.28H121.313V141.281C121.599 140.72 122.237 140.17 123.293 140.17C124.514 140.17 125.559 140.929 125.559 142.634V146H124.888V142.711C124.888 141.402 124.107 140.786 123.117 140.786C122.138 140.786 121.313 141.402 121.313 142.711V146H120.642ZM128.349 146.066C127.689 146.066 127.249 145.747 127.249 145.032V140.841H126.512V140.28H127.249V138.817H127.92V140.28H129.031V140.841H127.92V144.889C127.92 145.263 128.107 145.461 128.492 145.461C128.624 145.461 128.8 145.439 129.009 145.351V145.901C128.811 146.033 128.569 146.066 128.349 146.066ZM130.192 146V138.19H130.863V141.281C131.149 140.72 131.787 140.17 132.843 140.17C134.064 140.17 135.109 140.929 135.109 142.634V146H134.438V142.711C134.438 141.402 133.657 140.786 132.667 140.786C131.688 140.786 130.863 141.402 130.863 142.711V146H130.192ZM138.126 146.11C137.081 146.11 136.344 145.527 136.168 144.592L136.751 144.427C136.927 145.142 137.455 145.527 138.126 145.527C138.742 145.527 139.358 145.219 139.358 144.504C139.358 143.921 138.962 143.657 138.214 143.338L137.774 143.162C136.828 142.777 136.443 142.227 136.443 141.6C136.443 140.753 137.158 140.17 138.104 140.17C138.962 140.17 139.611 140.643 139.809 141.369L139.27 141.545C139.083 141.061 138.731 140.742 138.126 140.742C137.576 140.742 137.103 141.028 137.103 141.6C137.103 142.029 137.367 142.359 138.038 142.634L138.423 142.788C139.413 143.195 140.029 143.58 140.029 144.504C140.029 145.615 139.072 146.11 138.126 146.11ZM149.892 146L147.923 141.105L145.954 146H145.327L143.149 140.28H143.831L145.646 145.131L147.593 140.28H148.253L150.2 145.131L152.015 140.28H152.697L150.519 146H149.892ZM153.696 146V140.28H154.367V146H153.696ZM153.696 138.839V138.19H154.367V138.839H153.696ZM157.31 146.066C156.65 146.066 156.21 145.747 156.21 145.032V140.841H155.473V140.28H156.21V138.817H156.881V140.28H157.992V140.841H156.881V144.889C156.881 145.263 157.068 145.461 157.453 145.461C157.585 145.461 157.761 145.439 157.97 145.351V145.901C157.772 146.033 157.53 146.066 157.31 146.066ZM159.153 146V138.19H159.824V141.281C160.11 140.72 160.748 140.17 161.804 140.17C163.025 140.17 164.07 140.929 164.07 142.634V146H163.399V142.711C163.399 141.402 162.618 140.786 161.628 140.786C160.649 140.786 159.824 141.402 159.824 142.711V146H159.153ZM167.854 146V138.19H170.296C171.968 138.19 172.936 139.257 172.936 140.676C172.936 142.128 171.968 143.184 170.296 143.184H168.536V146H167.854ZM168.536 142.535H170.241C171.473 142.535 172.232 141.864 172.232 140.676C172.232 139.488 171.473 138.839 170.241 138.839H168.536V142.535ZM176.454 146.11C175.024 146.11 173.616 145.087 173.616 143.14C173.616 141.193 175.024 140.17 176.454 140.17C177.532 140.17 178.412 140.764 178.742 141.501H178.775V140.28H179.446V146H178.775V144.779H178.742C178.412 145.516 177.532 146.11 176.454 146.11ZM174.287 143.14C174.287 144.724 175.42 145.494 176.542 145.494C177.664 145.494 178.797 144.713 178.797 143.14C178.797 141.567 177.664 140.786 176.542 140.786C175.42 140.786 174.287 141.556 174.287 143.14ZM180.831 146V140.28H181.502V146H180.831ZM180.831 138.839V138.19H181.502V138.839H180.831ZM184.51 146.11C183.465 146.11 182.728 145.527 182.552 144.592L183.135 144.427C183.311 145.142 183.839 145.527 184.51 145.527C185.126 145.527 185.742 145.219 185.742 144.504C185.742 143.921 185.346 143.657 184.598 143.338L184.158 143.162C183.212 142.777 182.827 142.227 182.827 141.6C182.827 140.753 183.542 140.17 184.488 140.17C185.346 140.17 185.995 140.643 186.193 141.369L185.654 141.545C185.467 141.061 185.115 140.742 184.51 140.742C183.96 140.742 183.487 141.028 183.487 141.6C183.487 142.029 183.751 142.359 184.422 142.634L184.807 142.788C185.797 143.195 186.413 143.58 186.413 144.504C186.413 145.615 185.456 146.11 184.51 146.11ZM190.086 146.11C188.656 146.11 187.248 145.087 187.248 143.14C187.248 141.193 188.656 140.17 190.086 140.17C191.164 140.17 192.044 140.764 192.374 141.501H192.407V140.28H193.078V146H192.407V144.779H192.374C192.044 145.516 191.164 146.11 190.086 146.11ZM187.919 143.14C187.919 144.724 189.052 145.494 190.174 145.494C191.296 145.494 192.429 144.713 192.429 143.14C192.429 141.567 191.296 140.786 190.174 140.786C189.052 140.786 187.919 141.556 187.919 143.14ZM194.463 146V138.19H195.134V146H194.463ZM199.187 146.11C197.713 146.11 196.239 145.043 196.239 143.14C196.239 141.237 197.713 140.17 199.187 140.17C200.661 140.17 202.135 141.237 202.135 143.14C202.135 145.043 200.661 146.11 199.187 146.11ZM196.91 143.14C196.91 144.658 198.032 145.494 199.187 145.494C200.342 145.494 201.464 144.658 201.464 143.14C201.464 141.622 200.342 140.786 199.187 140.786C198.032 140.786 196.91 141.622 196.91 143.14ZM203.071 146.11C202.818 146.11 202.653 145.923 202.653 145.692C202.653 145.461 202.818 145.274 203.071 145.274C203.324 145.274 203.489 145.461 203.489 145.692C203.489 145.923 203.324 146.11 203.071 146.11ZM32.2952 165.338C32.0422 165.338 31.8772 165.151 31.8772 164.92C31.8772 164.689 32.0422 164.502 32.2952 164.502C32.5482 164.502 32.7132 164.689 32.7132 164.92C32.7132 165.151 32.5482 165.338 32.2952 165.338ZM43.624 168V164.513L40.863 160.19H41.644L43.965 163.875L46.286 160.19H47.067L44.306 164.513V168H43.624ZM49.409 168.11C47.935 168.11 46.461 167.043 46.461 165.14C46.461 163.237 47.935 162.17 49.409 162.17C50.883 162.17 52.357 163.237 52.357 165.14C52.357 167.043 50.883 168.11 49.409 168.11ZM47.132 165.14C47.132 166.658 48.254 167.494 49.409 167.494C50.564 167.494 51.686 166.658 51.686 165.14C51.686 163.622 50.564 162.786 49.409 162.786C48.254 162.786 47.132 163.622 47.132 165.14ZM58.3883 162.28V168H57.7173V166.999C57.4313 167.56 56.7933 168.11 55.7373 168.11C54.5163 168.11 53.4713 167.351 53.4713 165.646V162.28H54.1423V165.569C54.1423 166.878 54.9233 167.494 55.9133 167.494C56.8923 167.494 57.7173 166.878 57.7173 165.569V162.28H58.3883ZM68.5305 168L66.5615 163.105L64.5925 168H63.9655L61.7875 162.28H62.4695L64.2845 167.131L66.2315 162.28H66.8915L68.8385 167.131L70.6535 162.28H71.3355L69.1575 168H68.5305ZM72.3346 168V162.28H73.0056V168H72.3346ZM72.3346 160.839V160.19H73.0056V160.839H72.3346ZM74.3864 168V160.19H75.0574V168H74.3864ZM76.4381 168V160.19H77.1091V168H76.4381ZM80.8854 168V162.28H81.5564V163.611C81.7874 162.841 82.3594 162.17 83.4154 162.17C83.5474 162.17 83.6354 162.181 83.7124 162.203V162.83C83.6244 162.808 83.5474 162.797 83.4264 162.797C82.3814 162.797 81.5564 163.622 81.5564 164.964V168H80.8854ZM87.2956 168.11C85.7776 168.11 84.3916 167.054 84.3916 165.129C84.3916 163.215 85.7886 162.17 87.2186 162.17C88.6706 162.17 90.1336 163.226 89.9466 165.382H85.0296C85.1396 166.768 86.1736 167.516 87.3726 167.516C88.0986 167.516 88.7696 167.241 89.1876 166.746L89.5396 167.109C89.0226 167.747 88.1866 168.11 87.2956 168.11ZM85.0296 164.843H89.3416C89.3086 163.501 88.3076 162.764 87.2186 162.764C86.1626 162.764 85.1506 163.479 85.0296 164.843ZM93.731 168.11C92.268 168.11 90.794 167.043 90.794 165.151C90.794 163.237 92.268 162.17 93.731 162.17C94.721 162.17 95.678 162.654 96.173 163.578L95.645 163.875C95.26 163.171 94.523 162.786 93.753 162.786C92.62 162.786 91.465 163.622 91.465 165.151C91.465 166.658 92.62 167.494 93.753 167.494C94.523 167.494 95.26 167.109 95.645 166.405L96.173 166.702C95.678 167.626 94.721 168.11 93.731 168.11ZM99.7888 168.11C98.2708 168.11 96.8848 167.054 96.8848 165.129C96.8848 163.215 98.2818 162.17 99.7118 162.17C101.164 162.17 102.627 163.226 102.44 165.382H97.5228C97.6328 166.768 98.6668 167.516 99.8658 167.516C100.592 167.516 101.263 167.241 101.681 166.746L102.033 167.109C101.516 167.747 100.68 168.11 99.7888 168.11ZM97.5228 164.843H101.835C101.802 163.501 100.801 162.764 99.7118 162.764C98.6558 162.764 97.6438 163.479 97.5228 164.843ZM103.562 168V162.28H104.233V168H103.562ZM103.562 160.839V160.19H104.233V160.839H103.562ZM107.671 168L105.229 162.28H105.933L107.979 167.142L110.025 162.28H110.729L108.287 168H107.671ZM114.022 168.11C112.504 168.11 111.118 167.054 111.118 165.129C111.118 163.215 112.515 162.17 113.945 162.17C115.397 162.17 116.86 163.226 116.673 165.382H111.756C111.866 166.768 112.9 167.516 114.099 167.516C114.825 167.516 115.496 167.241 115.914 166.746L116.266 167.109C115.749 167.747 114.913 168.11 114.022 168.11ZM111.756 164.843H116.068C116.035 163.501 115.034 162.764 113.945 162.764C112.889 162.764 111.877 163.479 111.756 164.843ZM122.754 168.11C121.324 168.11 119.916 167.087 119.916 165.14C119.916 163.193 121.324 162.17 122.754 162.17C123.832 162.17 124.712 162.764 125.042 163.501H125.075V162.28H125.746V168H125.075V166.779H125.042C124.712 167.516 123.832 168.11 122.754 168.11ZM120.587 165.14C120.587 166.724 121.72 167.494 122.842 167.494C123.964 167.494 125.097 166.713 125.097 165.14C125.097 163.567 123.964 162.786 122.842 162.786C121.72 162.786 120.587 163.556 120.587 165.14ZM127.131 168V162.28H127.802V163.281C128.088 162.72 128.726 162.17 129.782 162.17C131.003 162.17 132.048 162.929 132.048 164.634V168H131.377V164.711C131.377 163.402 130.596 162.786 129.606 162.786C128.627 162.786 127.802 163.402 127.802 164.711V168H127.131ZM136.109 168.11C134.635 168.11 133.161 167.043 133.161 165.14C133.161 163.237 134.635 162.17 136.109 162.17C137.583 162.17 139.057 163.237 139.057 165.14C139.057 167.043 137.583 168.11 136.109 168.11ZM133.832 165.14C133.832 166.658 134.954 167.494 136.109 167.494C137.264 167.494 138.386 166.658 138.386 165.14C138.386 163.622 137.264 162.786 136.109 162.786C134.954 162.786 133.832 163.622 133.832 165.14ZM141.572 168.066C140.912 168.066 140.472 167.747 140.472 167.032V162.841H139.735V162.28H140.472V160.817H141.143V162.28H142.254V162.841H141.143V166.889C141.143 167.263 141.33 167.461 141.715 167.461C141.847 167.461 142.023 167.439 142.232 167.351V167.901C142.034 168.033 141.792 168.066 141.572 168.066ZM143.416 168V160.19H144.087V163.281C144.373 162.72 145.011 162.17 146.067 162.17C147.288 162.17 148.333 162.929 148.333 164.634V168H147.662V164.711C147.662 163.402 146.881 162.786 145.891 162.786C144.912 162.786 144.087 163.402 144.087 164.711V168H143.416ZM152.35 168.11C150.832 168.11 149.446 167.054 149.446 165.129C149.446 163.215 150.843 162.17 152.273 162.17C153.725 162.17 155.188 163.226 155.001 165.382H150.084C150.194 166.768 151.228 167.516 152.427 167.516C153.153 167.516 153.824 167.241 154.242 166.746L154.594 167.109C154.077 167.747 153.241 168.11 152.35 168.11ZM150.084 164.843H154.396C154.363 163.501 153.362 162.764 152.273 162.764C151.217 162.764 150.205 163.479 150.084 164.843ZM156.124 168V162.28H156.795V163.611C157.026 162.841 157.598 162.17 158.654 162.17C158.786 162.17 158.874 162.181 158.951 162.203V162.83C158.863 162.808 158.786 162.797 158.665 162.797C157.62 162.797 156.795 163.622 156.795 164.964V168H156.124ZM162.247 168V162.28H162.918V168H162.247ZM162.247 160.839V160.19H162.918V160.839H162.247ZM164.298 168V162.28H164.969V163.281C165.255 162.72 165.893 162.17 166.949 162.17C168.17 162.17 169.215 162.929 169.215 164.634V168H168.544V164.711C168.544 163.402 167.763 162.786 166.773 162.786C165.794 162.786 164.969 163.402 164.969 164.711V168H164.298ZM173.266 168.11C171.803 168.11 170.329 167.043 170.329 165.151C170.329 163.237 171.803 162.17 173.266 162.17C174.256 162.17 175.213 162.654 175.708 163.578L175.18 163.875C174.795 163.171 174.058 162.786 173.288 162.786C172.155 162.786 171 163.622 171 165.151C171 166.658 172.155 167.494 173.288 167.494C174.058 167.494 174.795 167.109 175.18 166.405L175.708 166.702C175.213 167.626 174.256 168.11 173.266 168.11ZM179.324 168.11C177.806 168.11 176.42 167.054 176.42 165.129C176.42 163.215 177.817 162.17 179.247 162.17C180.699 162.17 182.162 163.226 181.975 165.382H177.058C177.168 166.768 178.202 167.516 179.401 167.516C180.127 167.516 180.798 167.241 181.216 166.746L181.568 167.109C181.051 167.747 180.215 168.11 179.324 168.11ZM177.058 164.843H181.37C181.337 163.501 180.336 162.764 179.247 162.764C178.191 162.764 177.179 163.479 177.058 164.843ZM183.097 168V162.28H183.768V163.281C184.054 162.72 184.692 162.17 185.748 162.17C186.969 162.17 188.014 162.929 188.014 164.634V168H187.343V164.711C187.343 163.402 186.562 162.786 185.572 162.786C184.593 162.786 183.768 163.402 183.768 164.711V168H183.097ZM190.804 168.066C190.144 168.066 189.704 167.747 189.704 167.032V162.841H188.967V162.28H189.704V160.817H190.375V162.28H191.486V162.841H190.375V166.889C190.375 167.263 190.562 167.461 190.947 167.461C191.079 167.461 191.255 167.439 191.464 167.351V167.901C191.266 168.033 191.024 168.066 190.804 168.066ZM192.647 168V162.28H193.318V168H192.647ZM192.647 160.839V160.19H193.318V160.839H192.647ZM196.756 168L194.314 162.28H195.018L197.064 167.142L199.11 162.28H199.814L197.372 168H196.756ZM203.107 168.11C201.589 168.11 200.203 167.054 200.203 165.129C200.203 163.215 201.6 162.17 203.03 162.17C204.482 162.17 205.945 163.226 205.758 165.382H200.841C200.951 166.768 201.985 167.516 203.184 167.516C203.91 167.516 204.581 167.241 204.999 166.746L205.351 167.109C204.834 167.747 203.998 168.11 203.107 168.11ZM200.841 164.843H205.153C205.12 163.501 204.119 162.764 203.03 162.764C201.974 162.764 200.962 163.479 200.841 164.843ZM215.634 168L213.665 163.105L211.696 168H211.069L208.891 162.28H209.573L211.388 167.131L213.335 162.28H213.995L215.942 167.131L217.757 162.28H218.439L216.261 168H215.634ZM219.438 168V160.19H220.109V163.281C220.395 162.72 221.033 162.17 222.089 162.17C223.31 162.17 224.355 162.929 224.355 164.634V168H223.684V164.711C223.684 163.402 222.903 162.786 221.913 162.786C220.934 162.786 220.109 163.402 220.109 164.711V168H219.438ZM228.373 168.11C226.855 168.11 225.469 167.054 225.469 165.129C225.469 163.215 226.866 162.17 228.296 162.17C229.748 162.17 231.211 163.226 231.024 165.382H226.107C226.217 166.768 227.251 167.516 228.45 167.516C229.176 167.516 229.847 167.241 230.265 166.746L230.617 167.109C230.1 167.747 229.264 168.11 228.373 168.11ZM226.107 164.843H230.419C230.386 163.501 229.385 162.764 228.296 162.764C227.24 162.764 226.228 163.479 226.107 164.843ZM232.146 168V162.28H232.817V163.281C233.103 162.72 233.741 162.17 234.797 162.17C236.018 162.17 237.063 162.929 237.063 164.634V168H236.392V164.711C236.392 163.402 235.611 162.786 234.621 162.786C233.642 162.786 232.817 163.402 232.817 164.711V168H232.146ZM241.936 170.09L242.882 167.956L240.462 162.28H241.166L243.212 167.142L245.258 162.28H245.962L243.52 168L242.596 170.09H241.936ZM249.3 168.11C247.826 168.11 246.352 167.043 246.352 165.14C246.352 163.237 247.826 162.17 249.3 162.17C250.774 162.17 252.248 163.237 252.248 165.14C252.248 167.043 250.774 168.11 249.3 168.11ZM247.023 165.14C247.023 166.658 248.145 167.494 249.3 167.494C250.455 167.494 251.577 166.658 251.577 165.14C251.577 163.622 250.455 162.786 249.3 162.786C248.145 162.786 247.023 163.622 247.023 165.14ZM258.279 162.28V168H257.608V166.999C257.322 167.56 256.684 168.11 255.628 168.11C254.407 168.11 253.362 167.351 253.362 165.646V162.28H254.033V165.569C254.033 166.878 254.814 167.494 255.804 167.494C256.783 167.494 257.608 166.878 257.608 165.569V162.28H258.279ZM259.668 168V162.28H260.339V163.611C260.57 162.841 261.142 162.17 262.198 162.17C262.33 162.17 262.418 162.181 262.495 162.203V162.83C262.407 162.808 262.33 162.797 262.209 162.797C261.164 162.797 260.339 163.622 260.339 164.964V168H259.668ZM265.791 168V162.28H266.462V163.611C266.693 162.841 267.265 162.17 268.321 162.17C268.453 162.17 268.541 162.181 268.618 162.203V162.83C268.53 162.808 268.453 162.797 268.332 162.797C267.287 162.797 266.462 163.622 266.462 164.964V168H265.791ZM272.201 168.11C270.683 168.11 269.297 167.054 269.297 165.129C269.297 163.215 270.694 162.17 272.124 162.17C273.576 162.17 275.039 163.226 274.852 165.382H269.935C270.045 166.768 271.079 167.516 272.278 167.516C273.004 167.516 273.675 167.241 274.093 166.746L274.445 167.109C273.928 167.747 273.092 168.11 272.201 168.11ZM269.935 164.843H274.247C274.214 163.501 273.213 162.764 272.124 162.764C271.068 162.764 270.056 163.479 269.935 164.843ZM276.216 161.532C276.216 160.278 277.041 159.981 277.679 159.981C278.042 159.981 278.317 160.08 278.515 160.201V160.74C278.317 160.63 278.053 160.564 277.789 160.564C277.283 160.564 276.887 160.806 276.887 161.62V162.28H278.515V162.841H276.887V168H276.216V162.841H275.589V162.28H276.216V161.532ZM282.03 168.11C280.512 168.11 279.126 167.054 279.126 165.129C279.126 163.215 280.523 162.17 281.953 162.17C283.405 162.17 284.868 163.226 284.681 165.382H279.764C279.874 166.768 280.908 167.516 282.107 167.516C282.833 167.516 283.504 167.241 283.922 166.746L284.274 167.109C283.757 167.747 282.921 168.11 282.03 168.11ZM279.764 164.843H284.076C284.043 163.501 283.042 162.764 281.953 162.764C280.897 162.764 279.885 163.479 279.764 164.843ZM285.803 168V162.28H286.474V163.611C286.705 162.841 287.277 162.17 288.333 162.17C288.465 162.17 288.553 162.181 288.63 162.203V162.83C288.542 162.808 288.465 162.797 288.344 162.797C287.299 162.797 286.474 163.622 286.474 164.964V168H285.803ZM289.746 168V162.28H290.417V163.611C290.648 162.841 291.22 162.17 292.276 162.17C292.408 162.17 292.496 162.181 292.573 162.203V162.83C292.485 162.808 292.408 162.797 292.287 162.797C291.242 162.797 290.417 163.622 290.417 164.964V168H289.746ZM296.09 168.11C294.66 168.11 293.252 167.087 293.252 165.14C293.252 163.193 294.66 162.17 296.09 162.17C297.168 162.17 298.048 162.764 298.378 163.501H298.411V162.28H299.082V168H298.411V166.779H298.378C298.048 167.516 297.168 168.11 296.09 168.11ZM293.923 165.14C293.923 166.724 295.056 167.494 296.178 167.494C297.3 167.494 298.433 166.713 298.433 165.14C298.433 163.567 297.3 162.786 296.178 162.786C295.056 162.786 293.923 163.556 293.923 165.14ZM300.466 168V160.19H301.137V168H300.466ZM43.855 185.11C42.392 185.11 40.918 184.043 40.918 182.151C40.918 180.237 42.392 179.17 43.855 179.17C44.845 179.17 45.802 179.654 46.297 180.578L45.769 180.875C45.384 180.171 44.647 179.786 43.877 179.786C42.744 179.786 41.589 180.622 41.589 182.151C41.589 183.658 42.744 184.494 43.877 184.494C44.647 184.494 45.384 184.109 45.769 183.405L46.297 183.702C45.802 184.626 44.845 185.11 43.855 185.11ZM50.0213 185.11C48.5473 185.11 47.0733 184.043 47.0733 182.14C47.0733 180.237 48.5473 179.17 50.0213 179.17C51.4953 179.17 52.9693 180.237 52.9693 182.14C52.9693 184.043 51.4953 185.11 50.0213 185.11ZM47.7443 182.14C47.7443 183.658 48.8663 184.494 50.0213 184.494C51.1763 184.494 52.2983 183.658 52.2983 182.14C52.2983 180.622 51.1763 179.786 50.0213 179.786C48.8663 179.786 47.7443 180.622 47.7443 182.14ZM57.9336 185V181.678C57.9336 180.534 57.4276 179.786 56.3826 179.786C55.3376 179.786 54.7546 180.534 54.7546 181.678V185H54.0836V179.28H54.7546V180.215C55.0186 179.676 55.5796 179.17 56.5476 179.17C57.3946 179.17 58.0986 179.566 58.4176 180.424C58.6596 179.819 59.2756 179.17 60.3866 179.17C61.5746 179.17 62.4546 179.918 62.4546 181.612V185H61.7836V181.678C61.7836 180.534 61.2776 179.786 60.2326 179.786C59.1986 179.786 58.6046 180.534 58.6046 181.678V185H57.9336ZM63.8375 187.09V179.28H64.5085V180.501H64.5415C64.8715 179.764 65.7515 179.17 66.8295 179.17C68.2595 179.17 69.6675 180.193 69.6675 182.14C69.6675 184.087 68.2595 185.11 66.8295 185.11C65.7515 185.11 64.8715 184.516 64.5415 183.779H64.5085V187.09H63.8375ZM64.4865 182.14C64.4865 183.713 65.6195 184.494 66.7415 184.494C67.8635 184.494 68.9965 183.724 68.9965 182.14C68.9965 180.556 67.8635 179.786 66.7415 179.786C65.6195 179.786 64.4865 180.567 64.4865 182.14ZM70.777 185V177.19H71.448V185H70.777ZM75.4577 185.11C73.9397 185.11 72.5537 184.054 72.5537 182.129C72.5537 180.215 73.9507 179.17 75.3807 179.17C76.8327 179.17 78.2957 180.226 78.1087 182.382H73.1917C73.3017 183.768 74.3357 184.516 75.5347 184.516C76.2607 184.516 76.9317 184.241 77.3497 183.746L77.7017 184.109C77.1847 184.747 76.3487 185.11 75.4577 185.11ZM73.1917 181.843H77.5037C77.4707 180.501 76.4697 179.764 75.3807 179.764C74.3247 179.764 73.3127 180.479 73.1917 181.843ZM80.632 185.066C79.972 185.066 79.532 184.747 79.532 184.032V179.841H78.795V179.28H79.532V177.817H80.203V179.28H81.314V179.841H80.203V183.889C80.203 184.263 80.39 184.461 80.775 184.461C80.907 184.461 81.083 184.439 81.292 184.351V184.901C81.094 185.033 80.852 185.066 80.632 185.066ZM85.0505 185.11C83.5325 185.11 82.1465 184.054 82.1465 182.129C82.1465 180.215 83.5435 179.17 84.9735 179.17C86.4255 179.17 87.8885 180.226 87.7015 182.382H82.7845C82.8945 183.768 83.9285 184.516 85.1275 184.516C85.8535 184.516 86.5245 184.241 86.9425 183.746L87.2945 184.109C86.7775 184.747 85.9415 185.11 85.0505 185.11ZM82.7845 181.843H87.0965C87.0635 180.501 86.0625 179.764 84.9735 179.764C83.9175 179.764 82.9055 180.479 82.7845 181.843ZM90.2907 185.11C89.2457 185.11 88.5087 184.527 88.3327 183.592L88.9157 183.427C89.0917 184.142 89.6197 184.527 90.2907 184.527C90.9067 184.527 91.5227 184.219 91.5227 183.504C91.5227 182.921 91.1267 182.657 90.3787 182.338L89.9387 182.162C88.9927 181.777 88.6077 181.227 88.6077 180.6C88.6077 179.753 89.3227 179.17 90.2687 179.17C91.1267 179.17 91.7757 179.643 91.9737 180.369L91.4347 180.545C91.2477 180.061 90.8957 179.742 90.2907 179.742C89.7407 179.742 89.2677 180.028 89.2677 180.6C89.2677 181.029 89.5317 181.359 90.2027 181.634L90.5877 181.788C91.5777 182.195 92.1937 182.58 92.1937 183.504C92.1937 184.615 91.2367 185.11 90.2907 185.11ZM96.6889 185V177.828H95.6549V177.19H97.3599V185H96.6889ZM102.406 187.09L103.352 184.956L100.932 179.28H101.636L103.682 184.142L105.728 179.28H106.432L103.99 185L103.066 187.09H102.406ZM109.725 185.11C108.207 185.11 106.821 184.054 106.821 182.129C106.821 180.215 108.218 179.17 109.648 179.17C111.1 179.17 112.563 180.226 112.376 182.382H107.459C107.569 183.768 108.603 184.516 109.802 184.516C110.528 184.516 111.199 184.241 111.617 183.746L111.969 184.109C111.452 184.747 110.616 185.11 109.725 185.11ZM107.459 181.843H111.771C111.738 180.501 110.737 179.764 109.648 179.764C108.592 179.764 107.58 180.479 107.459 181.843ZM116.062 185.11C114.632 185.11 113.224 184.087 113.224 182.14C113.224 180.193 114.632 179.17 116.062 179.17C117.14 179.17 118.02 179.764 118.35 180.501H118.383V179.28H119.054V185H118.383V183.779H118.35C118.02 184.516 117.14 185.11 116.062 185.11ZM113.895 182.14C113.895 183.724 115.028 184.494 116.15 184.494C117.272 184.494 118.405 183.713 118.405 182.14C118.405 180.567 117.272 179.786 116.15 179.786C115.028 179.786 113.895 180.556 113.895 182.14ZM120.438 185V179.28H121.109V180.611C121.34 179.841 121.912 179.17 122.968 179.17C123.1 179.17 123.188 179.181 123.265 179.203V179.83C123.177 179.808 123.1 179.797 122.979 179.797C121.934 179.797 121.109 180.622 121.109 181.964V185H120.438ZM132.919 185L130.95 180.105L128.981 185H128.354L126.176 179.28H126.858L128.673 184.131L130.62 179.28H131.28L133.227 184.131L135.042 179.28H135.724L133.546 185H132.919ZM136.723 185V179.28H137.394V185H136.723ZM136.723 177.839V177.19H137.394V177.839H136.723ZM140.337 185.066C139.677 185.066 139.237 184.747 139.237 184.032V179.841H138.5V179.28H139.237V177.817H139.908V179.28H141.019V179.841H139.908V183.889C139.908 184.263 140.095 184.461 140.48 184.461C140.612 184.461 140.788 184.439 140.997 184.351V184.901C140.799 185.033 140.557 185.066 140.337 185.066ZM142.18 185V177.19H142.851V180.281C143.137 179.72 143.775 179.17 144.831 179.17C146.052 179.17 147.097 179.929 147.097 181.634V185H146.426V181.711C146.426 180.402 145.645 179.786 144.655 179.786C143.676 179.786 142.851 180.402 142.851 181.711V185H142.18ZM150.881 185V177.19H153.323C154.995 177.19 155.963 178.257 155.963 179.676C155.963 181.128 154.995 182.184 153.323 182.184H151.563V185H150.881ZM151.563 181.535H153.268C154.5 181.535 155.259 180.864 155.259 179.676C155.259 178.488 154.5 177.839 153.268 177.839H151.563V181.535ZM159.482 185.11C158.052 185.11 156.644 184.087 156.644 182.14C156.644 180.193 158.052 179.17 159.482 179.17C160.56 179.17 161.44 179.764 161.77 180.501H161.803V179.28H162.474V185H161.803V183.779H161.77C161.44 184.516 160.56 185.11 159.482 185.11ZM157.315 182.14C157.315 183.724 158.448 184.494 159.57 184.494C160.692 184.494 161.825 183.713 161.825 182.14C161.825 180.567 160.692 179.786 159.57 179.786C158.448 179.786 157.315 180.556 157.315 182.14ZM163.858 185V179.28H164.529V185H163.858ZM163.858 177.839V177.19H164.529V177.839H163.858ZM167.538 185.11C166.493 185.11 165.756 184.527 165.58 183.592L166.163 183.427C166.339 184.142 166.867 184.527 167.538 184.527C168.154 184.527 168.77 184.219 168.77 183.504C168.77 182.921 168.374 182.657 167.626 182.338L167.186 182.162C166.24 181.777 165.855 181.227 165.855 180.6C165.855 179.753 166.57 179.17 167.516 179.17C168.374 179.17 169.023 179.643 169.221 180.369L168.682 180.545C168.495 180.061 168.143 179.742 167.538 179.742C166.988 179.742 166.515 180.028 166.515 180.6C166.515 181.029 166.779 181.359 167.45 181.634L167.835 181.788C168.825 182.195 169.441 182.58 169.441 183.504C169.441 184.615 168.484 185.11 167.538 185.11ZM173.113 185.11C171.683 185.11 170.275 184.087 170.275 182.14C170.275 180.193 171.683 179.17 173.113 179.17C174.191 179.17 175.071 179.764 175.401 180.501H175.434V179.28H176.105V185H175.434V183.779H175.401C175.071 184.516 174.191 185.11 173.113 185.11ZM170.946 182.14C170.946 183.724 172.079 184.494 173.201 184.494C174.323 184.494 175.456 183.713 175.456 182.14C175.456 180.567 174.323 179.786 173.201 179.786C172.079 179.786 170.946 180.556 170.946 182.14ZM177.49 185V177.19H178.161V185H177.49ZM182.215 185.11C180.741 185.11 179.267 184.043 179.267 182.14C179.267 180.237 180.741 179.17 182.215 179.17C183.689 179.17 185.163 180.237 185.163 182.14C185.163 184.043 183.689 185.11 182.215 185.11ZM179.938 182.14C179.938 183.658 181.06 184.494 182.215 184.494C183.37 184.494 184.492 183.658 184.492 182.14C184.492 180.622 183.37 179.786 182.215 179.786C181.06 179.786 179.938 180.622 179.938 182.14ZM186.098 185.11C185.845 185.11 185.68 184.923 185.68 184.692C185.68 184.461 185.845 184.274 186.098 184.274C186.351 184.274 186.516 184.461 186.516 184.692C186.516 184.923 186.351 185.11 186.098 185.11Z" fill="#292929"/>
<path d="M34.242 42V35.07H32.174V34.19H37.256V35.07H35.188V42H34.242ZM39.8484 42.11C38.3084 42.11 36.9114 41.043 36.9114 39.14C36.9114 37.215 38.3194 36.17 39.7604 36.17C41.2124 36.17 42.7304 37.215 42.4994 39.481H37.7914C37.9344 40.68 38.8474 41.318 39.9474 41.318C40.6184 41.318 41.2344 41.076 41.6524 40.625L42.1144 41.098C41.5974 41.736 40.7724 42.11 39.8484 42.11ZM37.7914 38.777H41.6854C41.6194 37.6 40.7284 36.973 39.7714 36.973C38.8254 36.973 37.9344 37.578 37.7914 38.777ZM43.5565 42V36.28H44.4805V37.699C44.6895 36.874 45.2615 36.17 46.3175 36.17C46.4495 36.17 46.5595 36.181 46.6475 36.214V37.083C46.5485 37.061 46.4605 37.05 46.3285 37.05C45.2615 37.05 44.4805 37.853 44.4805 39.129V42H43.5565ZM51.4547 42V38.7C51.4547 37.655 50.9817 37.017 50.0687 37.017C49.1447 37.017 48.5947 37.655 48.5947 38.7V42H47.6707V36.28H48.5947V37.171C48.8697 36.643 49.4307 36.17 50.3437 36.17C51.1467 36.17 51.8067 36.533 52.1477 37.325C52.4227 36.742 53.0387 36.17 54.0947 36.17C55.2827 36.17 56.1627 36.929 56.1627 38.634V42H55.2387V38.7C55.2387 37.655 54.7657 37.017 53.8527 37.017C52.9287 37.017 52.3787 37.655 52.3787 38.7V42H51.4547ZM59.1399 42.11C58.0729 42.11 57.3029 41.538 57.1269 40.559L57.8969 40.35C58.0509 40.955 58.5019 41.34 59.1399 41.34C59.6789 41.34 60.2179 41.076 60.2179 40.449C60.2179 39.976 59.8879 39.734 59.2279 39.459L58.7109 39.261C57.7649 38.876 57.3689 38.315 57.3689 37.666C57.3689 36.764 58.1499 36.17 59.1399 36.17C60.0529 36.17 60.7349 36.676 60.9329 37.446L60.1959 37.666C60.0199 37.193 59.6789 36.929 59.1729 36.929C58.6779 36.929 58.2819 37.193 58.2819 37.677C58.2819 38.04 58.5129 38.326 59.1069 38.568L59.5689 38.755C60.4709 39.107 61.1309 39.503 61.1309 40.449C61.1309 41.582 60.1739 42.11 59.1399 42.11ZM70.5867 42L69.5857 40.988C69.2117 41.3767 68.8121 41.6663 68.3867 41.857C67.9614 42.0403 67.4811 42.132 66.9457 42.132C66.4177 42.132 65.9484 42.0367 65.5377 41.846C65.1344 41.6553 64.8191 41.384 64.5917 41.032C64.3717 40.68 64.2617 40.2693 64.2617 39.8C64.2617 39.2647 64.4121 38.7953 64.7127 38.392C65.0207 37.9813 65.4717 37.6587 66.0657 37.424C65.8311 37.1453 65.6624 36.8887 65.5597 36.654C65.4571 36.4193 65.4057 36.1627 65.4057 35.884C65.4057 35.5613 65.4864 35.2717 65.6477 35.015C65.8164 34.751 66.0547 34.5457 66.3627 34.399C66.6707 34.2523 67.0264 34.179 67.4297 34.179C67.8257 34.179 68.1704 34.256 68.4637 34.41C68.7571 34.564 68.9771 34.7803 69.1237 35.059C69.2704 35.3303 69.3364 35.6347 69.3217 35.972H68.3207C68.3281 35.6713 68.2437 35.4367 68.0677 35.268C67.8917 35.092 67.6644 35.004 67.3857 35.004C67.0924 35.004 66.8541 35.0883 66.6707 35.257C66.4947 35.4183 66.4067 35.6273 66.4067 35.884C66.4067 36.104 66.4654 36.3167 66.5827 36.522C66.7074 36.7273 66.9127 36.9803 67.1987 37.281L69.4867 39.58L69.6847 39.272L70.4327 38.018H71.5107L70.6087 39.58C70.4841 39.8 70.3374 40.031 70.1687 40.273L71.8957 42H70.5867ZM66.9457 41.274C67.3417 41.274 67.6974 41.197 68.0127 41.043C68.3354 40.889 68.6397 40.6507 68.9257 40.328L66.6707 38.062C65.7321 38.4213 65.2627 38.9897 65.2627 39.767C65.2627 40.1997 65.4167 40.559 65.7247 40.845C66.0401 41.131 66.4471 41.274 66.9457 41.274ZM77.6831 42.11C76.1981 42.11 74.7131 41.054 74.7131 39.14C74.7131 37.226 76.1981 36.17 77.6831 36.17C78.6731 36.17 79.6081 36.643 80.1251 37.578L79.4211 37.996C79.0581 37.38 78.4091 37.017 77.6941 37.017C76.6601 37.017 75.6371 37.787 75.6371 39.14C75.6371 40.493 76.6601 41.263 77.6941 41.263C78.4091 41.263 79.0581 40.9 79.4211 40.284L80.1251 40.702C79.6081 41.626 78.6731 42.11 77.6831 42.11ZM83.7524 42.11C82.2674 42.11 80.7824 41.054 80.7824 39.14C80.7824 37.226 82.2674 36.17 83.7524 36.17C85.2374 36.17 86.7224 37.226 86.7224 39.14C86.7224 41.054 85.2374 42.11 83.7524 42.11ZM81.7064 39.14C81.7064 40.493 82.6964 41.263 83.7524 41.263C84.8084 41.263 85.7984 40.493 85.7984 39.14C85.7984 37.787 84.8084 37.017 83.7524 37.017C82.6964 37.017 81.7064 37.787 81.7064 39.14ZM87.7498 42V36.28H88.6738V37.215C88.9708 36.665 89.5978 36.17 90.5878 36.17C91.7868 36.17 92.8208 36.918 92.8208 38.634V42H91.8968V38.766C91.8968 37.611 91.2148 37.017 90.3018 37.017C89.3888 37.017 88.6738 37.611 88.6738 38.766V42H87.7498ZM99.7519 42H98.8279V40.922H98.7949C98.5199 41.527 97.7169 42.11 96.6499 42.11C95.2639 42.11 93.8449 41.098 93.8449 39.14C93.8449 37.182 95.2639 36.17 96.6499 36.17C97.7169 36.17 98.5199 36.753 98.7949 37.358H98.8279V34.19H99.7519V42ZM94.7689 39.14C94.7689 40.559 95.7919 41.263 96.8039 41.263C97.8379 41.263 98.8609 40.548 98.8609 39.14C98.8609 37.732 97.8379 37.017 96.8039 37.017C95.7919 37.017 94.7689 37.721 94.7689 39.14ZM101.049 42V36.28H101.973V42H101.049ZM101.049 35.048V34.19H101.973V35.048H101.049ZM105.043 42.066C104.284 42.066 103.767 41.692 103.767 40.834V37.039H102.997V36.28H103.767V34.817H104.691V36.28H105.824V37.039H104.691V40.658C104.691 41.01 104.867 41.23 105.296 41.23C105.428 41.23 105.604 41.208 105.813 41.131V41.868C105.615 42.022 105.307 42.066 105.043 42.066ZM106.903 42V36.28H107.827V42H106.903ZM106.903 35.048V34.19H107.827V35.048H106.903ZM111.822 42.11C110.337 42.11 108.852 41.054 108.852 39.14C108.852 37.226 110.337 36.17 111.822 36.17C113.307 36.17 114.792 37.226 114.792 39.14C114.792 41.054 113.307 42.11 111.822 42.11ZM109.776 39.14C109.776 40.493 110.766 41.263 111.822 41.263C112.878 41.263 113.868 40.493 113.868 39.14C113.868 37.787 112.878 37.017 111.822 37.017C110.766 37.017 109.776 37.787 109.776 39.14ZM115.819 42V36.28H116.743V37.215C117.04 36.665 117.667 36.17 118.657 36.17C119.856 36.17 120.89 36.918 120.89 38.634V42H119.966V38.766C119.966 37.611 119.284 37.017 118.371 37.017C117.458 37.017 116.743 37.611 116.743 38.766V42H115.819ZM123.872 42.11C122.805 42.11 122.035 41.538 121.859 40.559L122.629 40.35C122.783 40.955 123.234 41.34 123.872 41.34C124.411 41.34 124.95 41.076 124.95 40.449C124.95 39.976 124.62 39.734 123.96 39.459L123.443 39.261C122.497 38.876 122.101 38.315 122.101 37.666C122.101 36.764 122.882 36.17 123.872 36.17C124.785 36.17 125.467 36.676 125.665 37.446L124.928 37.666C124.752 37.193 124.411 36.929 123.905 36.929C123.41 36.929 123.014 37.193 123.014 37.677C123.014 38.04 123.245 38.326 123.839 38.568L124.301 38.755C125.203 39.107 125.863 39.503 125.863 40.449C125.863 41.582 124.906 42.11 123.872 42.11Z" fill="#292929"/>
<defs>
<filter id="filter0_dd_1505_108" x="0" y="0" width="339" height="220" filterUnits="userSpaceOnUse" color-interpolation-filters="sRGB">
<feFlood flood-opacity="0" result="BackgroundImageFix"/>
<feColorMatrix in="SourceAlpha" type="matrix" values="0 0 0 0 0 0 0 0 0 0 0 0 0 0 0 0 0 0 127 0" result="hardAlpha"/>
<feOffset dx="2" dy="2"/>
<feGaussianBlur stdDeviation="3"/>
<feComposite in2="hardAlpha" operator="out"/>
<feColorMatrix type="matrix" values="0 0 0 0 0.658824 0 0 0 0 0.0509804 0 0 0 0 0.109804 0 0 0 0.5 0"/>
<feBlend mode="normal" in2="BackgroundImageFix" result="effect1_dropShadow_1505_108"/>
<feColorMatrix in="SourceAlpha" type="matrix" values="0 0 0 0 0 0 0 0 0 0 0 0 0 0 0 0 0 0 127 0" result="hardAlpha"/>
<feOffset dx="-2" dy="-2"/>
<feGaussianBlur stdDeviation="3"/>
<feComposite in2="hardAlpha" operator="out"/>
<feColorMatrix type="matrix" values="0 0 0 0 0.658824 0 0 0 0 0.0509804 0 0 0 0 0.109804 0 0 0 0.5 0"/>
<feBlend mode="normal" in2="effect1_dropShadow_1505_108" result="effect2_dropShadow_1505_108"/>
<feBlend mode="normal" in="SourceGraphic" in2="effect2_dropShadow_1505_108" result="shape"/>
</filter>
</defs>
</svg>
