<svg width="336" height="155" viewBox="0 0 336 155" fill="none" xmlns="http://www.w3.org/2000/svg">
<g filter="url(#filter0_dd_1505_111)">
<path d="M319 8C319 9.85652 318.262 11.637 316.95 12.9498C315.637 14.2625 313.857 15 312 15C310.143 15 308.363 14.2625 307.05 12.9498C305.738 11.637 305 9.85652 305 8H295C295 9.85652 294.262 11.637 292.95 12.9498C291.637 14.2625 289.857 15 288 15C286.143 15 284.363 14.2625 283.05 12.9498C281.738 11.637 281 9.85652 281 8H271C271 9.85652 270.262 11.637 268.95 12.9498C267.637 14.2625 265.857 15 264 15C262.143 15 260.363 14.2625 259.05 12.9498C257.738 11.637 257 9.85652 257 8H247C247 9.85652 246.262 11.637 244.95 12.9498C243.637 14.2625 241.857 15 240 15C238.143 15 236.363 14.2625 235.05 12.9498C233.738 11.637 233 9.85652 233 8H223C223 9.85652 222.262 11.637 220.95 12.9498C219.637 14.2625 217.857 15 216 15C214.143 15 212.363 14.2625 211.05 12.9498C209.738 11.637 209 9.85652 209 8H199C199 9.85652 198.262 11.637 196.95 12.9498C195.637 14.2625 193.857 15 192 15C190.143 15 188.363 14.2625 187.05 12.9498C185.738 11.637 185 9.85652 185 8H175C175 9.85652 174.262 11.637 172.95 12.9498C171.637 14.2625 169.857 15 168 15C166.143 15 164.363 14.2625 163.05 12.9498C161.738 11.637 161 9.85652 161 8H151C151 9.85652 150.262 11.637 148.95 12.9498C147.637 14.2625 145.857 15 144 15C142.143 15 140.363 14.2625 139.05 12.9498C137.738 11.637 137 9.85652 137 8H127C127 9.85652 126.262 11.637 124.95 12.9498C123.637 14.2625 121.857 15 120 15C118.143 15 116.363 14.2625 115.05 12.9498C113.738 11.637 113 9.85652 113 8H103C103 9.85652 102.263 11.637 100.95 12.9498C99.637 14.2625 97.8565 15 96 15C94.1435 15 92.363 14.2625 91.0502 12.9498C89.7375 11.637 89 9.85652 89 8H79C79 9.85652 78.2625 11.637 76.9498 12.9498C75.637 14.2625 73.8565 15 72 15C70.1435 15 68.363 14.2625 67.0502 12.9498C65.7375 11.637 65 9.85652 65 8H55C55 9.85652 54.2625 11.637 52.9498 12.9498C51.637 14.2625 49.8565 15 48 15C46.1435 15 44.363 14.2625 43.0502 12.9498C41.7375 11.637 41 9.85652 41 8H31C31 9.85652 30.2625 11.637 28.9498 12.9498C27.637 14.2625 25.8565 15 24 15C22.1435 15 20.363 14.2625 19.0502 12.9498C17.7375 11.637 17 9.85652 17 8H8L8 147H17C17 145.143 17.7375 143.363 19.0502 142.05C20.363 140.738 22.1435 140 24 140C25.8565 140 27.637 140.738 28.9498 142.05C30.2625 143.363 31 145.143 31 147H41C41 145.143 41.7375 143.363 43.0502 142.05C44.363 140.738 46.1435 140 48 140C49.8565 140 51.637 140.738 52.9498 142.05C54.2625 143.363 55 145.143 55 147H65C65 145.143 65.7375 143.363 67.0502 142.05C68.363 140.738 70.1435 140 72 140C73.8565 140 75.637 140.738 76.9498 142.05C78.2625 143.363 79 145.143 79 147H89C89 145.143 89.7375 143.363 91.0502 142.05C92.363 140.738 94.1435 140 96 140C97.8565 140 99.637 140.738 100.95 142.05C102.263 143.363 103 145.143 103 147H113C113 145.143 113.738 143.363 115.05 142.05C116.363 140.738 118.143 140 120 140C121.857 140 123.637 140.738 124.95 142.05C126.262 143.363 127 145.143 127 147H137C137 145.143 137.738 143.363 139.05 142.05C140.363 140.738 142.143 140 144 140C145.857 140 147.637 140.738 148.95 142.05C150.262 143.363 151 145.143 151 147H161C161 145.143 161.738 143.363 163.05 142.05C164.363 140.738 166.143 140 168 140C169.857 140 171.637 140.738 172.95 142.05C174.262 143.363 175 145.143 175 147H185C185 145.143 185.738 143.363 187.05 142.05C188.363 140.738 190.143 140 192 140C193.857 140 195.637 140.738 196.95 142.05C198.262 143.363 199 145.143 199 147H209C209 145.143 209.738 143.363 211.05 142.05C212.363 140.738 214.143 140 216 140C217.857 140 219.637 140.738 220.95 142.05C222.262 143.363 223 145.143 223 147H233C233 145.143 233.738 143.363 235.05 142.05C236.363 140.738 238.143 140 240 140C241.857 140 243.637 140.738 244.95 142.05C246.262 143.363 247 145.143 247 147H257C257 145.143 257.738 143.363 259.05 142.05C260.363 140.738 262.143 140 264 140C265.857 140 267.637 140.738 268.95 142.05C270.262 143.363 271 145.143 271 147H281C281 145.143 281.738 143.363 283.05 142.05C284.363 140.738 286.143 140 288 140C289.857 140 291.637 140.738 292.95 142.05C294.262 143.363 295 145.143 295 147H305C305 145.143 305.738 143.363 307.05 142.05C308.363 140.738 310.143 140 312 140C313.857 140 315.637 140.738 316.95 142.05C318.262 143.363 319 145.143 319 147H328V8H319Z" fill="white"/>
</g>
<path d="M32.499 42.11C30.343 42.11 28.539 40.482 28.539 38.095C28.539 35.708 30.343 34.08 32.521 34.08C33.478 34.08 34.721 34.399 35.568 35.609L34.886 36.115C34.237 35.246 33.313 34.993 32.543 34.993C30.86 34.993 29.507 36.214 29.507 38.095C29.507 39.976 30.871 41.23 32.543 41.23C33.83 41.23 34.985 40.493 35.172 38.832H32.961V38.029H36.096C36.294 40.581 34.567 42.11 32.499 42.11ZM39.9692 42.11C38.4292 42.11 37.0322 41.043 37.0322 39.14C37.0322 37.215 38.4402 36.17 39.8812 36.17C41.3332 36.17 42.8512 37.215 42.6202 39.481H37.9122C38.0552 40.68 38.9682 41.318 40.0682 41.318C40.7392 41.318 41.3552 41.076 41.7732 40.625L42.2352 41.098C41.7182 41.736 40.8932 42.11 39.9692 42.11ZM37.9122 38.777H41.8062C41.7402 37.6 40.8492 36.973 39.8922 36.973C38.9462 36.973 38.0552 37.578 37.9122 38.777ZM45.2872 42.066C44.5282 42.066 44.0112 41.692 44.0112 40.834V37.039H43.2412V36.28H44.0112V34.817H44.9352V36.28H46.0682V37.039H44.9352V40.658C44.9352 41.01 45.1112 41.23 45.5402 41.23C45.6722 41.23 45.8482 41.208 46.0572 41.131V41.868C45.8592 42.022 45.5512 42.066 45.2872 42.066ZM52.0296 42.11C50.6436 42.11 49.2246 41.098 49.2246 39.14C49.2246 37.182 50.6436 36.17 52.0296 36.17C53.0966 36.17 53.8996 36.753 54.1746 37.358H54.2076V36.28H55.1316V42H54.2076V40.922H54.1746C53.8996 41.527 53.0966 42.11 52.0296 42.11ZM50.1486 39.14C50.1486 40.559 51.1716 41.263 52.1836 41.263C53.2176 41.263 54.2406 40.548 54.2406 39.14C54.2406 37.732 53.2176 37.017 52.1836 37.017C51.1716 37.017 50.1486 37.721 50.1486 39.14ZM58.1113 42.11C57.0443 42.11 56.2743 41.538 56.0983 40.559L56.8683 40.35C57.0223 40.955 57.4733 41.34 58.1113 41.34C58.6503 41.34 59.1893 41.076 59.1893 40.449C59.1893 39.976 58.8593 39.734 58.1993 39.459L57.6823 39.261C56.7363 38.876 56.3403 38.315 56.3403 37.666C56.3403 36.764 57.1213 36.17 58.1113 36.17C59.0243 36.17 59.7063 36.676 59.9043 37.446L59.1673 37.666C58.9913 37.193 58.6503 36.929 58.1443 36.929C57.6493 36.929 57.2533 37.193 57.2533 37.677C57.2533 38.04 57.4843 38.326 58.0783 38.568L58.5403 38.755C59.4423 39.107 60.1023 39.503 60.1023 40.449C60.1023 41.582 59.1453 42.11 58.1113 42.11ZM62.8056 42.11C61.7386 42.11 60.9686 41.538 60.7926 40.559L61.5626 40.35C61.7166 40.955 62.1676 41.34 62.8056 41.34C63.3446 41.34 63.8836 41.076 63.8836 40.449C63.8836 39.976 63.5536 39.734 62.8936 39.459L62.3766 39.261C61.4306 38.876 61.0346 38.315 61.0346 37.666C61.0346 36.764 61.8156 36.17 62.8056 36.17C63.7186 36.17 64.4006 36.676 64.5986 37.446L63.8616 37.666C63.6856 37.193 63.3446 36.929 62.8386 36.929C62.3436 36.929 61.9476 37.193 61.9476 37.677C61.9476 38.04 62.1786 38.326 62.7726 38.568L63.2346 38.755C64.1366 39.107 64.7966 39.503 64.7966 40.449C64.7966 41.582 63.8396 42.11 62.8056 42.11ZM70.888 36.28V42H69.964V41.065C69.667 41.615 69.04 42.11 68.05 42.11C66.851 42.11 65.817 41.362 65.817 39.646V36.28H66.741V39.514C66.741 40.669 67.423 41.263 68.336 41.263C69.249 41.263 69.964 40.669 69.964 39.514V36.28H70.888ZM72.1871 42V36.28H73.1111V37.699C73.3201 36.874 73.8921 36.17 74.9481 36.17C75.0801 36.17 75.1901 36.181 75.2781 36.214V37.083C75.1791 37.061 75.0911 37.05 74.9591 37.05C73.8921 37.05 73.1111 37.853 73.1111 39.129V42H72.1871ZM78.8022 42.11C77.2622 42.11 75.8652 41.043 75.8652 39.14C75.8652 37.215 77.2732 36.17 78.7142 36.17C80.1662 36.17 81.6842 37.215 81.4532 39.481H76.7452C76.8882 40.68 77.8012 41.318 78.9012 41.318C79.5722 41.318 80.1882 41.076 80.6062 40.625L81.0682 41.098C80.5512 41.736 79.7262 42.11 78.8022 42.11ZM76.7452 38.777H80.6392C80.5732 37.6 79.6822 36.973 78.7252 36.973C77.7792 36.973 76.8882 37.578 76.7452 38.777ZM88.1423 42H87.2183V40.922H87.1853C86.9103 41.527 86.1073 42.11 85.0403 42.11C83.6543 42.11 82.2353 41.098 82.2353 39.14C82.2353 37.182 83.6543 36.17 85.0403 36.17C86.1073 36.17 86.9103 36.753 87.1853 37.358H87.2183V34.19H88.1423V42ZM83.1593 39.14C83.1593 40.559 84.1823 41.263 85.1943 41.263C86.2283 41.263 87.2513 40.548 87.2513 39.14C87.2513 37.732 86.2283 37.017 85.1943 37.017C84.1823 37.017 83.1593 37.721 83.1593 39.14ZM91.7916 34.19H92.7156V37.358H92.7486C93.0236 36.753 93.8266 36.17 94.8936 36.17C96.2796 36.17 97.6986 37.182 97.6986 39.14C97.6986 41.098 96.2796 42.11 94.8936 42.11C93.8266 42.11 93.0236 41.527 92.7486 40.922H92.7156V42H91.7916V34.19ZM92.6826 39.14C92.6826 40.548 93.7056 41.263 94.7396 41.263C95.7516 41.263 96.7746 40.559 96.7746 39.14C96.7746 37.721 95.7516 37.017 94.7396 37.017C93.7056 37.017 92.6826 37.732 92.6826 39.14ZM101.382 42.11C99.8423 42.11 98.4453 41.043 98.4453 39.14C98.4453 37.215 99.8533 36.17 101.294 36.17C102.746 36.17 104.264 37.215 104.033 39.481H99.3253C99.4683 40.68 100.381 41.318 101.481 41.318C102.152 41.318 102.768 41.076 103.186 40.625L103.648 41.098C103.131 41.736 102.306 42.11 101.382 42.11ZM99.3253 38.777H103.219C103.153 37.6 102.262 36.973 101.305 36.973C100.359 36.973 99.4683 37.578 99.3253 38.777ZM105.09 42V36.28H106.014V37.215C106.311 36.665 106.938 36.17 107.928 36.17C109.127 36.17 110.161 36.918 110.161 38.634V42H109.237V38.766C109.237 37.611 108.555 37.017 107.642 37.017C106.729 37.017 106.014 37.611 106.014 38.766V42H105.09ZM114.123 42.11C112.583 42.11 111.186 41.043 111.186 39.14C111.186 37.215 112.594 36.17 114.035 36.17C115.487 36.17 117.005 37.215 116.774 39.481H112.066C112.209 40.68 113.122 41.318 114.222 41.318C114.893 41.318 115.509 41.076 115.927 40.625L116.389 41.098C115.872 41.736 115.047 42.11 114.123 42.11ZM112.066 38.777H115.96C115.894 37.6 115.003 36.973 114.046 36.973C113.1 36.973 112.209 37.578 112.066 38.777ZM118.106 35.686C118.106 34.289 119.052 33.97 119.701 33.97C120.053 33.97 120.383 34.047 120.614 34.19V34.927C120.405 34.817 120.119 34.773 119.921 34.773C119.393 34.773 119.041 35.037 119.041 35.763V36.28H122.33V42H121.406V37.039H119.041V42H118.106V37.039H117.446V36.28H118.106V35.686ZM121.406 35.048V34.19H122.33V35.048H121.406ZM125.402 42.066C124.643 42.066 124.126 41.692 124.126 40.834V37.039H123.356V36.28H124.126V34.817H125.05V36.28H126.183V37.039H125.05V40.658C125.05 41.01 125.226 41.23 125.655 41.23C125.787 41.23 125.963 41.208 126.172 41.131V41.868C125.974 42.022 125.666 42.066 125.402 42.066ZM128.902 42.11C127.835 42.11 127.065 41.538 126.889 40.559L127.659 40.35C127.813 40.955 128.264 41.34 128.902 41.34C129.441 41.34 129.98 41.076 129.98 40.449C129.98 39.976 129.65 39.734 128.99 39.459L128.473 39.261C127.527 38.876 127.131 38.315 127.131 37.666C127.131 36.764 127.912 36.17 128.902 36.17C129.815 36.17 130.497 36.676 130.695 37.446L129.958 37.666C129.782 37.193 129.441 36.929 128.935 36.929C128.44 36.929 128.044 37.193 128.044 37.677C128.044 38.04 128.275 38.326 128.869 38.568L129.331 38.755C130.233 39.107 130.893 39.503 130.893 40.449C130.893 41.582 129.936 42.11 128.902 42.11Z" fill="#292929"/>
<path d="M45.693 66V58.19H49.774V58.839H46.375V61.765H49.279V62.392H46.375V65.351H49.873V66H45.693ZM53.5519 66.11C52.1219 66.11 50.7139 65.087 50.7139 63.14C50.7139 61.193 52.1219 60.17 53.5519 60.17C54.6299 60.17 55.5099 60.764 55.8399 61.501H55.8729V60.28H56.5439V66H55.8729V64.779H55.8399C55.5099 65.516 54.6299 66.11 53.5519 66.11ZM51.3849 63.14C51.3849 64.724 52.5179 65.494 53.6399 65.494C54.7619 65.494 55.8949 64.713 55.8949 63.14C55.8949 61.567 54.7619 60.786 53.6399 60.786C52.5179 60.786 51.3849 61.556 51.3849 63.14ZM57.9284 66V60.28H58.5994V61.611C58.8304 60.841 59.4024 60.17 60.4584 60.17C60.5904 60.17 60.6784 60.181 60.7554 60.203V60.83C60.6674 60.808 60.5904 60.797 60.4694 60.797C59.4244 60.797 58.5994 61.622 58.5994 62.964V66H57.9284ZM61.8707 66V60.28H62.5417V61.281C62.8277 60.72 63.4657 60.17 64.5217 60.17C65.7427 60.17 66.7877 60.929 66.7877 62.634V66H66.1167V62.711C66.1167 61.402 65.3357 60.786 64.3457 60.786C63.3667 60.786 62.5417 61.402 62.5417 62.711V66H61.8707ZM70.2925 57.981H75.4595V57.9917C75.1551 58.4608 74.9832 58.7114 74.9438 58.7437H73.5635C73.7533 58.9657 73.8822 59.236 73.9502 59.5547H75.4219C75.4398 59.5583 75.4487 59.5654 75.4487 59.5762C75.1193 60.0703 74.951 60.3174 74.9438 60.3174H73.9878C73.9663 60.5716 73.8446 60.8778 73.6226 61.2358C73.3289 61.5975 73.0479 61.832 72.7793 61.9395C72.278 62.1794 71.7982 62.2993 71.3398 62.2993V62.3101C71.3398 62.3459 72.3765 63.5758 74.4497 66H73.0801C71.0605 63.6475 70.0508 62.4658 70.0508 62.4551V61.7407L70.0615 61.7139C70.2406 61.7389 70.45 61.7515 70.6899 61.7515C71.8215 61.7515 72.5251 61.3844 72.8008 60.6504C72.8438 60.543 72.8652 60.432 72.8652 60.3174H69.793C69.7786 60.3174 69.7715 60.3102 69.7715 60.2959C70.1117 59.8018 70.2853 59.5547 70.2925 59.5547H72.731V59.5439C72.5913 59.2611 72.321 59.0409 71.9199 58.8833C71.6335 58.7902 71.3757 58.7437 71.1465 58.7437H69.7822V58.7168C70.1117 58.2262 70.2817 57.981 70.2925 57.981ZM80.7439 66.11C79.4789 66.11 78.5879 65.406 78.2249 64.526L78.9509 64.119C79.1599 64.669 79.8089 65.263 80.7329 65.263C81.7229 65.263 82.5919 64.592 82.5919 63.437C82.5919 62.315 81.7889 61.578 80.7769 61.578C80.0619 61.578 79.4899 61.941 79.1709 62.403L78.4229 62.106L78.9509 58.19H82.7349V59.015H79.6769L79.3359 61.424C79.6109 61.083 80.2049 60.797 80.9419 60.797C82.3059 60.797 83.5049 61.798 83.5049 63.426C83.5049 65.065 82.2839 66.11 80.7439 66.11ZM88.4711 66.11C86.3481 66.11 84.5331 64.493 84.5331 62.095C84.5331 59.697 86.3481 58.08 88.4711 58.08C90.5941 58.08 92.4091 59.697 92.4091 62.095C92.4091 64.493 90.5941 66.11 88.4711 66.11ZM85.4791 62.095C85.4791 63.987 86.8761 65.241 88.4711 65.241C90.0661 65.241 91.4631 63.987 91.4631 62.095C91.4631 60.203 90.0661 58.949 88.4711 58.949C86.8761 58.949 85.4791 60.203 85.4791 62.095ZM97.3227 66.11C95.1997 66.11 93.3847 64.493 93.3847 62.095C93.3847 59.697 95.1997 58.08 97.3227 58.08C99.4457 58.08 101.261 59.697 101.261 62.095C101.261 64.493 99.4457 66.11 97.3227 66.11ZM94.3307 62.095C94.3307 63.987 95.7277 65.241 97.3227 65.241C98.9177 65.241 100.315 63.987 100.315 62.095C100.315 60.203 98.9177 58.949 97.3227 58.949C95.7277 58.949 94.3307 60.203 94.3307 62.095ZM107.512 66.11C106.049 66.11 104.575 65.043 104.575 63.151C104.575 61.237 106.049 60.17 107.512 60.17C108.502 60.17 109.459 60.654 109.954 61.578L109.426 61.875C109.041 61.171 108.304 60.786 107.534 60.786C106.401 60.786 105.246 61.622 105.246 63.151C105.246 64.658 106.401 65.494 107.534 65.494C108.304 65.494 109.041 65.109 109.426 64.405L109.954 64.702C109.459 65.626 108.502 66.11 107.512 66.11ZM113.569 66.11C112.139 66.11 110.731 65.087 110.731 63.14C110.731 61.193 112.139 60.17 113.569 60.17C114.647 60.17 115.527 60.764 115.857 61.501H115.89V60.28H116.561V66H115.89V64.779H115.857C115.527 65.516 114.647 66.11 113.569 66.11ZM111.402 63.14C111.402 64.724 112.535 65.494 113.657 65.494C114.779 65.494 115.912 64.713 115.912 63.14C115.912 61.567 114.779 60.786 113.657 60.786C112.535 60.786 111.402 61.556 111.402 63.14ZM119.573 66.11C118.528 66.11 117.791 65.527 117.615 64.592L118.198 64.427C118.374 65.142 118.902 65.527 119.573 65.527C120.189 65.527 120.805 65.219 120.805 64.504C120.805 63.921 120.409 63.657 119.661 63.338L119.221 63.162C118.275 62.777 117.89 62.227 117.89 61.6C117.89 60.753 118.605 60.17 119.551 60.17C120.409 60.17 121.058 60.643 121.256 61.369L120.717 61.545C120.53 61.061 120.178 60.742 119.573 60.742C119.023 60.742 118.55 61.028 118.55 61.6C118.55 62.029 118.814 62.359 119.485 62.634L119.87 62.788C120.86 63.195 121.476 63.58 121.476 64.504C121.476 65.615 120.519 66.11 119.573 66.11ZM122.586 66V58.19H123.257V61.281C123.543 60.72 124.181 60.17 125.237 60.17C126.458 60.17 127.503 60.929 127.503 62.634V66H126.832V62.711C126.832 61.402 126.051 60.786 125.061 60.786C124.082 60.786 123.257 61.402 123.257 62.711V66H122.586ZM133.85 66.11C132.42 66.11 131.012 65.087 131.012 63.14C131.012 61.193 132.42 60.17 133.85 60.17C134.928 60.17 135.808 60.764 136.138 61.501H136.171V60.28H136.842V66H136.171V64.779H136.138C135.808 65.516 134.928 66.11 133.85 66.11ZM131.683 63.14C131.683 64.724 132.816 65.494 133.938 65.494C135.06 65.494 136.193 64.713 136.193 63.14C136.193 61.567 135.06 60.786 133.938 60.786C132.816 60.786 131.683 61.556 131.683 63.14ZM139.854 66.11C138.809 66.11 138.072 65.527 137.896 64.592L138.479 64.427C138.655 65.142 139.183 65.527 139.854 65.527C140.47 65.527 141.086 65.219 141.086 64.504C141.086 63.921 140.69 63.657 139.942 63.338L139.502 63.162C138.556 62.777 138.171 62.227 138.171 61.6C138.171 60.753 138.886 60.17 139.832 60.17C140.69 60.17 141.339 60.643 141.537 61.369L140.998 61.545C140.811 61.061 140.459 60.742 139.854 60.742C139.304 60.742 138.831 61.028 138.831 61.6C138.831 62.029 139.095 62.359 139.766 62.634L140.151 62.788C141.141 63.195 141.757 63.58 141.757 64.504C141.757 65.615 140.8 66.11 139.854 66.11ZM146.351 68.09L147.297 65.956L144.877 60.28H145.581L147.627 65.142L149.673 60.28H150.377L147.935 66L147.011 68.09H146.351ZM153.715 66.11C152.241 66.11 150.767 65.043 150.767 63.14C150.767 61.237 152.241 60.17 153.715 60.17C155.189 60.17 156.663 61.237 156.663 63.14C156.663 65.043 155.189 66.11 153.715 66.11ZM151.438 63.14C151.438 64.658 152.56 65.494 153.715 65.494C154.87 65.494 155.992 64.658 155.992 63.14C155.992 61.622 154.87 60.786 153.715 60.786C152.56 60.786 151.438 61.622 151.438 63.14ZM162.694 60.28V66H162.023V64.999C161.737 65.56 161.099 66.11 160.043 66.11C158.822 66.11 157.777 65.351 157.777 63.646V60.28H158.448V63.569C158.448 64.878 159.229 65.494 160.219 65.494C161.198 65.494 162.023 64.878 162.023 63.569V60.28H162.694ZM164.083 66V60.28H164.754V61.611C164.985 60.841 165.557 60.17 166.613 60.17C166.745 60.17 166.833 60.181 166.91 60.203V60.83C166.822 60.808 166.745 60.797 166.624 60.797C165.579 60.797 164.754 61.622 164.754 62.964V66H164.083ZM170.448 59.532C170.448 58.278 171.273 57.981 171.911 57.981C172.274 57.981 172.549 58.08 172.747 58.201V58.74C172.549 58.63 172.285 58.564 172.021 58.564C171.515 58.564 171.119 58.806 171.119 59.62V60.28H172.747V60.841H171.119V66H170.448V60.841H169.821V60.28H170.448V59.532ZM173.632 66V60.28H174.303V61.611C174.534 60.841 175.106 60.17 176.162 60.17C176.294 60.17 176.382 60.181 176.459 60.203V60.83C176.371 60.808 176.294 60.797 176.173 60.797C175.128 60.797 174.303 61.622 174.303 62.964V66H173.632ZM177.575 66V60.28H178.246V66H177.575ZM177.575 58.839V58.19H178.246V58.839H177.575ZM182.256 66.11C180.738 66.11 179.352 65.054 179.352 63.129C179.352 61.215 180.749 60.17 182.179 60.17C183.631 60.17 185.094 61.226 184.907 63.382H179.99C180.1 64.768 181.134 65.516 182.333 65.516C183.059 65.516 183.73 65.241 184.148 64.746L184.5 65.109C183.983 65.747 183.147 66.11 182.256 66.11ZM179.99 62.843H184.302C184.269 61.501 183.268 60.764 182.179 60.764C181.123 60.764 180.111 61.479 179.99 62.843ZM186.029 66V60.28H186.7V61.281C186.986 60.72 187.624 60.17 188.68 60.17C189.901 60.17 190.946 60.929 190.946 62.634V66H190.275V62.711C190.275 61.402 189.494 60.786 188.504 60.786C187.525 60.786 186.7 61.402 186.7 62.711V66H186.029ZM197.89 66H197.219V64.779H197.186C196.856 65.516 195.976 66.11 194.898 66.11C193.468 66.11 192.06 65.087 192.06 63.14C192.06 61.193 193.468 60.17 194.898 60.17C195.976 60.17 196.856 60.764 197.186 61.501H197.219V58.19H197.89V66ZM192.731 63.14C192.731 64.724 193.864 65.494 194.986 65.494C196.108 65.494 197.241 64.713 197.241 63.14C197.241 61.567 196.108 60.786 194.986 60.786C193.864 60.786 192.731 61.556 192.731 63.14ZM200.902 66.11C199.857 66.11 199.12 65.527 198.944 64.592L199.527 64.427C199.703 65.142 200.231 65.527 200.902 65.527C201.518 65.527 202.134 65.219 202.134 64.504C202.134 63.921 201.738 63.657 200.99 63.338L200.55 63.162C199.604 62.777 199.219 62.227 199.219 61.6C199.219 60.753 199.934 60.17 200.88 60.17C201.738 60.17 202.387 60.643 202.585 61.369L202.046 61.545C201.859 61.061 201.507 60.742 200.902 60.742C200.352 60.742 199.879 61.028 199.879 61.6C199.879 62.029 200.143 62.359 200.814 62.634L201.199 62.788C202.189 63.195 202.805 63.58 202.805 64.504C202.805 65.615 201.848 66.11 200.902 66.11ZM209.027 68.288C208.213 68.288 207.597 68.057 207.344 67.881V67.287C207.608 67.463 208.158 67.705 208.95 67.705C210.094 67.705 211.194 67.199 211.194 65.703V64.779H211.15C210.82 65.516 209.94 66.11 208.862 66.11C207.454 66.11 206.035 65.087 206.035 63.14C206.035 61.193 207.454 60.17 208.862 60.17C209.94 60.17 210.82 60.764 211.15 61.501H211.194V60.28H211.865V65.736C211.865 67.672 210.369 68.288 209.027 68.288ZM206.706 63.14C206.706 64.724 207.839 65.494 208.95 65.494C210.072 65.494 211.216 64.713 211.216 63.14C211.216 61.567 210.072 60.786 208.95 60.786C207.839 60.786 206.706 61.556 206.706 63.14ZM215.879 66.11C214.361 66.11 212.975 65.054 212.975 63.129C212.975 61.215 214.372 60.17 215.802 60.17C217.254 60.17 218.717 61.226 218.53 63.382H213.613C213.723 64.768 214.757 65.516 215.956 65.516C216.682 65.516 217.353 65.241 217.771 64.746L218.123 65.109C217.606 65.747 216.77 66.11 215.879 66.11ZM213.613 62.843H217.925C217.892 61.501 216.891 60.764 215.802 60.764C214.746 60.764 213.734 61.479 213.613 62.843ZM221.053 66.066C220.393 66.066 219.953 65.747 219.953 65.032V60.841H219.216V60.28H219.953V58.817H220.624V60.28H221.735V60.841H220.624V64.889C220.624 65.263 220.811 65.461 221.196 65.461C221.328 65.461 221.504 65.439 221.713 65.351V65.901C221.515 66.033 221.273 66.066 221.053 66.066ZM224.438 66.11C223.393 66.11 222.656 65.527 222.48 64.592L223.063 64.427C223.239 65.142 223.767 65.527 224.438 65.527C225.054 65.527 225.67 65.219 225.67 64.504C225.67 63.921 225.274 63.657 224.526 63.338L224.086 63.162C223.14 62.777 222.755 62.227 222.755 61.6C222.755 60.753 223.47 60.17 224.416 60.17C225.274 60.17 225.923 60.643 226.121 61.369L225.582 61.545C225.395 61.061 225.043 60.742 224.438 60.742C223.888 60.742 223.415 61.028 223.415 61.6C223.415 62.029 223.679 62.359 224.35 62.634L224.735 62.788C225.725 63.195 226.341 63.58 226.341 64.504C226.341 65.615 225.384 66.11 224.438 66.11ZM232.409 66.11C230.979 66.11 229.571 65.087 229.571 63.14C229.571 61.193 230.979 60.17 232.409 60.17C233.487 60.17 234.367 60.764 234.697 61.501H234.73V60.28H235.401V66H234.73V64.779H234.697C234.367 65.516 233.487 66.11 232.409 66.11ZM230.242 63.14C230.242 64.724 231.375 65.494 232.497 65.494C233.619 65.494 234.752 64.713 234.752 63.14C234.752 61.567 233.619 60.786 232.497 60.786C231.375 60.786 230.242 61.556 230.242 63.14ZM236.786 68.09V60.28H237.457V61.501H237.49C237.82 60.764 238.7 60.17 239.778 60.17C241.208 60.17 242.616 61.193 242.616 63.14C242.616 65.087 241.208 66.11 239.778 66.11C238.7 66.11 237.82 65.516 237.49 64.779H237.457V68.09H236.786ZM237.435 63.14C237.435 64.713 238.568 65.494 239.69 65.494C240.812 65.494 241.945 64.724 241.945 63.14C241.945 61.556 240.812 60.786 239.69 60.786C238.568 60.786 237.435 61.567 237.435 63.14ZM243.618 68.09V60.28H244.289V61.501H244.322C244.652 60.764 245.532 60.17 246.61 60.17C248.04 60.17 249.448 61.193 249.448 63.14C249.448 65.087 248.04 66.11 246.61 66.11C245.532 66.11 244.652 65.516 244.322 64.779H244.289V68.09H243.618ZM244.267 63.14C244.267 64.713 245.4 65.494 246.522 65.494C247.644 65.494 248.777 64.724 248.777 63.14C248.777 61.556 247.644 60.786 246.522 60.786C245.4 60.786 244.267 61.567 244.267 63.14ZM250.557 66V60.28H251.228V61.611C251.459 60.841 252.031 60.17 253.087 60.17C253.219 60.17 253.307 60.181 253.384 60.203V60.83C253.296 60.808 253.219 60.797 253.098 60.797C252.053 60.797 251.228 61.622 251.228 62.964V66H250.557ZM257.012 66.11C255.538 66.11 254.064 65.043 254.064 63.14C254.064 61.237 255.538 60.17 257.012 60.17C258.486 60.17 259.96 61.237 259.96 63.14C259.96 65.043 258.486 66.11 257.012 66.11ZM254.735 63.14C254.735 64.658 255.857 65.494 257.012 65.494C258.167 65.494 259.289 64.658 259.289 63.14C259.289 61.622 258.167 60.786 257.012 60.786C255.857 60.786 254.735 61.622 254.735 63.14ZM262.798 66L260.356 60.28H261.06L263.106 65.142L265.152 60.28H265.856L263.414 66H262.798ZM269.149 66.11C267.631 66.11 266.245 65.054 266.245 63.129C266.245 61.215 267.642 60.17 269.072 60.17C270.524 60.17 271.987 61.226 271.8 63.382H266.883C266.993 64.768 268.027 65.516 269.226 65.516C269.952 65.516 270.623 65.241 271.041 64.746L271.393 65.109C270.876 65.747 270.04 66.11 269.149 66.11ZM266.883 62.843H271.195C271.162 61.501 270.161 60.764 269.072 60.764C268.016 60.764 267.004 61.479 266.883 62.843ZM278.477 66H277.806V64.779H277.773C277.443 65.516 276.563 66.11 275.485 66.11C274.055 66.11 272.647 65.087 272.647 63.14C272.647 61.193 274.055 60.17 275.485 60.17C276.563 60.17 277.443 60.764 277.773 61.501H277.806V58.19H278.477V66ZM273.318 63.14C273.318 64.724 274.451 65.494 275.573 65.494C276.695 65.494 277.828 64.713 277.828 63.14C277.828 61.567 276.695 60.786 275.573 60.786C274.451 60.786 273.318 61.556 273.318 63.14ZM282.257 58.19H282.928V61.501H282.961C283.291 60.764 284.171 60.17 285.249 60.17C286.679 60.17 288.087 61.193 288.087 63.14C288.087 65.087 286.679 66.11 285.249 66.11C284.171 66.11 283.291 65.516 282.961 64.779H282.928V66H282.257V58.19ZM282.906 63.14C282.906 64.713 284.039 65.494 285.161 65.494C286.283 65.494 287.416 64.724 287.416 63.14C287.416 61.556 286.283 60.786 285.161 60.786C284.039 60.786 282.906 61.567 282.906 63.14ZM289.845 68.09L290.791 65.956L288.371 60.28H289.075L291.121 65.142L293.167 60.28H293.871L291.429 66L290.505 68.09H289.845ZM45.693 83V75.19H48.135C49.807 75.19 50.775 76.257 50.775 77.676C50.775 79.128 49.807 80.184 48.135 80.184H46.375V83H45.693ZM46.375 79.535H48.08C49.312 79.535 50.071 78.864 50.071 77.676C50.071 76.488 49.312 75.839 48.08 75.839H46.375V79.535ZM54.2931 83.11C52.8631 83.11 51.4551 82.087 51.4551 80.14C51.4551 78.193 52.8631 77.17 54.2931 77.17C55.3711 77.17 56.2511 77.764 56.5811 78.501H56.6141V77.28H57.2851V83H56.6141V81.779H56.5811C56.2511 82.516 55.3711 83.11 54.2931 83.11ZM52.1261 80.14C52.1261 81.724 53.2591 82.494 54.3811 82.494C55.5031 82.494 56.6361 81.713 56.6361 80.14C56.6361 78.567 55.5031 77.786 54.3811 77.786C53.2591 77.786 52.1261 78.556 52.1261 80.14ZM58.6696 83V77.28H59.3406V83H58.6696ZM58.6696 75.839V75.19H59.3406V75.839H58.6696ZM62.3493 83.11C61.3043 83.11 60.5673 82.527 60.3913 81.592L60.9743 81.427C61.1503 82.142 61.6783 82.527 62.3493 82.527C62.9653 82.527 63.5813 82.219 63.5813 81.504C63.5813 80.921 63.1853 80.657 62.4373 80.338L61.9973 80.162C61.0513 79.777 60.6663 79.227 60.6663 78.6C60.6663 77.753 61.3813 77.17 62.3273 77.17C63.1853 77.17 63.8343 77.643 64.0323 78.369L63.4933 78.545C63.3063 78.061 62.9543 77.742 62.3493 77.742C61.7993 77.742 61.3263 78.028 61.3263 78.6C61.3263 79.029 61.5903 79.359 62.2613 79.634L62.6463 79.788C63.6363 80.195 64.2523 80.58 64.2523 81.504C64.2523 82.615 63.2953 83.11 62.3493 83.11ZM67.9249 83.11C66.4949 83.11 65.0869 82.087 65.0869 80.14C65.0869 78.193 66.4949 77.17 67.9249 77.17C69.0029 77.17 69.8829 77.764 70.2129 78.501H70.2459V77.28H70.9169V83H70.2459V81.779H70.2129C69.8829 82.516 69.0029 83.11 67.9249 83.11ZM65.7579 80.14C65.7579 81.724 66.8909 82.494 68.0129 82.494C69.1349 82.494 70.2679 81.713 70.2679 80.14C70.2679 78.567 69.1349 77.786 68.0129 77.786C66.8909 77.786 65.7579 78.556 65.7579 80.14ZM72.3014 83V75.19H72.9724V83H72.3014ZM77.0262 83.11C75.5522 83.11 74.0782 82.043 74.0782 80.14C74.0782 78.237 75.5522 77.17 77.0262 77.17C78.5002 77.17 79.9742 78.237 79.9742 80.14C79.9742 82.043 78.5002 83.11 77.0262 83.11ZM74.7492 80.14C74.7492 81.658 75.8712 82.494 77.0262 82.494C78.1812 82.494 79.3032 81.658 79.3032 80.14C79.3032 78.622 78.1812 77.786 77.0262 77.786C75.8712 77.786 74.7492 78.622 74.7492 80.14ZM80.9095 83.11C80.6565 83.11 80.4915 82.923 80.4915 82.692C80.4915 82.461 80.6565 82.274 80.9095 82.274C81.1625 82.274 81.3275 82.461 81.3275 82.692C81.3275 82.923 81.1625 83.11 80.9095 83.11ZM45.693 105V97.19H49.774V97.839H46.375V100.765H49.279V101.392H46.375V104.351H49.873V105H45.693ZM53.5519 105.11C52.1219 105.11 50.7139 104.087 50.7139 102.14C50.7139 100.193 52.1219 99.17 53.5519 99.17C54.6299 99.17 55.5099 99.764 55.8399 100.501H55.8729V99.28H56.5439V105H55.8729V103.779H55.8399C55.5099 104.516 54.6299 105.11 53.5519 105.11ZM51.3849 102.14C51.3849 103.724 52.5179 104.494 53.6399 104.494C54.7619 104.494 55.8949 103.713 55.8949 102.14C55.8949 100.567 54.7619 99.786 53.6399 99.786C52.5179 99.786 51.3849 100.556 51.3849 102.14ZM57.9284 105V99.28H58.5994V100.611C58.8304 99.841 59.4024 99.17 60.4584 99.17C60.5904 99.17 60.6784 99.181 60.7554 99.203V99.83C60.6674 99.808 60.5904 99.797 60.4694 99.797C59.4244 99.797 58.5994 100.622 58.5994 101.964V105H57.9284ZM61.8707 105V99.28H62.5417V100.281C62.8277 99.72 63.4657 99.17 64.5217 99.17C65.7427 99.17 66.7877 99.929 66.7877 101.634V105H66.1167V101.711C66.1167 100.402 65.3357 99.786 64.3457 99.786C63.3667 99.786 62.5417 100.402 62.5417 101.711V105H61.8707ZM73.2339 105.11C71.7709 105.11 70.2969 104.043 70.2969 102.151C70.2969 100.237 71.7709 99.17 73.2339 99.17C74.2239 99.17 75.1809 99.654 75.6759 100.578L75.1479 100.875C74.7629 100.171 74.0259 99.786 73.2559 99.786C72.1229 99.786 70.9679 100.622 70.9679 102.151C70.9679 103.658 72.1229 104.494 73.2559 104.494C74.0259 104.494 74.7629 104.109 75.1479 103.405L75.6759 103.702C75.1809 104.626 74.2239 105.11 73.2339 105.11ZM79.2902 105.11C77.8602 105.11 76.4522 104.087 76.4522 102.14C76.4522 100.193 77.8602 99.17 79.2902 99.17C80.3682 99.17 81.2482 99.764 81.5782 100.501H81.6112V99.28H82.2822V105H81.6112V103.779H81.5782C81.2482 104.516 80.3682 105.11 79.2902 105.11ZM77.1232 102.14C77.1232 103.724 78.2562 104.494 79.3782 104.494C80.5002 104.494 81.6332 103.713 81.6332 102.14C81.6332 100.567 80.5002 99.786 79.3782 99.786C78.2562 99.786 77.1232 100.556 77.1232 102.14ZM85.2946 105.11C84.2496 105.11 83.5126 104.527 83.3366 103.592L83.9196 103.427C84.0956 104.142 84.6236 104.527 85.2946 104.527C85.9106 104.527 86.5266 104.219 86.5266 103.504C86.5266 102.921 86.1306 102.657 85.3826 102.338L84.9426 102.162C83.9966 101.777 83.6116 101.227 83.6116 100.6C83.6116 99.753 84.3266 99.17 85.2726 99.17C86.1306 99.17 86.7796 99.643 86.9776 100.369L86.4386 100.545C86.2516 100.061 85.8996 99.742 85.2946 99.742C84.7446 99.742 84.2716 100.028 84.2716 100.6C84.2716 101.029 84.5356 101.359 85.2066 101.634L85.5916 101.788C86.5816 102.195 87.1976 102.58 87.1976 103.504C87.1976 104.615 86.2406 105.11 85.2946 105.11ZM88.3073 105V97.19H88.9783V100.281C89.2643 99.72 89.9023 99.17 90.9583 99.17C92.1793 99.17 93.2243 99.929 93.2243 101.634V105H92.5533V101.711C92.5533 100.402 91.7723 99.786 90.7823 99.786C89.8033 99.786 88.9783 100.402 88.9783 101.711V105H88.3073ZM101.925 99.28V105H101.254V103.999C100.968 104.56 100.33 105.11 99.2744 105.11C98.0534 105.11 97.0084 104.351 97.0084 102.646V99.28H97.6794V102.569C97.6794 103.878 98.4604 104.494 99.4504 104.494C100.429 104.494 101.254 103.878 101.254 102.569V99.28H101.925ZM103.314 107.09V99.28H103.985V100.501H104.018C104.348 99.764 105.228 99.17 106.306 99.17C107.736 99.17 109.144 100.193 109.144 102.14C109.144 104.087 107.736 105.11 106.306 105.11C105.228 105.11 104.348 104.516 104.018 103.779H103.985V107.09H103.314ZM103.963 102.14C103.963 103.713 105.096 104.494 106.218 104.494C107.34 104.494 108.473 103.724 108.473 102.14C108.473 100.556 107.34 99.786 106.218 99.786C105.096 99.786 103.963 100.567 103.963 102.14ZM111.654 105.066C110.994 105.066 110.554 104.747 110.554 104.032V99.841H109.817V99.28H110.554V97.817H111.225V99.28H112.336V99.841H111.225V103.889C111.225 104.263 111.412 104.461 111.797 104.461C111.929 104.461 112.105 104.439 112.314 104.351V104.901C112.116 105.033 111.874 105.066 111.654 105.066ZM116.117 105.11C114.643 105.11 113.169 104.043 113.169 102.14C113.169 100.237 114.643 99.17 116.117 99.17C117.591 99.17 119.065 100.237 119.065 102.14C119.065 104.043 117.591 105.11 116.117 105.11ZM113.84 102.14C113.84 103.658 114.962 104.494 116.117 104.494C117.272 104.494 118.394 103.658 118.394 102.14C118.394 100.622 117.272 99.786 116.117 99.786C114.962 99.786 113.84 100.622 113.84 102.14ZM122.295 96.981H127.462V96.9917C127.158 97.4608 126.986 97.7114 126.947 97.7437H125.566C125.756 97.9657 125.885 98.236 125.953 98.5547H127.425C127.443 98.5583 127.452 98.5654 127.452 98.5762C127.122 99.0703 126.954 99.3174 126.947 99.3174H125.991C125.969 99.5716 125.847 99.8778 125.625 100.236C125.332 100.597 125.051 100.832 124.782 100.939C124.281 101.179 123.801 101.299 123.343 101.299V101.31C123.343 101.346 124.379 102.576 126.453 105H125.083C123.063 102.647 122.054 101.466 122.054 101.455V100.741L122.064 100.714C122.243 100.739 122.453 100.751 122.693 100.751C123.824 100.751 124.528 100.384 124.804 99.6504C124.847 99.543 124.868 99.432 124.868 99.3174H121.796C121.782 99.3174 121.774 99.3102 121.774 99.2959C122.115 98.8018 122.288 98.5547 122.295 98.5547H124.734V98.5439C124.594 98.2611 124.324 98.0409 123.923 97.8833C123.636 97.7902 123.379 97.7437 123.149 97.7437H121.785V97.7168C122.115 97.2262 122.285 96.981 122.295 96.981ZM131.537 105V98.059H130.426V97.19H132.472V105H131.537ZM137.799 105.11C135.676 105.11 133.861 103.493 133.861 101.095C133.861 98.697 135.676 97.08 137.799 97.08C139.922 97.08 141.737 98.697 141.737 101.095C141.737 103.493 139.922 105.11 137.799 105.11ZM134.807 101.095C134.807 102.987 136.204 104.241 137.799 104.241C139.394 104.241 140.791 102.987 140.791 101.095C140.791 99.203 139.394 97.949 137.799 97.949C136.204 97.949 134.807 99.203 134.807 101.095ZM146.651 105.11C144.528 105.11 142.713 103.493 142.713 101.095C142.713 98.697 144.528 97.08 146.651 97.08C148.774 97.08 150.589 98.697 150.589 101.095C150.589 103.493 148.774 105.11 146.651 105.11ZM143.659 101.095C143.659 102.987 145.056 104.241 146.651 104.241C148.246 104.241 149.643 102.987 149.643 101.095C149.643 99.203 148.246 97.949 146.651 97.949C145.056 97.949 143.659 99.203 143.659 101.095ZM155.502 105.11C153.379 105.11 151.564 103.493 151.564 101.095C151.564 98.697 153.379 97.08 155.502 97.08C157.625 97.08 159.44 98.697 159.44 101.095C159.44 103.493 157.625 105.11 155.502 105.11ZM152.51 101.095C152.51 102.987 153.907 104.241 155.502 104.241C157.097 104.241 158.494 102.987 158.494 101.095C158.494 99.203 157.097 97.949 155.502 97.949C153.907 97.949 152.51 99.203 152.51 101.095ZM165.593 105.11C164.163 105.11 162.755 104.087 162.755 102.14C162.755 100.193 164.163 99.17 165.593 99.17C166.671 99.17 167.551 99.764 167.881 100.501H167.914V99.28H168.585V105H167.914V103.779H167.881C167.551 104.516 166.671 105.11 165.593 105.11ZM163.426 102.14C163.426 103.724 164.559 104.494 165.681 104.494C166.803 104.494 167.936 103.713 167.936 102.14C167.936 100.567 166.803 99.786 165.681 99.786C164.559 99.786 163.426 100.556 163.426 102.14ZM176.215 105V101.678C176.215 100.534 175.709 99.786 174.664 99.786C173.619 99.786 173.036 100.534 173.036 101.678V105H172.365V99.28H173.036V100.215C173.3 99.676 173.861 99.17 174.829 99.17C175.676 99.17 176.38 99.566 176.699 100.424C176.941 99.819 177.557 99.17 178.668 99.17C179.856 99.17 180.736 99.918 180.736 101.612V105H180.065V101.678C180.065 100.534 179.559 99.786 178.514 99.786C177.48 99.786 176.886 100.534 176.886 101.678V105H176.215ZM184.792 105.11C183.318 105.11 181.844 104.043 181.844 102.14C181.844 100.237 183.318 99.17 184.792 99.17C186.266 99.17 187.74 100.237 187.74 102.14C187.74 104.043 186.266 105.11 184.792 105.11ZM182.515 102.14C182.515 103.658 183.637 104.494 184.792 104.494C185.947 104.494 187.069 103.658 187.069 102.14C187.069 100.622 185.947 99.786 184.792 99.786C183.637 99.786 182.515 100.622 182.515 102.14ZM188.854 105V99.28H189.525V100.281C189.811 99.72 190.449 99.17 191.505 99.17C192.726 99.17 193.771 99.929 193.771 101.634V105H193.1V101.711C193.1 100.402 192.319 99.786 191.329 99.786C190.35 99.786 189.525 100.402 189.525 101.711V105H188.854ZM196.561 105.066C195.901 105.066 195.461 104.747 195.461 104.032V99.841H194.724V99.28H195.461V97.817H196.132V99.28H197.243V99.841H196.132V103.889C196.132 104.263 196.319 104.461 196.704 104.461C196.836 104.461 197.012 104.439 197.221 104.351V104.901C197.023 105.033 196.781 105.066 196.561 105.066ZM198.404 105V97.19H199.075V100.281C199.361 99.72 199.999 99.17 201.055 99.17C202.276 99.17 203.321 99.929 203.321 101.634V105H202.65V101.711C202.65 100.402 201.869 99.786 200.879 99.786C199.9 99.786 199.075 100.402 199.075 101.711V105H198.404ZM204.864 105.11C204.611 105.11 204.446 104.923 204.446 104.692C204.446 104.461 204.611 104.274 204.864 104.274C205.117 104.274 205.282 104.461 205.282 104.692C205.282 104.923 205.117 105.11 204.864 105.11ZM211.126 105V101.513L208.365 97.19H209.146L211.467 100.875L213.788 97.19H214.569L211.808 101.513V105H211.126ZM216.911 105.11C215.437 105.11 213.963 104.043 213.963 102.14C213.963 100.237 215.437 99.17 216.911 99.17C218.385 99.17 219.859 100.237 219.859 102.14C219.859 104.043 218.385 105.11 216.911 105.11ZM214.634 102.14C214.634 103.658 215.756 104.494 216.911 104.494C218.066 104.494 219.188 103.658 219.188 102.14C219.188 100.622 218.066 99.786 216.911 99.786C215.756 99.786 214.634 100.622 214.634 102.14ZM225.89 99.28V105H225.219V103.999C224.933 104.56 224.295 105.11 223.239 105.11C222.018 105.11 220.973 104.351 220.973 102.646V99.28H221.644V102.569C221.644 103.878 222.425 104.494 223.415 104.494C224.394 104.494 225.219 103.878 225.219 102.569V99.28H225.89ZM227.279 105V99.28H227.95V100.611C228.181 99.841 228.753 99.17 229.809 99.17C229.941 99.17 230.029 99.181 230.106 99.203V99.83C230.018 99.808 229.941 99.797 229.82 99.797C228.775 99.797 227.95 100.622 227.95 101.964V105H227.279ZM233.644 98.532C233.644 97.278 234.469 96.981 235.107 96.981C235.47 96.981 235.745 97.08 235.943 97.201V97.74C235.745 97.63 235.481 97.564 235.217 97.564C234.711 97.564 234.315 97.806 234.315 98.62V99.28H235.943V99.841H234.315V105H233.644V99.841H233.017V99.28H233.644V98.532ZM236.829 105V99.28H237.5V100.611C237.731 99.841 238.303 99.17 239.359 99.17C239.491 99.17 239.579 99.181 239.656 99.203V99.83C239.568 99.808 239.491 99.797 239.37 99.797C238.325 99.797 237.5 100.622 237.5 101.964V105H236.829ZM240.771 105V99.28H241.442V105H240.771ZM240.771 97.839V97.19H241.442V97.839H240.771ZM245.452 105.11C243.934 105.11 242.548 104.054 242.548 102.129C242.548 100.215 243.945 99.17 245.375 99.17C246.827 99.17 248.29 100.226 248.103 102.382H243.186C243.296 103.768 244.33 104.516 245.529 104.516C246.255 104.516 246.926 104.241 247.344 103.746L247.696 104.109C247.179 104.747 246.343 105.11 245.452 105.11ZM243.186 101.843H247.498C247.465 100.501 246.464 99.764 245.375 99.764C244.319 99.764 243.307 100.479 243.186 101.843ZM249.225 105V99.28H249.896V100.281C250.182 99.72 250.82 99.17 251.876 99.17C253.097 99.17 254.142 99.929 254.142 101.634V105H253.471V101.711C253.471 100.402 252.69 99.786 251.7 99.786C250.721 99.786 249.896 100.402 249.896 101.711V105H249.225ZM261.086 105H260.415V103.779H260.382C260.052 104.516 259.172 105.11 258.094 105.11C256.664 105.11 255.256 104.087 255.256 102.14C255.256 100.193 256.664 99.17 258.094 99.17C259.172 99.17 260.052 99.764 260.382 100.501H260.415V97.19H261.086V105ZM255.927 102.14C255.927 103.724 257.06 104.494 258.182 104.494C259.304 104.494 260.437 103.713 260.437 102.14C260.437 100.567 259.304 99.786 258.182 99.786C257.06 99.786 255.927 100.556 255.927 102.14ZM264.098 105.11C263.053 105.11 262.316 104.527 262.14 103.592L262.723 103.427C262.899 104.142 263.427 104.527 264.098 104.527C264.714 104.527 265.33 104.219 265.33 103.504C265.33 102.921 264.934 102.657 264.186 102.338L263.746 102.162C262.8 101.777 262.415 101.227 262.415 100.6C262.415 99.753 263.13 99.17 264.076 99.17C264.934 99.17 265.583 99.643 265.781 100.369L265.242 100.545C265.055 100.061 264.703 99.742 264.098 99.742C263.548 99.742 263.075 100.028 263.075 100.6C263.075 101.029 263.339 101.359 264.01 101.634L264.395 101.788C265.385 102.195 266.001 102.58 266.001 103.504C266.001 104.615 265.044 105.11 264.098 105.11ZM271.068 105.066C270.408 105.066 269.968 104.747 269.968 104.032V99.841H269.231V99.28H269.968V97.817H270.639V99.28H271.75V99.841H270.639V103.889C270.639 104.263 270.826 104.461 271.211 104.461C271.343 104.461 271.519 104.439 271.728 104.351V104.901C271.53 105.033 271.288 105.066 271.068 105.066ZM275.531 105.11C274.057 105.11 272.583 104.043 272.583 102.14C272.583 100.237 274.057 99.17 275.531 99.17C277.005 99.17 278.479 100.237 278.479 102.14C278.479 104.043 277.005 105.11 275.531 105.11ZM273.254 102.14C273.254 103.658 274.376 104.494 275.531 104.494C276.686 104.494 277.808 103.658 277.808 102.14C277.808 100.622 276.686 99.786 275.531 99.786C274.376 99.786 273.254 100.622 273.254 102.14ZM282.266 105.11C280.792 105.11 279.318 104.043 279.318 102.14C279.318 100.237 280.792 99.17 282.266 99.17C283.74 99.17 285.214 100.237 285.214 102.14C285.214 104.043 283.74 105.11 282.266 105.11ZM279.989 102.14C279.989 103.658 281.111 104.494 282.266 104.494C283.421 104.494 284.543 103.658 284.543 102.14C284.543 100.622 283.421 99.786 282.266 99.786C281.111 99.786 279.989 100.622 279.989 102.14ZM291.441 107.288C290.627 107.288 290.011 107.057 289.758 106.881V106.287C290.022 106.463 290.572 106.705 291.364 106.705C292.508 106.705 293.608 106.199 293.608 104.703V103.779H293.564C293.234 104.516 292.354 105.11 291.276 105.11C289.868 105.11 288.449 104.087 288.449 102.14C288.449 100.193 289.868 99.17 291.276 99.17C292.354 99.17 293.234 99.764 293.564 100.501H293.608V99.28H294.279V104.736C294.279 106.672 292.783 107.288 291.441 107.288ZM289.12 102.14C289.12 103.724 290.253 104.494 291.364 104.494C292.486 104.494 293.63 103.713 293.63 102.14C293.63 100.567 292.486 99.786 291.364 99.786C290.253 99.786 289.12 100.556 289.12 102.14ZM298.293 105.11C296.775 105.11 295.389 104.054 295.389 102.129C295.389 100.215 296.786 99.17 298.216 99.17C299.668 99.17 301.131 100.226 300.944 102.382H296.027C296.137 103.768 297.171 104.516 298.37 104.516C299.096 104.516 299.767 104.241 300.185 103.746L300.537 104.109C300.02 104.747 299.184 105.11 298.293 105.11ZM296.027 101.843H300.339C300.306 100.501 299.305 99.764 298.216 99.764C297.16 99.764 296.148 100.479 296.027 101.843ZM303.467 105.066C302.807 105.066 302.367 104.747 302.367 104.032V99.841H301.63V99.28H302.367V97.817H303.038V99.28H304.149V99.841H303.038V103.889C303.038 104.263 303.225 104.461 303.61 104.461C303.742 104.461 303.918 104.439 304.127 104.351V104.901C303.929 105.033 303.687 105.066 303.467 105.066ZM45.4136 113.981H50.5806V113.992C50.2762 114.461 50.1043 114.711 50.0649 114.744H48.6846C48.8743 114.966 49.0033 115.236 49.0713 115.555H50.543C50.5609 115.558 50.5698 115.565 50.5698 115.576C50.2404 116.07 50.0721 116.317 50.0649 116.317H49.1089C49.0874 116.572 48.9657 116.878 48.7437 117.236C48.45 117.597 48.1689 117.832 47.9004 117.939C47.3991 118.179 46.9193 118.299 46.4609 118.299V118.31C46.4609 118.346 47.4976 119.576 49.5708 122H48.2012C46.1816 119.647 45.1719 118.466 45.1719 118.455V117.741L45.1826 117.714C45.3617 117.739 45.5711 117.751 45.811 117.751C46.9425 117.751 47.6462 117.384 47.9219 116.65C47.9648 116.543 47.9863 116.432 47.9863 116.317H44.9141C44.8997 116.317 44.8926 116.31 44.8926 116.296C45.2327 115.802 45.4064 115.555 45.4136 115.555H47.8521V115.544C47.7124 115.261 47.4421 115.041 47.041 114.883C46.7546 114.79 46.4967 114.744 46.2676 114.744H44.9033V114.717C45.2327 114.226 45.4028 113.981 45.4136 113.981ZM55.865 122.11C54.6 122.11 53.709 121.406 53.346 120.526L54.072 120.119C54.281 120.669 54.93 121.263 55.854 121.263C56.844 121.263 57.713 120.592 57.713 119.437C57.713 118.315 56.91 117.578 55.898 117.578C55.183 117.578 54.611 117.941 54.292 118.403L53.544 118.106L54.072 114.19H57.856V115.015H54.798L54.457 117.424C54.732 117.083 55.326 116.797 56.063 116.797C57.427 116.797 58.626 117.798 58.626 119.426C58.626 121.065 57.405 122.11 55.865 122.11ZM63.5922 122.11C61.4692 122.11 59.6542 120.493 59.6542 118.095C59.6542 115.697 61.4692 114.08 63.5922 114.08C65.7152 114.08 67.5302 115.697 67.5302 118.095C67.5302 120.493 65.7152 122.11 63.5922 122.11ZM60.6002 118.095C60.6002 119.987 61.9972 121.241 63.5922 121.241C65.1872 121.241 66.5842 119.987 66.5842 118.095C66.5842 116.203 65.1872 114.949 63.5922 114.949C61.9972 114.949 60.6002 116.203 60.6002 118.095ZM72.4438 122.11C70.3208 122.11 68.5058 120.493 68.5058 118.095C68.5058 115.697 70.3208 114.08 72.4438 114.08C74.5668 114.08 76.3818 115.697 76.3818 118.095C76.3818 120.493 74.5668 122.11 72.4438 122.11ZM69.4518 118.095C69.4518 119.987 70.8488 121.241 72.4438 121.241C74.0388 121.241 75.4358 119.987 75.4358 118.095C75.4358 116.203 74.0388 114.949 72.4438 114.949C70.8488 114.949 69.4518 116.203 69.4518 118.095ZM82.6443 122.11C81.1703 122.11 79.6963 121.043 79.6963 119.14C79.6963 117.237 81.1703 116.17 82.6443 116.17C84.1183 116.17 85.5923 117.237 85.5923 119.14C85.5923 121.043 84.1183 122.11 82.6443 122.11ZM80.3673 119.14C80.3673 120.658 81.4893 121.494 82.6443 121.494C83.7993 121.494 84.9213 120.658 84.9213 119.14C84.9213 117.622 83.7993 116.786 82.6443 116.786C81.4893 116.786 80.3673 117.622 80.3673 119.14ZM86.7067 122V116.28H87.3777V117.281C87.6637 116.72 88.3017 116.17 89.3577 116.17C90.5787 116.17 91.6237 116.929 91.6237 118.634V122H90.9527V118.711C90.9527 117.402 90.1717 116.786 89.1817 116.786C88.2027 116.786 87.3777 117.402 87.3777 118.711V122H86.7067ZM95.4078 122V114.19H96.0788V122H95.4078ZM100.133 122.11C98.6586 122.11 97.1846 121.043 97.1846 119.14C97.1846 117.237 98.6586 116.17 100.133 116.17C101.607 116.17 103.081 117.237 103.081 119.14C103.081 121.043 101.607 122.11 100.133 122.11ZM97.8556 119.14C97.8556 120.658 98.9776 121.494 100.133 121.494C101.288 121.494 102.41 120.658 102.41 119.14C102.41 117.622 101.288 116.786 100.133 116.786C98.9776 116.786 97.8556 117.622 97.8556 119.14ZM106.758 122.11C105.328 122.11 103.92 121.087 103.92 119.14C103.92 117.193 105.328 116.17 106.758 116.17C107.836 116.17 108.716 116.764 109.046 117.501H109.079V116.28H109.75V122H109.079V120.779H109.046C108.716 121.516 107.836 122.11 106.758 122.11ZM104.591 119.14C104.591 120.724 105.724 121.494 106.846 121.494C107.968 121.494 109.101 120.713 109.101 119.14C109.101 117.567 107.968 116.786 106.846 116.786C105.724 116.786 104.591 117.556 104.591 119.14ZM111.134 122V116.28H111.805V117.281C112.091 116.72 112.729 116.17 113.785 116.17C115.006 116.17 116.051 116.929 116.051 118.634V122H115.38V118.711C115.38 117.402 114.599 116.786 113.609 116.786C112.63 116.786 111.805 117.402 111.805 118.711V122H111.134ZM125.391 122H124.72V120.779H124.687C124.357 121.516 123.477 122.11 122.399 122.11C120.969 122.11 119.561 121.087 119.561 119.14C119.561 117.193 120.969 116.17 122.399 116.17C123.477 116.17 124.357 116.764 124.687 117.501H124.72V114.19H125.391V122ZM120.232 119.14C120.232 120.724 121.365 121.494 122.487 121.494C123.609 121.494 124.742 120.713 124.742 119.14C124.742 117.567 123.609 116.786 122.487 116.786C121.365 116.786 120.232 117.556 120.232 119.14ZM126.775 122V116.28H127.446V122H126.775ZM126.775 114.839V114.19H127.446V114.839H126.775ZM130.455 122.11C129.41 122.11 128.673 121.527 128.497 120.592L129.08 120.427C129.256 121.142 129.784 121.527 130.455 121.527C131.071 121.527 131.687 121.219 131.687 120.504C131.687 119.921 131.291 119.657 130.543 119.338L130.103 119.162C129.157 118.777 128.772 118.227 128.772 117.6C128.772 116.753 129.487 116.17 130.433 116.17C131.291 116.17 131.94 116.643 132.138 117.369L131.599 117.545C131.412 117.061 131.06 116.742 130.455 116.742C129.905 116.742 129.432 117.028 129.432 117.6C129.432 118.029 129.696 118.359 130.367 118.634L130.752 118.788C131.742 119.195 132.358 119.58 132.358 120.504C132.358 121.615 131.401 122.11 130.455 122.11ZM133.467 114.19H134.138V117.501H134.171C134.501 116.764 135.381 116.17 136.459 116.17C137.889 116.17 139.297 117.193 139.297 119.14C139.297 121.087 137.889 122.11 136.459 122.11C135.381 122.11 134.501 121.516 134.171 120.779H134.138V122H133.467V114.19ZM134.116 119.14C134.116 120.713 135.249 121.494 136.371 121.494C137.493 121.494 138.626 120.724 138.626 119.14C138.626 117.556 137.493 116.786 136.371 116.786C135.249 116.786 134.116 117.567 134.116 119.14ZM145.324 116.28V122H144.653V120.999C144.367 121.56 143.729 122.11 142.673 122.11C141.452 122.11 140.407 121.351 140.407 119.646V116.28H141.078V119.569C141.078 120.878 141.859 121.494 142.849 121.494C143.828 121.494 144.653 120.878 144.653 119.569V116.28H145.324ZM146.713 122V116.28H147.384V117.611C147.615 116.841 148.187 116.17 149.243 116.17C149.375 116.17 149.463 116.181 149.54 116.203V116.83C149.452 116.808 149.375 116.797 149.254 116.797C148.209 116.797 147.384 117.622 147.384 118.964V122H146.713ZM152.175 122.11C151.13 122.11 150.393 121.527 150.217 120.592L150.8 120.427C150.976 121.142 151.504 121.527 152.175 121.527C152.791 121.527 153.407 121.219 153.407 120.504C153.407 119.921 153.011 119.657 152.263 119.338L151.823 119.162C150.877 118.777 150.492 118.227 150.492 117.6C150.492 116.753 151.207 116.17 152.153 116.17C153.011 116.17 153.66 116.643 153.858 117.369L153.319 117.545C153.132 117.061 152.78 116.742 152.175 116.742C151.625 116.742 151.152 117.028 151.152 117.6C151.152 118.029 151.416 118.359 152.087 118.634L152.472 118.788C153.462 119.195 154.078 119.58 154.078 120.504C154.078 121.615 153.121 122.11 152.175 122.11ZM157.751 122.11C156.321 122.11 154.913 121.087 154.913 119.14C154.913 117.193 156.321 116.17 157.751 116.17C158.829 116.17 159.709 116.764 160.039 117.501H160.072V116.28H160.743V122H160.072V120.779H160.039C159.709 121.516 158.829 122.11 157.751 122.11ZM155.584 119.14C155.584 120.724 156.717 121.494 157.839 121.494C158.961 121.494 160.094 120.713 160.094 119.14C160.094 117.567 158.961 116.786 157.839 116.786C156.717 116.786 155.584 117.556 155.584 119.14ZM162.128 122V114.19H162.799V122H162.128ZM164.333 122.11C164.08 122.11 163.915 121.923 163.915 121.692C163.915 121.461 164.08 121.274 164.333 121.274C164.586 121.274 164.751 121.461 164.751 121.692C164.751 121.923 164.586 122.11 164.333 122.11Z" fill="#292929"/>
<path d="M32.5 57C31.61 57 30.74 57.2639 29.9999 57.7584C29.2599 58.2529 28.6831 58.9557 28.3425 59.7779C28.0019 60.6002 27.9128 61.505 28.0865 62.3779C28.2601 63.2508 28.6887 64.0526 29.318 64.682C29.9474 65.3113 30.7492 65.7399 31.6221 65.9135C32.495 66.0872 33.3998 65.998 34.2221 65.6575C35.0443 65.3169 35.7471 64.7401 36.2416 64.0001C36.7361 63.26 37 62.39 37 61.5C36.9975 60.3073 36.5226 59.1641 35.6793 58.3207C34.8359 57.4774 33.6927 57.0025 32.5 57ZM34.6039 60.5649L32.1844 62.8675C32.1585 62.8939 32.1276 62.9147 32.0934 62.9288C32.0593 62.9428 32.0226 62.9498 31.9857 62.9493C31.9469 62.951 31.9082 62.9445 31.872 62.9304C31.8358 62.9164 31.8029 62.8949 31.7753 62.8675L30.3961 61.4766C30.3419 61.4224 30.3114 61.3488 30.3114 61.2721C30.3114 61.1954 30.3419 61.1218 30.3961 61.0675C30.4504 61.0133 30.5239 60.9828 30.6007 60.9828C30.6774 60.9828 30.7509 61.0133 30.8052 61.0675L31.9857 62.2597L34.2065 60.1442C34.2336 60.1154 34.2662 60.0926 34.3025 60.0769C34.3387 60.0613 34.3778 60.0532 34.4173 60.0532C34.4567 60.0532 34.4958 60.0613 34.532 60.0769C34.5683 60.0925 34.601 60.1154 34.6281 60.1441C34.6552 60.1727 34.6761 60.2067 34.6897 60.2438C34.7032 60.2808 34.709 60.3203 34.7067 60.3597C34.7045 60.3991 34.6942 60.4376 34.6765 60.4729C34.6588 60.5082 34.6341 60.5395 34.6039 60.5649Z" fill="#D42D3F"/>
<path d="M32.5 97C31.61 97 30.74 97.2639 29.9999 97.7584C29.2599 98.2529 28.6831 98.9557 28.3425 99.7779C28.0019 100.6 27.9128 101.505 28.0865 102.378C28.2601 103.251 28.6887 104.053 29.318 104.682C29.9474 105.311 30.7492 105.74 31.6221 105.914C32.495 106.087 33.3998 105.998 34.2221 105.657C35.0443 105.317 35.7471 104.74 36.2416 104C36.7361 103.26 37 102.39 37 101.5C36.9975 100.307 36.5226 99.1641 35.6793 98.3207C34.8359 97.4774 33.6927 97.0025 32.5 97ZM34.6039 100.565L32.1844 102.868C32.1585 102.894 32.1276 102.915 32.0934 102.929C32.0593 102.943 32.0226 102.95 31.9857 102.949C31.9469 102.951 31.9082 102.945 31.872 102.93C31.8358 102.916 31.8029 102.895 31.7753 102.868L30.3961 101.477C30.3419 101.422 30.3114 101.349 30.3114 101.272C30.3114 101.195 30.3419 101.122 30.3961 101.068C30.4504 101.013 30.5239 100.983 30.6007 100.983C30.6774 100.983 30.7509 101.013 30.8052 101.068L31.9857 102.26L34.2065 100.144C34.2336 100.115 34.2662 100.093 34.3025 100.077C34.3387 100.061 34.3778 100.053 34.4173 100.053C34.4567 100.053 34.4958 100.061 34.532 100.077C34.5683 100.092 34.601 100.115 34.6281 100.144C34.6552 100.173 34.6761 100.207 34.6897 100.244C34.7032 100.281 34.709 100.32 34.7067 100.36C34.7045 100.399 34.6942 100.438 34.6765 100.473C34.6588 100.508 34.6341 100.54 34.6039 100.565Z" fill="#D42D3F"/>
<defs>
<filter id="filter0_dd_1505_111" x="0" y="0" width="336" height="155" filterUnits="userSpaceOnUse" color-interpolation-filters="sRGB">
<feFlood flood-opacity="0" result="BackgroundImageFix"/>
<feColorMatrix in="SourceAlpha" type="matrix" values="0 0 0 0 0 0 0 0 0 0 0 0 0 0 0 0 0 0 127 0" result="hardAlpha"/>
<feOffset dx="2" dy="2"/>
<feGaussianBlur stdDeviation="3"/>
<feComposite in2="hardAlpha" operator="out"/>
<feColorMatrix type="matrix" values="0 0 0 0 0.658824 0 0 0 0 0.0509804 0 0 0 0 0.109804 0 0 0 0.5 0"/>
<feBlend mode="normal" in2="BackgroundImageFix" result="effect1_dropShadow_1505_111"/>
<feColorMatrix in="SourceAlpha" type="matrix" values="0 0 0 0 0 0 0 0 0 0 0 0 0 0 0 0 0 0 127 0" result="hardAlpha"/>
<feOffset dx="-2" dy="-2"/>
<feGaussianBlur stdDeviation="3"/>
<feComposite in2="hardAlpha" operator="out"/>
<feColorMatrix type="matrix" values="0 0 0 0 0.658824 0 0 0 0 0.0509804 0 0 0 0 0.109804 0 0 0 0.5 0"/>
<feBlend mode="normal" in2="effect1_dropShadow_1505_111" result="effect2_dropShadow_1505_111"/>
<feBlend mode="normal" in="SourceGraphic" in2="effect2_dropShadow_1505_111" result="shape"/>
</filter>
</defs>
</svg>
