<svg width="324" height="153" viewBox="0 0 324 153" fill="none" xmlns="http://www.w3.org/2000/svg">
<g filter="url(#filter0_d_1447_107)">
<mask id="path-1-inside-1_1447_107" fill="white">
<path d="M311 0C311 1.85652 310.262 3.637 308.95 4.94975C307.637 6.26251 305.857 7 304 7C302.143 7 300.363 6.26251 299.05 4.94975C297.738 3.637 297 1.85652 297 0H287C287 1.85652 286.262 3.637 284.95 4.94975C283.637 6.26251 281.857 7 280 7C278.143 7 276.363 6.26251 275.05 4.94975C273.738 3.637 273 1.85652 273 0H263C263 1.85652 262.262 3.637 260.95 4.94975C259.637 6.26251 257.857 7 256 7C254.143 7 252.363 6.26251 251.05 4.94975C249.738 3.637 249 1.85652 249 0H239C239 1.85652 238.262 3.637 236.95 4.94975C235.637 6.26251 233.857 7 232 7C230.143 7 228.363 6.26251 227.05 4.94975C225.738 3.637 225 1.85652 225 0H215C215 1.85652 214.262 3.637 212.95 4.94975C211.637 6.26251 209.857 7 208 7C206.143 7 204.363 6.26251 203.05 4.94975C201.738 3.637 201 1.85652 201 0H191C191 1.85652 190.262 3.637 188.95 4.94975C187.637 6.26251 185.857 7 184 7C182.143 7 180.363 6.26251 179.05 4.94975C177.738 3.637 177 1.85652 177 0H167C167 1.85652 166.262 3.637 164.95 4.94975C163.637 6.26251 161.857 7 160 7C158.143 7 156.363 6.26251 155.05 4.94975C153.738 3.637 153 1.85652 153 0H143C143 1.85652 142.262 3.637 140.95 4.94975C139.637 6.26251 137.857 7 136 7C134.143 7 132.363 6.26251 131.05 4.94975C129.738 3.637 129 1.85652 129 0H119C119 1.85652 118.262 3.637 116.95 4.94975C115.637 6.26251 113.857 7 112 7C110.143 7 108.363 6.26251 107.05 4.94975C105.738 3.637 105 1.85652 105 0H95C95 1.85652 94.2625 3.637 92.9498 4.94975C91.637 6.26251 89.8565 7 88 7C86.1435 7 84.363 6.26251 83.0502 4.94975C81.7375 3.637 81 1.85652 81 0H71C71 1.85652 70.2625 3.637 68.9498 4.94975C67.637 6.26251 65.8565 7 64 7C62.1435 7 60.363 6.26251 59.0502 4.94975C57.7375 3.637 57 1.85652 57 0H47C47 1.85652 46.2625 3.637 44.9498 4.94975C43.637 6.26251 41.8565 7 40 7C38.1435 7 36.363 6.26251 35.0502 4.94975C33.7375 3.637 33 1.85652 33 0H23C23 1.85652 22.2625 3.637 20.9498 4.94975C19.637 6.26251 17.8565 7 16 7C14.1435 7 12.363 6.26251 11.0502 4.94975C9.73748 3.637 9 1.85652 9 0H0L0 148.5H9C9 146.643 9.73748 144.863 11.0502 143.55C12.363 142.238 14.1435 141.5 16 141.5C17.8565 141.5 19.637 142.238 20.9498 143.55C22.2625 144.863 23 146.643 23 148.5H33C33 146.643 33.7375 144.863 35.0502 143.55C36.363 142.238 38.1435 141.5 40 141.5C41.8565 141.5 43.637 142.238 44.9498 143.55C46.2625 144.863 47 146.643 47 148.5H57C57 146.643 57.7375 144.863 59.0502 143.55C60.363 142.238 62.1435 141.5 64 141.5C65.8565 141.5 67.637 142.238 68.9498 143.55C70.2625 144.863 71 146.643 71 148.5H81C81 146.643 81.7375 144.863 83.0502 143.55C84.363 142.238 86.1435 141.5 88 141.5C89.8565 141.5 91.637 142.238 92.9498 143.55C94.2625 144.863 95 146.643 95 148.5H105C105 146.643 105.738 144.863 107.05 143.55C108.363 142.238 110.143 141.5 112 141.5C113.857 141.5 115.637 142.238 116.95 143.55C118.262 144.863 119 146.643 119 148.5H129C129 146.643 129.738 144.863 131.05 143.55C132.363 142.238 134.143 141.5 136 141.5C137.857 141.5 139.637 142.238 140.95 143.55C142.262 144.863 143 146.643 143 148.5H153C153 146.643 153.738 144.863 155.05 143.55C156.363 142.238 158.143 141.5 160 141.5C161.857 141.5 163.637 142.238 164.95 143.55C166.262 144.863 167 146.643 167 148.5H177C177 146.643 177.738 144.863 179.05 143.55C180.363 142.238 182.143 141.5 184 141.5C185.857 141.5 187.637 142.238 188.95 143.55C190.262 144.863 191 146.643 191 148.5H201C201 146.643 201.738 144.863 203.05 143.55C204.363 142.238 206.143 141.5 208 141.5C209.857 141.5 211.637 142.238 212.95 143.55C214.262 144.863 215 146.643 215 148.5H225C225 146.643 225.738 144.863 227.05 143.55C228.363 142.238 230.143 141.5 232 141.5C233.857 141.5 235.637 142.238 236.95 143.55C238.262 144.863 239 146.643 239 148.5H249C249 146.643 249.738 144.863 251.05 143.55C252.363 142.238 254.143 141.5 256 141.5C257.857 141.5 259.637 142.238 260.95 143.55C262.262 144.863 263 146.643 263 148.5H273C273 146.643 273.738 144.863 275.05 143.55C276.363 142.238 278.143 141.5 280 141.5C281.857 141.5 283.637 142.238 284.95 143.55C286.262 144.863 287 146.643 287 148.5H297C297 146.643 297.738 144.863 299.05 143.55C300.363 142.238 302.143 141.5 304 141.5C305.857 141.5 307.637 142.238 308.95 143.55C310.262 144.863 311 146.643 311 148.5H320V0H311Z"/>
</mask>
<path d="M311 0C311 1.85652 310.262 3.637 308.95 4.94975C307.637 6.26251 305.857 7 304 7C302.143 7 300.363 6.26251 299.05 4.94975C297.738 3.637 297 1.85652 297 0H287C287 1.85652 286.262 3.637 284.95 4.94975C283.637 6.26251 281.857 7 280 7C278.143 7 276.363 6.26251 275.05 4.94975C273.738 3.637 273 1.85652 273 0H263C263 1.85652 262.262 3.637 260.95 4.94975C259.637 6.26251 257.857 7 256 7C254.143 7 252.363 6.26251 251.05 4.94975C249.738 3.637 249 1.85652 249 0H239C239 1.85652 238.262 3.637 236.95 4.94975C235.637 6.26251 233.857 7 232 7C230.143 7 228.363 6.26251 227.05 4.94975C225.738 3.637 225 1.85652 225 0H215C215 1.85652 214.262 3.637 212.95 4.94975C211.637 6.26251 209.857 7 208 7C206.143 7 204.363 6.26251 203.05 4.94975C201.738 3.637 201 1.85652 201 0H191C191 1.85652 190.262 3.637 188.95 4.94975C187.637 6.26251 185.857 7 184 7C182.143 7 180.363 6.26251 179.05 4.94975C177.738 3.637 177 1.85652 177 0H167C167 1.85652 166.262 3.637 164.95 4.94975C163.637 6.26251 161.857 7 160 7C158.143 7 156.363 6.26251 155.05 4.94975C153.738 3.637 153 1.85652 153 0H143C143 1.85652 142.262 3.637 140.95 4.94975C139.637 6.26251 137.857 7 136 7C134.143 7 132.363 6.26251 131.05 4.94975C129.738 3.637 129 1.85652 129 0H119C119 1.85652 118.262 3.637 116.95 4.94975C115.637 6.26251 113.857 7 112 7C110.143 7 108.363 6.26251 107.05 4.94975C105.738 3.637 105 1.85652 105 0H95C95 1.85652 94.2625 3.637 92.9498 4.94975C91.637 6.26251 89.8565 7 88 7C86.1435 7 84.363 6.26251 83.0502 4.94975C81.7375 3.637 81 1.85652 81 0H71C71 1.85652 70.2625 3.637 68.9498 4.94975C67.637 6.26251 65.8565 7 64 7C62.1435 7 60.363 6.26251 59.0502 4.94975C57.7375 3.637 57 1.85652 57 0H47C47 1.85652 46.2625 3.637 44.9498 4.94975C43.637 6.26251 41.8565 7 40 7C38.1435 7 36.363 6.26251 35.0502 4.94975C33.7375 3.637 33 1.85652 33 0H23C23 1.85652 22.2625 3.637 20.9498 4.94975C19.637 6.26251 17.8565 7 16 7C14.1435 7 12.363 6.26251 11.0502 4.94975C9.73748 3.637 9 1.85652 9 0H0L0 148.5H9C9 146.643 9.73748 144.863 11.0502 143.55C12.363 142.238 14.1435 141.5 16 141.5C17.8565 141.5 19.637 142.238 20.9498 143.55C22.2625 144.863 23 146.643 23 148.5H33C33 146.643 33.7375 144.863 35.0502 143.55C36.363 142.238 38.1435 141.5 40 141.5C41.8565 141.5 43.637 142.238 44.9498 143.55C46.2625 144.863 47 146.643 47 148.5H57C57 146.643 57.7375 144.863 59.0502 143.55C60.363 142.238 62.1435 141.5 64 141.5C65.8565 141.5 67.637 142.238 68.9498 143.55C70.2625 144.863 71 146.643 71 148.5H81C81 146.643 81.7375 144.863 83.0502 143.55C84.363 142.238 86.1435 141.5 88 141.5C89.8565 141.5 91.637 142.238 92.9498 143.55C94.2625 144.863 95 146.643 95 148.5H105C105 146.643 105.738 144.863 107.05 143.55C108.363 142.238 110.143 141.5 112 141.5C113.857 141.5 115.637 142.238 116.95 143.55C118.262 144.863 119 146.643 119 148.5H129C129 146.643 129.738 144.863 131.05 143.55C132.363 142.238 134.143 141.5 136 141.5C137.857 141.5 139.637 142.238 140.95 143.55C142.262 144.863 143 146.643 143 148.5H153C153 146.643 153.738 144.863 155.05 143.55C156.363 142.238 158.143 141.5 160 141.5C161.857 141.5 163.637 142.238 164.95 143.55C166.262 144.863 167 146.643 167 148.5H177C177 146.643 177.738 144.863 179.05 143.55C180.363 142.238 182.143 141.5 184 141.5C185.857 141.5 187.637 142.238 188.95 143.55C190.262 144.863 191 146.643 191 148.5H201C201 146.643 201.738 144.863 203.05 143.55C204.363 142.238 206.143 141.5 208 141.5C209.857 141.5 211.637 142.238 212.95 143.55C214.262 144.863 215 146.643 215 148.5H225C225 146.643 225.738 144.863 227.05 143.55C228.363 142.238 230.143 141.5 232 141.5C233.857 141.5 235.637 142.238 236.95 143.55C238.262 144.863 239 146.643 239 148.5H249C249 146.643 249.738 144.863 251.05 143.55C252.363 142.238 254.143 141.5 256 141.5C257.857 141.5 259.637 142.238 260.95 143.55C262.262 144.863 263 146.643 263 148.5H273C273 146.643 273.738 144.863 275.05 143.55C276.363 142.238 278.143 141.5 280 141.5C281.857 141.5 283.637 142.238 284.95 143.55C286.262 144.863 287 146.643 287 148.5H297C297 146.643 297.738 144.863 299.05 143.55C300.363 142.238 302.143 141.5 304 141.5C305.857 141.5 307.637 142.238 308.95 143.55C310.262 144.863 311 146.643 311 148.5H320V0H311Z" fill="white"/>
<path d="M311 0C311 1.85652 310.262 3.637 308.95 4.94975C307.637 6.26251 305.857 7 304 7C302.143 7 300.363 6.26251 299.05 4.94975C297.738 3.637 297 1.85652 297 0H287C287 1.85652 286.262 3.637 284.95 4.94975C283.637 6.26251 281.857 7 280 7C278.143 7 276.363 6.26251 275.05 4.94975C273.738 3.637 273 1.85652 273 0H263C263 1.85652 262.262 3.637 260.95 4.94975C259.637 6.26251 257.857 7 256 7C254.143 7 252.363 6.26251 251.05 4.94975C249.738 3.637 249 1.85652 249 0H239C239 1.85652 238.262 3.637 236.95 4.94975C235.637 6.26251 233.857 7 232 7C230.143 7 228.363 6.26251 227.05 4.94975C225.738 3.637 225 1.85652 225 0H215C215 1.85652 214.262 3.637 212.95 4.94975C211.637 6.26251 209.857 7 208 7C206.143 7 204.363 6.26251 203.05 4.94975C201.738 3.637 201 1.85652 201 0H191C191 1.85652 190.262 3.637 188.95 4.94975C187.637 6.26251 185.857 7 184 7C182.143 7 180.363 6.26251 179.05 4.94975C177.738 3.637 177 1.85652 177 0H167C167 1.85652 166.262 3.637 164.95 4.94975C163.637 6.26251 161.857 7 160 7C158.143 7 156.363 6.26251 155.05 4.94975C153.738 3.637 153 1.85652 153 0H143C143 1.85652 142.262 3.637 140.95 4.94975C139.637 6.26251 137.857 7 136 7C134.143 7 132.363 6.26251 131.05 4.94975C129.738 3.637 129 1.85652 129 0H119C119 1.85652 118.262 3.637 116.95 4.94975C115.637 6.26251 113.857 7 112 7C110.143 7 108.363 6.26251 107.05 4.94975C105.738 3.637 105 1.85652 105 0H95C95 1.85652 94.2625 3.637 92.9498 4.94975C91.637 6.26251 89.8565 7 88 7C86.1435 7 84.363 6.26251 83.0502 4.94975C81.7375 3.637 81 1.85652 81 0H71C71 1.85652 70.2625 3.637 68.9498 4.94975C67.637 6.26251 65.8565 7 64 7C62.1435 7 60.363 6.26251 59.0502 4.94975C57.7375 3.637 57 1.85652 57 0H47C47 1.85652 46.2625 3.637 44.9498 4.94975C43.637 6.26251 41.8565 7 40 7C38.1435 7 36.363 6.26251 35.0502 4.94975C33.7375 3.637 33 1.85652 33 0H23C23 1.85652 22.2625 3.637 20.9498 4.94975C19.637 6.26251 17.8565 7 16 7C14.1435 7 12.363 6.26251 11.0502 4.94975C9.73748 3.637 9 1.85652 9 0H0L0 148.5H9C9 146.643 9.73748 144.863 11.0502 143.55C12.363 142.238 14.1435 141.5 16 141.5C17.8565 141.5 19.637 142.238 20.9498 143.55C22.2625 144.863 23 146.643 23 148.5H33C33 146.643 33.7375 144.863 35.0502 143.55C36.363 142.238 38.1435 141.5 40 141.5C41.8565 141.5 43.637 142.238 44.9498 143.55C46.2625 144.863 47 146.643 47 148.5H57C57 146.643 57.7375 144.863 59.0502 143.55C60.363 142.238 62.1435 141.5 64 141.5C65.8565 141.5 67.637 142.238 68.9498 143.55C70.2625 144.863 71 146.643 71 148.5H81C81 146.643 81.7375 144.863 83.0502 143.55C84.363 142.238 86.1435 141.5 88 141.5C89.8565 141.5 91.637 142.238 92.9498 143.55C94.2625 144.863 95 146.643 95 148.5H105C105 146.643 105.738 144.863 107.05 143.55C108.363 142.238 110.143 141.5 112 141.5C113.857 141.5 115.637 142.238 116.95 143.55C118.262 144.863 119 146.643 119 148.5H129C129 146.643 129.738 144.863 131.05 143.55C132.363 142.238 134.143 141.5 136 141.5C137.857 141.5 139.637 142.238 140.95 143.55C142.262 144.863 143 146.643 143 148.5H153C153 146.643 153.738 144.863 155.05 143.55C156.363 142.238 158.143 141.5 160 141.5C161.857 141.5 163.637 142.238 164.95 143.55C166.262 144.863 167 146.643 167 148.5H177C177 146.643 177.738 144.863 179.05 143.55C180.363 142.238 182.143 141.5 184 141.5C185.857 141.5 187.637 142.238 188.95 143.55C190.262 144.863 191 146.643 191 148.5H201C201 146.643 201.738 144.863 203.05 143.55C204.363 142.238 206.143 141.5 208 141.5C209.857 141.5 211.637 142.238 212.95 143.55C214.262 144.863 215 146.643 215 148.5H225C225 146.643 225.738 144.863 227.05 143.55C228.363 142.238 230.143 141.5 232 141.5C233.857 141.5 235.637 142.238 236.95 143.55C238.262 144.863 239 146.643 239 148.5H249C249 146.643 249.738 144.863 251.05 143.55C252.363 142.238 254.143 141.5 256 141.5C257.857 141.5 259.637 142.238 260.95 143.55C262.262 144.863 263 146.643 263 148.5H273C273 146.643 273.738 144.863 275.05 143.55C276.363 142.238 278.143 141.5 280 141.5C281.857 141.5 283.637 142.238 284.95 143.55C286.262 144.863 287 146.643 287 148.5H297C297 146.643 297.738 144.863 299.05 143.55C300.363 142.238 302.143 141.5 304 141.5C305.857 141.5 307.637 142.238 308.95 143.55C310.262 144.863 311 146.643 311 148.5H320V0H311Z" stroke="black" stroke-width="2" mask="url(#path-1-inside-1_1447_107)"/>
</g>
<defs>
<filter id="filter0_d_1447_107" x="0" y="0" width="324" height="152.5" filterUnits="userSpaceOnUse" color-interpolation-filters="sRGB">
<feFlood flood-opacity="0" result="BackgroundImageFix"/>
<feColorMatrix in="SourceAlpha" type="matrix" values="0 0 0 0 0 0 0 0 0 0 0 0 0 0 0 0 0 0 127 0" result="hardAlpha"/>
<feOffset dx="2" dy="2"/>
<feGaussianBlur stdDeviation="1"/>
<feComposite in2="hardAlpha" operator="out"/>
<feColorMatrix type="matrix" values="0 0 0 0 0.341176 0 0 0 0 0 0 0 0 0 0 0 0 0 0.35 0"/>
<feBlend mode="normal" in2="BackgroundImageFix" result="effect1_dropShadow_1447_107"/>
<feBlend mode="normal" in="SourceGraphic" in2="effect1_dropShadow_1447_107" result="shape"/>
</filter>
</defs>
</svg>
